<svg width="203" height="71" viewBox="0 0 203 71" fill="none" xmlns="http://www.w3.org/2000/svg">
<path d="M21.2575 1.74C21.2575 1.74 17.2875 0 10.6475 0C4.00753 0 0.0375282 1.74 0.0375282 1.74C0.0375282 1.74 -0.322472 9.44 1.18753 13.79C3.84753 21.44 10.6475 23.59 10.6475 23.59C10.6475 23.59 17.4475 21.44 20.1075 13.79C21.6075 9.44 21.2575 1.74 21.2575 1.74Z" fill="#FF0000"/>
<path d="M17.6876 8.38018V12.6202H12.7476V17.5702H8.50756V12.6202H3.55756V8.38018H8.50756V3.43018H12.7476V8.38018H17.6876Z" fill="white"/>
<path d="M31.24 6.84988C31.58 6.84988 31.86 6.75988 32.08 6.58988C32.3 6.41988 32.41 6.14988 32.42 5.77988C32.42 5.51988 32.29 5.30988 32.04 5.12988C31.93 5.03988 31.8 4.95988 31.66 4.87988C31.52 4.79988 31.37 4.71988 31.22 4.63988C31.07 4.54988 30.92 4.45988 30.78 4.36988C30.63 4.27988 30.5 4.17988 30.39 4.06988C30.15 3.84988 30.02 3.57988 30.02 3.24988C30.02 2.81988 30.19 2.48988 30.51 2.23988C30.82 1.99988 31.21 1.87988 31.68 1.87988C31.81 1.87988 31.97 1.88988 32.16 1.90988C32.35 1.93988 32.53 1.98988 32.71 2.04988L32.63 2.51988C32.37 2.38988 32.06 2.31988 31.68 2.31988C31.55 2.31988 31.41 2.32988 31.28 2.35988C31.15 2.38988 31.03 2.43988 30.91 2.51988C30.81 2.57988 30.72 2.66988 30.65 2.78988C30.58 2.90988 30.55 3.05988 30.55 3.22988C30.55 3.34988 30.58 3.46988 30.65 3.57988C30.72 3.67988 30.81 3.77988 30.92 3.85988C31.04 3.93988 31.17 4.02988 31.31 4.09988C31.45 4.17988 31.6 4.25988 31.75 4.34988C32.06 4.49988 32.34 4.68988 32.58 4.91988C32.7 5.02988 32.79 5.15988 32.86 5.30988C32.92 5.45988 32.96 5.62988 32.96 5.82988C32.95 6.34988 32.77 6.72988 32.41 6.95988C32.06 7.18988 31.67 7.30988 31.24 7.30988C30.73 7.29988 30.33 7.22988 30.05 7.07988L30.1 6.54988C30.38 6.74988 30.76 6.84988 31.24 6.84988Z" fill="#092740"/>
<path d="M37 3.88979C36.73 3.76979 36.46 3.69979 36.18 3.69979C35.72 3.69979 35.37 3.84979 35.12 4.13979C34.87 4.42979 34.74 4.81979 34.74 5.29979C34.74 5.74979 34.86 6.11979 35.12 6.41979C35.37 6.72978 35.7 6.89979 36.13 6.89979C36.43 6.89979 36.71 6.83979 36.99 6.72979L37.03 7.16979C36.72 7.25978 36.39 7.30979 36.05 7.29979C35.43 7.28978 34.98 7.08979 34.68 6.68979C34.37 6.29979 34.22 5.83978 34.22 5.28978C34.22 4.68978 34.4 4.19979 34.75 3.83979C35.09 3.47979 35.55 3.28979 36.12 3.27979C36.35 3.27979 36.55 3.29979 36.7 3.32979C36.78 3.33979 36.85 3.35979 36.91 3.36979C36.96 3.38979 37.01 3.40979 37.04 3.41979L37 3.88979Z" fill="#092740"/>
<path d="M38.43 1.58008H38.9V4.03008H38.92C39.02 3.82008 39.18 3.64008 39.39 3.50008C39.6 3.37008 39.84 3.30008 40.12 3.30008C40.63 3.30008 40.98 3.46008 41.16 3.75008C41.34 4.05008 41.43 4.44008 41.42 4.93008V7.22008H40.95V4.93008C40.95 4.76008 40.94 4.60008 40.92 4.45008C40.9 4.30008 40.86 4.18008 40.79 4.07008C40.67 3.83008 40.42 3.71008 40.04 3.70008C39.63 3.71008 39.34 3.87008 39.16 4.17008C38.98 4.48008 38.9 4.81008 38.9 5.16008V7.21008H38.43V1.58008Z" fill="#092740"/>
<path d="M47.12 7.20988H46.55L45.51 3.89988H45.49L44.45 7.20988H43.88L42.65 3.37988H43.17L44.18 6.68988H44.2L45.27 3.37988H45.84L46.85 6.68988H46.86L47.92 3.37988H48.39L47.12 7.20988Z" fill="#092740"/>
<path d="M52.17 7.08979C51.81 7.22979 51.44 7.29979 51.06 7.29979C50.44 7.28978 49.99 7.09979 49.72 6.71979C49.45 6.34979 49.32 5.87978 49.32 5.28978C49.32 4.68978 49.48 4.20979 49.77 3.83979C50.06 3.47979 50.44 3.28979 50.93 3.27979C51.47 3.28979 51.86 3.47979 52.1 3.83979C52.34 4.19979 52.45 4.64979 52.45 5.17979V5.41979H49.83C49.83 5.83979 49.94 6.17978 50.15 6.44978C50.36 6.73978 50.67 6.87979 51.09 6.88979C51.28 6.88979 51.47 6.85978 51.68 6.78978C51.89 6.72978 52.05 6.66979 52.17 6.59979V7.08979ZM51.94 5.02979C51.94 4.67979 51.87 4.36979 51.72 4.10979C51.56 3.83979 51.31 3.70979 50.96 3.69979C50.62 3.70979 50.35 3.84979 50.15 4.11979C49.94 4.38979 49.84 4.68979 49.84 5.02979H51.94Z" fill="#092740"/>
<path d="M54.42 2.35998H53.95V1.72998H54.42V2.35998ZM53.94 3.37998H54.41V7.20998H53.94V3.37998Z" fill="#092740"/>
<path d="M55.84 6.80988L58.14 3.78988H55.93V3.37988H58.69V3.78988L56.39 6.80988H58.69V7.21988H55.84V6.80988Z" fill="#092740"/>
<path d="M62.68 7.08979C62.32 7.22979 61.95 7.29979 61.57 7.29979C60.94 7.28978 60.5 7.09979 60.23 6.71979C59.96 6.34979 59.83 5.87978 59.83 5.28978C59.83 4.68978 59.99 4.20979 60.28 3.83979C60.57 3.47979 60.95 3.28979 61.44 3.27979C61.98 3.28979 62.37 3.47979 62.61 3.83979C62.85 4.19979 62.96 4.64979 62.96 5.17979V5.41979H60.35C60.35 5.83979 60.46 6.17978 60.67 6.44978C60.88 6.73978 61.19 6.87979 61.61 6.88979C61.8 6.88979 61.99 6.85978 62.2 6.78978C62.41 6.72978 62.57 6.66979 62.69 6.59979V7.08979H62.68ZM62.45 5.02979C62.45 4.67979 62.38 4.36979 62.23 4.10979C62.07 3.83979 61.82 3.70979 61.47 3.69979C61.13 3.70979 60.85 3.84979 60.65 4.11979C60.45 4.38979 60.35 4.68979 60.35 5.02979H62.45Z" fill="#092740"/>
<path d="M64.45 4.24004C64.45 3.89004 64.44 3.60004 64.42 3.38004H64.89V4.12004H64.9C64.99 3.89004 65.12 3.70004 65.28 3.54004C65.44 3.38004 65.64 3.30004 65.88 3.29004C66 3.29004 66.11 3.31004 66.21 3.33004V3.83004C66.11 3.80004 65.99 3.78004 65.86 3.78004C65.67 3.79004 65.52 3.83004 65.4 3.92004C65.28 4.01004 65.18 4.13004 65.11 4.29004C65.04 4.44004 64.99 4.60004 64.96 4.78004C64.92 4.97004 64.91 5.15004 64.91 5.32004V7.21004H64.45V4.24004Z" fill="#092740"/>
<path d="M68.01 2.35998H67.54V1.72998H68.01V2.35998ZM67.53 3.37998H68V7.20998H67.53V3.37998Z" fill="#092740"/>
<path d="M70.49 6.89981C70.72 6.89981 70.93 6.8398 71.09 6.7098C71.25 6.5998 71.33 6.4298 71.34 6.2098C71.34 5.9798 71.24 5.8098 71.06 5.6798C70.88 5.5598 70.67 5.4398 70.42 5.3398C70.31 5.2898 70.19 5.2298 70.09 5.1698C69.99 5.1098 69.88 5.0398 69.79 4.9698C69.71 4.8898 69.64 4.7998 69.58 4.6898C69.52 4.5898 69.5 4.4698 69.5 4.3398C69.5 3.9598 69.64 3.6898 69.89 3.5298C70.14 3.3798 70.42 3.2998 70.75 3.2998C70.86 3.2998 71 3.3098 71.18 3.3298C71.36 3.3598 71.53 3.4098 71.7 3.4698L71.65 3.8798C71.38 3.7598 71.09 3.6998 70.8 3.6998C70.55 3.6998 70.36 3.7398 70.21 3.8398C70.13 3.8798 70.08 3.9498 70.04 4.0298C69.99 4.1098 69.97 4.2198 69.97 4.3398C69.97 4.4198 70 4.4998 70.05 4.5698C70.11 4.6298 70.18 4.6898 70.27 4.7498C70.36 4.7998 70.46 4.8498 70.58 4.9098C70.7 4.9598 70.81 5.0098 70.92 5.0798C71.17 5.1798 71.39 5.3298 71.57 5.4998C71.75 5.6798 71.85 5.91981 71.86 6.2298C71.86 6.42981 71.82 6.5998 71.74 6.7298C71.65 6.86981 71.55 6.97981 71.42 7.06981C71.14 7.23981 70.84 7.31981 70.53 7.31981C70.16 7.31981 69.8 7.2598 69.46 7.1398L69.5 6.6698C69.78 6.8098 70.11 6.88981 70.49 6.89981Z" fill="#092740"/>
<path d="M75.78 3.88979C75.51 3.76979 75.24 3.69979 74.96 3.69979C74.5 3.69979 74.15 3.84979 73.9 4.13979C73.65 4.42979 73.52 4.81979 73.52 5.29979C73.52 5.74979 73.64 6.11979 73.9 6.41979C74.15 6.72978 74.48 6.89979 74.91 6.89979C75.21 6.89979 75.49 6.83979 75.77 6.72979L75.81 7.16979C75.5 7.25978 75.17 7.30979 74.83 7.29979C74.21 7.28978 73.76 7.08979 73.46 6.68979C73.15 6.29979 73 5.83978 73 5.28978C73 4.68978 73.18 4.19979 73.53 3.83979C73.87 3.47979 74.33 3.28979 74.9 3.27979C75.13 3.27979 75.33 3.29979 75.48 3.32979C75.56 3.33979 75.63 3.35979 75.69 3.36979C75.74 3.38979 75.79 3.40979 75.82 3.41979L75.78 3.88979Z" fill="#092740"/>
<path d="M77.21 1.58008H77.68V4.03008H77.7C77.8 3.82008 77.96 3.64008 78.17 3.50008C78.38 3.37008 78.62 3.30008 78.9 3.30008C79.41 3.30008 79.76 3.46008 79.94 3.75008C80.12 4.05008 80.21 4.44008 80.2 4.93008V7.22008H79.73V4.93008C79.73 4.76008 79.72 4.60008 79.7 4.45008C79.68 4.30008 79.64 4.18008 79.57 4.07008C79.45 3.83008 79.2 3.71008 78.82 3.70008C78.41 3.71008 78.12 3.87008 77.94 4.17008C77.76 4.48008 77.68 4.81008 77.68 5.16008V7.21008H77.21V1.58008Z" fill="#092740"/>
<path d="M84.53 7.08979C84.17 7.22979 83.8 7.29979 83.42 7.29979C82.8 7.28978 82.35 7.09979 82.08 6.71979C81.81 6.34979 81.68 5.87978 81.68 5.28978C81.68 4.68978 81.84 4.20979 82.13 3.83979C82.42 3.47979 82.8 3.28979 83.29 3.27979C83.83 3.28979 84.22 3.47979 84.46 3.83979C84.7 4.19979 84.81 4.64979 84.81 5.17979V5.41979H82.19C82.19 5.83979 82.3 6.17978 82.51 6.44978C82.72 6.73978 83.03 6.87979 83.45 6.88979C83.64 6.88979 83.83 6.85978 84.04 6.78978C84.25 6.72978 84.41 6.66979 84.53 6.59979V7.08979ZM84.3 5.02979C84.3 4.67979 84.23 4.36979 84.08 4.10979C83.92 3.83979 83.67 3.70979 83.32 3.69979C82.97 3.70979 82.7 3.84979 82.5 4.11979C82.29 4.38979 82.19 4.68979 82.19 5.02979H84.3Z" fill="#092740"/>
<path d="M88.8 1.97021H91.37V2.42021H89.32V4.29021H91.26V4.74021H89.32V6.76021H91.46V7.21021H88.8V1.97021Z" fill="#092740"/>
<path d="M93.56 2.35998H93.09V1.72998H93.56V2.35998ZM93.08 3.37998H93.55V7.20998H93.08V3.37998Z" fill="#092740"/>
<path d="M98.37 7.21008H97.9V6.60008H97.89C97.64 7.07008 97.24 7.30008 96.7 7.30008C96.17 7.29008 95.78 7.10008 95.52 6.72008C95.25 6.34008 95.12 5.87008 95.12 5.29008C95.12 4.69008 95.24 4.21008 95.49 3.85008C95.74 3.48008 96.14 3.29008 96.7 3.29008C96.89 3.29008 97.06 3.32008 97.2 3.37008C97.35 3.43008 97.47 3.49008 97.56 3.58008C97.76 3.76008 97.87 3.90008 97.9 4.02008H97.91V1.58008H98.38V7.21008H98.37ZM95.68 5.85008C95.72 6.04008 95.78 6.22008 95.86 6.38008C95.95 6.53008 96.07 6.65008 96.21 6.75008C96.35 6.85008 96.53 6.91008 96.76 6.91008C96.97 6.91008 97.15 6.86008 97.3 6.75008C97.44 6.65008 97.56 6.53008 97.65 6.37008C97.82 6.03008 97.9 5.68008 97.9 5.31008C97.9 5.13008 97.88 4.95008 97.85 4.75008C97.81 4.57008 97.75 4.40008 97.65 4.24008C97.56 4.08008 97.44 3.95008 97.3 3.85008C97.15 3.75008 96.97 3.71008 96.76 3.71008C96.53 3.71008 96.35 3.76008 96.21 3.85008C96.06 3.94008 95.95 4.07008 95.86 4.23008C95.78 4.38008 95.72 4.55008 95.68 4.74008C95.64 4.93008 95.63 5.12008 95.63 5.31008C95.63 5.48008 95.64 5.66008 95.68 5.85008Z" fill="#092740"/>
<path d="M103.12 6.89981C103.12 7.43981 102.99 7.89981 102.72 8.2698C102.45 8.6398 101.98 8.8298 101.32 8.8398C101.07 8.8398 100.84 8.8098 100.63 8.7598C100.42 8.7098 100.27 8.66981 100.16 8.6398L100.2 8.1698C100.51 8.3398 100.89 8.4298 101.33 8.43981C101.64 8.4298 101.88 8.37981 102.05 8.2698C102.23 8.16981 102.36 8.0298 102.45 7.8498C102.54 7.66981 102.6 7.45981 102.62 7.2298C102.64 6.9998 102.65 6.7398 102.65 6.4698H102.63C102.36 6.9798 101.97 7.2298 101.47 7.2198C100.87 7.1998 100.45 6.98981 100.21 6.56981C100.09 6.37981 100 6.1698 99.95 5.9498C99.89 5.7298 99.86 5.5098 99.86 5.2998C99.86 4.6998 99.98 4.2198 100.23 3.8598C100.48 3.4898 100.88 3.2998 101.44 3.2998C101.69 3.2998 101.91 3.3298 102.1 3.3798C102.28 3.4498 102.46 3.5998 102.63 3.8198H102.64V3.3798H103.11V6.89981H103.12ZM100.64 6.3298C100.81 6.6398 101.09 6.7998 101.49 6.8098C101.92 6.7998 102.22 6.6398 102.4 6.3098C102.57 5.9998 102.65 5.6598 102.65 5.2998C102.65 4.8198 102.57 4.4398 102.41 4.1498C102.24 3.8598 101.95 3.6998 101.52 3.6998C101.29 3.6998 101.11 3.7498 100.97 3.8398C100.82 3.9298 100.71 4.0598 100.62 4.2198C100.54 4.3698 100.48 4.5398 100.44 4.7298C100.4 4.9198 100.39 5.1098 100.39 5.2998C100.38 5.6898 100.46 6.0298 100.64 6.3298Z" fill="#092740"/>
<path d="M107.42 7.08979C107.06 7.22979 106.69 7.29979 106.31 7.29979C105.69 7.28978 105.24 7.09979 104.97 6.71979C104.7 6.34979 104.57 5.87978 104.57 5.28978C104.57 4.68978 104.73 4.20979 105.02 3.83979C105.31 3.47979 105.69 3.28979 106.18 3.27979C106.72 3.28979 107.11 3.47979 107.35 3.83979C107.59 4.19979 107.7 4.64979 107.7 5.17979V5.41979H105.08C105.08 5.83979 105.19 6.17978 105.4 6.44978C105.61 6.73978 105.92 6.87979 106.34 6.88979C106.53 6.88979 106.72 6.85978 106.93 6.78978C107.14 6.72978 107.3 6.66979 107.42 6.59979V7.08979ZM107.18 5.02979C107.18 4.67979 107.11 4.36979 106.96 4.10979C106.8 3.83979 106.55 3.70979 106.2 3.69979C105.85 3.70979 105.58 3.84979 105.38 4.11979C105.17 4.38979 105.07 4.68979 105.07 5.02979H107.18Z" fill="#092740"/>
<path d="M109.19 4.29004C109.19 3.99004 109.18 3.69004 109.16 3.39004H109.62V4.07004H109.64C109.68 3.98004 109.74 3.89004 109.8 3.80004C109.86 3.71004 109.94 3.63004 110.03 3.55004C110.13 3.47004 110.24 3.41004 110.38 3.36004C110.52 3.32004 110.69 3.29004 110.88 3.29004C111.35 3.29004 111.69 3.44004 111.89 3.71004C112.09 3.98004 112.18 4.33004 112.18 4.76004V7.21004H111.71V4.89004C111.71 4.52004 111.64 4.23004 111.51 4.02004C111.36 3.81004 111.13 3.71004 110.8 3.71004C110.38 3.72004 110.08 3.87004 109.91 4.16004C109.82 4.30004 109.76 4.44004 109.72 4.60004C109.68 4.77004 109.66 4.93004 109.66 5.10004V7.22004H109.19V4.29004Z" fill="#092740"/>
<path d="M114.09 3.90004C114.38 3.50004 114.83 3.30004 115.44 3.29004C116.06 3.30004 116.52 3.50004 116.81 3.90004C117.09 4.29004 117.23 4.75004 117.23 5.30004C117.23 5.84004 117.09 6.30004 116.81 6.69004C116.52 7.09004 116.06 7.30004 115.44 7.31004C114.83 7.30004 114.38 7.10004 114.09 6.69004C113.8 6.30004 113.65 5.84004 113.65 5.30004C113.65 4.75004 113.8 4.29004 114.09 3.90004ZM114.5 6.42004C114.71 6.73004 115.02 6.89004 115.44 6.89004C115.86 6.88004 116.17 6.73004 116.39 6.42004C116.6 6.13004 116.7 5.75004 116.7 5.29004C116.7 4.83004 116.6 4.45004 116.39 4.15004C116.17 3.85004 115.85 3.70004 115.44 3.69004C115.02 3.69004 114.71 3.85004 114.5 4.15004C114.28 4.46004 114.17 4.84004 114.17 5.29004C114.17 5.75004 114.28 6.13004 114.5 6.42004Z" fill="#092740"/>
<path d="M119.41 6.89981C119.64 6.89981 119.85 6.8398 120.01 6.7098C120.17 6.5998 120.25 6.4298 120.26 6.2098C120.26 5.9798 120.16 5.8098 119.98 5.6798C119.8 5.5598 119.59 5.4398 119.34 5.3398C119.23 5.2898 119.11 5.2298 119.01 5.1698C118.91 5.1098 118.8 5.0398 118.71 4.9698C118.63 4.8898 118.56 4.7998 118.5 4.6898C118.44 4.5898 118.42 4.4698 118.42 4.3398C118.42 3.9598 118.56 3.6898 118.81 3.5298C119.06 3.3798 119.34 3.2998 119.67 3.2998C119.78 3.2998 119.92 3.3098 120.1 3.3298C120.28 3.3598 120.45 3.4098 120.62 3.4698L120.58 3.8798C120.31 3.7598 120.02 3.6998 119.73 3.6998C119.48 3.6998 119.29 3.7398 119.14 3.8398C119.06 3.8798 119.01 3.9498 118.97 4.0298C118.92 4.1098 118.9 4.2198 118.9 4.3398C118.9 4.4198 118.93 4.4998 118.98 4.5698C119.04 4.6298 119.11 4.6898 119.2 4.7498C119.29 4.7998 119.39 4.8498 119.51 4.9098C119.63 4.9598 119.74 5.0098 119.85 5.0798C120.1 5.1798 120.32 5.3298 120.5 5.4998C120.68 5.6798 120.78 5.91981 120.79 6.2298C120.79 6.42981 120.75 6.5998 120.67 6.7298C120.58 6.86981 120.48 6.97981 120.35 7.06981C120.07 7.23981 119.77 7.31981 119.46 7.31981C119.09 7.31981 118.73 7.2598 118.39 7.1398L118.43 6.6698C118.7 6.8098 119.03 6.88981 119.41 6.89981Z" fill="#092740"/>
<path d="M122.91 6.89981C123.14 6.89981 123.35 6.8398 123.51 6.7098C123.67 6.5998 123.75 6.4298 123.76 6.2098C123.76 5.9798 123.66 5.8098 123.48 5.6798C123.3 5.5598 123.09 5.4398 122.84 5.3398C122.73 5.2898 122.61 5.2298 122.51 5.1698C122.41 5.1098 122.3 5.0398 122.21 4.9698C122.13 4.8898 122.06 4.7998 122 4.6898C121.94 4.5898 121.92 4.4698 121.92 4.3398C121.92 3.9598 122.06 3.6898 122.31 3.5298C122.56 3.3798 122.84 3.2998 123.17 3.2998C123.28 3.2998 123.42 3.3098 123.6 3.3298C123.78 3.3598 123.95 3.4098 124.12 3.4698L124.08 3.8798C123.81 3.7598 123.52 3.6998 123.23 3.6998C122.98 3.6998 122.79 3.7398 122.64 3.8398C122.56 3.8798 122.51 3.9498 122.47 4.0298C122.42 4.1098 122.4 4.2198 122.4 4.3398C122.4 4.4198 122.43 4.4998 122.48 4.5698C122.54 4.6298 122.61 4.6898 122.7 4.7498C122.79 4.7998 122.89 4.8498 123.01 4.9098C123.13 4.9598 123.24 5.0098 123.35 5.0798C123.6 5.1798 123.82 5.3298 124 5.4998C124.18 5.6798 124.28 5.91981 124.29 6.2298C124.29 6.42981 124.25 6.5998 124.17 6.7298C124.08 6.86981 123.98 6.97981 123.85 7.06981C123.57 7.23981 123.27 7.31981 122.96 7.31981C122.59 7.31981 122.23 7.2598 121.89 7.1398L121.93 6.6698C122.2 6.8098 122.53 6.88981 122.91 6.89981Z" fill="#092740"/>
<path d="M128.27 7.08979C127.91 7.22979 127.54 7.29979 127.16 7.29979C126.54 7.28978 126.09 7.09979 125.82 6.71979C125.55 6.34979 125.42 5.87978 125.42 5.28978C125.42 4.68978 125.58 4.20979 125.87 3.83979C126.16 3.47979 126.54 3.28979 127.03 3.27979C127.57 3.28979 127.96 3.47979 128.2 3.83979C128.44 4.19979 128.55 4.64979 128.55 5.17979V5.41979H125.93C125.93 5.83979 126.04 6.17978 126.25 6.44978C126.46 6.73978 126.77 6.87979 127.19 6.88979C127.38 6.88979 127.57 6.85978 127.78 6.78978C127.99 6.72978 128.15 6.66979 128.27 6.59979V7.08979ZM128.04 5.02979C128.04 4.67979 127.97 4.36979 127.82 4.10979C127.66 3.83979 127.41 3.70979 127.06 3.69979C126.71 3.70979 126.44 3.84979 126.24 4.11979C126.03 4.38979 125.93 4.68979 125.93 5.02979H128.04Z" fill="#092740"/>
<path d="M130.05 4.29004C130.05 3.99004 130.04 3.69004 130.02 3.39004H130.48V4.07004H130.5C130.54 3.98004 130.6 3.89004 130.66 3.80004C130.72 3.71004 130.8 3.63004 130.89 3.55004C130.99 3.47004 131.1 3.41004 131.24 3.36004C131.38 3.32004 131.55 3.29004 131.74 3.29004C132.21 3.29004 132.55 3.44004 132.75 3.71004C132.95 3.98004 133.04 4.33004 133.04 4.76004V7.21004H132.57V4.89004C132.57 4.52004 132.5 4.23004 132.37 4.02004C132.22 3.81004 131.99 3.71004 131.66 3.71004C131.24 3.72004 130.94 3.87004 130.77 4.16004C130.68 4.30004 130.62 4.44004 130.58 4.60004C130.54 4.77004 130.52 4.93004 130.52 5.10004V7.22004H130.05V4.29004Z" fill="#092740"/>
<path d="M135.51 6.89981C135.74 6.89981 135.95 6.8398 136.11 6.7098C136.27 6.5998 136.35 6.4298 136.36 6.2098C136.36 5.9798 136.26 5.8098 136.08 5.6798C135.9 5.5598 135.69 5.4398 135.44 5.3398C135.33 5.2898 135.21 5.2298 135.11 5.1698C135.01 5.1098 134.9 5.0398 134.81 4.9698C134.73 4.8898 134.66 4.7998 134.6 4.6898C134.54 4.5898 134.52 4.4698 134.52 4.3398C134.52 3.9598 134.66 3.6898 134.91 3.5298C135.16 3.3798 135.44 3.2998 135.77 3.2998C135.88 3.2998 136.02 3.3098 136.2 3.3298C136.38 3.3598 136.55 3.4098 136.72 3.4698L136.68 3.8798C136.41 3.7598 136.12 3.6998 135.83 3.6998C135.58 3.6998 135.39 3.7398 135.24 3.8398C135.16 3.8798 135.11 3.9498 135.07 4.0298C135.02 4.1098 135 4.2198 135 4.3398C135 4.4198 135.03 4.4998 135.08 4.5698C135.14 4.6298 135.21 4.6898 135.3 4.7498C135.39 4.7998 135.49 4.8498 135.61 4.9098C135.73 4.9598 135.84 5.0098 135.95 5.0798C136.2 5.1798 136.42 5.3298 136.6 5.4998C136.78 5.6798 136.88 5.91981 136.89 6.2298C136.89 6.42981 136.85 6.5998 136.77 6.7298C136.68 6.86981 136.58 6.97981 136.45 7.06981C136.17 7.23981 135.87 7.31981 135.56 7.31981C135.19 7.31981 134.83 7.2598 134.49 7.1398L134.53 6.6698C134.8 6.8098 135.13 6.88981 135.51 6.89981Z" fill="#092740"/>
<path d="M140.8 3.88979C140.53 3.76979 140.26 3.69979 139.98 3.69979C139.52 3.69979 139.17 3.84979 138.92 4.13979C138.67 4.42979 138.54 4.81979 138.54 5.29979C138.54 5.74979 138.66 6.11979 138.92 6.41979C139.17 6.72978 139.5 6.89979 139.93 6.89979C140.23 6.89979 140.51 6.83979 140.79 6.72979L140.83 7.16979C140.52 7.25978 140.19 7.30979 139.85 7.29979C139.23 7.28978 138.78 7.08979 138.48 6.68979C138.17 6.29979 138.02 5.83978 138.02 5.28978C138.02 4.68978 138.2 4.19979 138.55 3.83979C138.89 3.47979 139.35 3.28979 139.92 3.27979C140.15 3.27979 140.35 3.29979 140.5 3.32979C140.58 3.33979 140.65 3.35979 140.71 3.36979C140.76 3.38979 140.81 3.40979 140.84 3.41979L140.8 3.88979Z" fill="#092740"/>
<path d="M142.22 1.58008H142.69V4.03008H142.71C142.81 3.82008 142.97 3.64008 143.18 3.50008C143.39 3.37008 143.63 3.30008 143.91 3.30008C144.42 3.30008 144.77 3.46008 144.95 3.75008C145.13 4.05008 145.22 4.44008 145.21 4.93008V7.22008H144.74V4.93008C144.74 4.76008 144.73 4.60008 144.71 4.45008C144.69 4.30008 144.65 4.18008 144.58 4.07008C144.46 3.83008 144.21 3.71008 143.83 3.70008C143.42 3.71008 143.13 3.87008 142.95 4.17008C142.77 4.48008 142.69 4.81008 142.69 5.16008V7.21008H142.22V1.58008Z" fill="#092740"/>
<path d="M149.18 6.59996H149.17C149.06 6.82996 148.89 6.99996 148.67 7.11996C148.45 7.23996 148.21 7.29996 147.96 7.30996C147.7 7.30996 147.48 7.25996 147.31 7.17996C147.14 7.09996 147.01 7.00996 146.92 6.88996C146.76 6.63996 146.68 6.41996 146.69 6.21996C146.69 5.89996 146.77 5.64996 146.92 5.45996C147.07 5.26996 147.26 5.13996 147.5 5.05996C147.74 4.97996 147.99 4.91996 148.27 4.88996C148.54 4.86996 148.8 4.86996 149.05 4.86996H149.14V4.66996C149.16 4.00996 148.87 3.68996 148.27 3.68996C147.87 3.68996 147.5 3.78996 147.14 3.99996V3.55996C147.5 3.38996 147.87 3.30996 148.27 3.29996C149.18 3.28996 149.62 3.76996 149.61 4.72996V6.41996C149.61 6.70996 149.62 6.97996 149.65 7.21996H149.18V6.59996ZM149.13 5.27996H149C148.79 5.27996 148.59 5.27996 148.38 5.28996C148.17 5.30996 147.97 5.34996 147.8 5.41996C147.62 5.47996 147.48 5.56996 147.38 5.69996C147.26 5.81996 147.21 5.98996 147.21 6.19996C147.21 6.44996 147.29 6.61996 147.45 6.71996C147.6 6.82996 147.79 6.88996 148.01 6.88996C148.29 6.88996 148.5 6.82996 148.66 6.71996C148.81 6.61996 148.93 6.48996 149 6.33996C149.08 6.18996 149.12 6.02996 149.13 5.87996C149.14 5.71996 149.14 5.59996 149.14 5.49996V5.27996H149.13Z" fill="#092740"/>
<path d="M151.64 3.79H150.87V3.38H151.64V3.11C151.64 2.9 151.65 2.7 151.67 2.51C151.68 2.32 151.72 2.15 151.78 2C151.85 1.85 151.95 1.72 152.09 1.63C152.23 1.54 152.41 1.5 152.65 1.5C152.73 1.5 152.81 1.5 152.9 1.51C152.98 1.53 153.05 1.55 153.1 1.58L153.07 1.98C152.97 1.93 152.84 1.91 152.69 1.91C152.53 1.91 152.42 1.94 152.34 2.01C152.26 2.09 152.2 2.19 152.17 2.3C152.14 2.42 152.13 2.54 152.13 2.67C152.13 2.81 152.12 2.94 152.12 3.06V3.39H152.98V3.8H152.12V7.22H151.65V3.79H151.64Z" fill="#092740"/>
<path d="M156.05 3.79004H155.18V6.27004C155.18 6.44004 155.22 6.59004 155.3 6.71004C155.38 6.84004 155.51 6.90004 155.69 6.90004C155.86 6.90004 156 6.87004 156.12 6.81004L156.15 7.20004C156.1 7.22004 156.02 7.24004 155.92 7.27004C155.81 7.29004 155.7 7.31004 155.57 7.31004C155.36 7.31004 155.2 7.28004 155.08 7.21004C154.96 7.14004 154.88 7.05004 154.82 6.93004C154.77 6.81004 154.74 6.67004 154.72 6.52004C154.71 6.37004 154.7 6.21004 154.7 6.03004V3.79004H153.95V3.38004H154.7V2.46004L155.17 2.29004V3.38004H156.05V3.79004Z" fill="#092740"/>
<path d="M33.26 12.72C33.05 12.7 32.84 12.68 32.65 12.68C31.97 12.69 31.45 12.9 31.08 13.32C30.71 13.74 30.52 14.28 30.52 14.94C30.52 15.61 30.7 16.15 31.07 16.56C31.43 16.98 31.96 17.19 32.65 17.2C32.83 17.2 33.03 17.18 33.26 17.15C33.48 17.12 33.67 17.06 33.82 16.98L33.85 17.43C33.7 17.51 33.5 17.57 33.27 17.6C33.03 17.63 32.83 17.65 32.65 17.65C31.82 17.64 31.17 17.39 30.71 16.9C30.24 16.41 30 15.76 30 14.94C30 14.13 30.24 13.48 30.71 12.98C31.18 12.49 31.82 12.24 32.64 12.23C32.81 12.23 33.02 12.24 33.26 12.27C33.5 12.3 33.69 12.35 33.84 12.43L33.81 12.91C33.65 12.82 33.46 12.76 33.26 12.72Z" fill="#092740"/>
<path d="M35.72 14.2501C36.01 13.8501 36.46 13.6501 37.07 13.6401C37.69 13.6501 38.15 13.8501 38.44 14.2501C38.72 14.6401 38.86 15.1001 38.86 15.6501C38.86 16.1901 38.72 16.6501 38.44 17.0401C38.15 17.4401 37.69 17.6501 37.07 17.6601C36.46 17.6501 36.01 17.4501 35.72 17.0401C35.43 16.6501 35.28 16.1901 35.28 15.6501C35.28 15.1001 35.43 14.6401 35.72 14.2501ZM36.13 16.7701C36.34 17.0801 36.65 17.2401 37.07 17.2401C37.49 17.2301 37.8 17.0801 38.02 16.7701C38.23 16.4801 38.33 16.1001 38.33 15.6401C38.33 15.1801 38.23 14.8001 38.02 14.5001C37.8 14.2001 37.48 14.0501 37.07 14.0401C36.65 14.0401 36.34 14.2001 36.13 14.5001C35.91 14.8101 35.8 15.1901 35.8 15.6401C35.8 16.1001 35.91 16.4801 36.13 16.7701Z" fill="#092740"/>
<path d="M40.33 14.6401C40.33 14.3401 40.32 14.0401 40.3 13.7401H40.76V14.4201H40.78C40.82 14.3301 40.88 14.2401 40.94 14.1501C41 14.0601 41.08 13.9801 41.17 13.9001C41.27 13.8201 41.38 13.7601 41.52 13.7101C41.66 13.6701 41.83 13.6401 42.02 13.6401C42.49 13.6401 42.83 13.7901 43.03 14.0601C43.23 14.3301 43.32 14.6801 43.32 15.1101V17.5601H42.85V15.2301C42.85 14.8601 42.78 14.5701 42.65 14.3601C42.5 14.1501 42.27 14.0501 41.94 14.0501C41.52 14.0601 41.22 14.2101 41.05 14.5001C40.96 14.6401 40.9 14.7801 40.86 14.9401C40.82 15.1101 40.8 15.2701 40.8 15.4401V17.5601H40.33V14.6401Z" fill="#092740"/>
<path d="M45.41 14.1398H44.64V13.7298H45.41V13.4498C45.41 13.2398 45.42 13.0398 45.44 12.8498C45.45 12.6598 45.49 12.4898 45.55 12.3398C45.61 12.1898 45.72 12.0598 45.86 11.9698C46 11.8798 46.18 11.8398 46.42 11.8398C46.5 11.8398 46.58 11.8398 46.67 11.8498C46.75 11.8698 46.82 11.8898 46.86 11.9198L46.83 12.3198C46.73 12.2698 46.6 12.2498 46.45 12.2498C46.3 12.2498 46.18 12.2798 46.1 12.3498C46.02 12.4298 45.96 12.5298 45.93 12.6398C45.9 12.7598 45.88 12.8798 45.88 13.0098C45.88 13.1498 45.87 13.2798 45.87 13.3998V13.7298H46.73V14.1398H45.87V17.5598H45.4V14.1398H45.41Z" fill="#092740"/>
<path d="M50.74 17.44C50.38 17.58 50.01 17.65 49.63 17.65C49.01 17.64 48.56 17.45 48.29 17.07C48.02 16.7 47.89 16.23 47.89 15.64C47.89 15.04 48.05 14.56 48.34 14.19C48.63 13.83 49.01 13.64 49.5 13.63C50.04 13.64 50.43 13.83 50.67 14.19C50.91 14.55 51.02 15 51.02 15.53V15.77H48.4C48.4 16.19 48.51 16.53 48.72 16.8C48.93 17.09 49.24 17.23 49.66 17.24C49.85 17.24 50.04 17.21 50.25 17.14C50.46 17.08 50.62 17.02 50.74 16.95V17.44ZM50.51 15.38C50.51 15.03 50.44 14.72 50.29 14.46C50.13 14.19 49.88 14.06 49.53 14.05C49.18 14.06 48.91 14.2 48.71 14.47C48.5 14.74 48.4 15.04 48.4 15.38H50.51ZM49.74 12.23H50.33L49.38 13.31H49.05L49.74 12.23Z" fill="#092740"/>
<path d="M55.54 17.5599H55.07V16.9499H55.06C54.81 17.4199 54.41 17.6499 53.87 17.6499C53.34 17.6399 52.95 17.4499 52.69 17.0699C52.42 16.6899 52.29 16.2199 52.29 15.6399C52.29 15.0399 52.41 14.5599 52.66 14.1999C52.91 13.8299 53.31 13.6399 53.87 13.6399C54.06 13.6399 54.23 13.6699 54.37 13.7199C54.52 13.7799 54.64 13.8399 54.73 13.9299C54.93 14.1099 55.04 14.2499 55.07 14.3699H55.08V11.9199H55.55V17.5599H55.54ZM52.86 16.1999C52.9 16.3899 52.96 16.5699 53.04 16.7299C53.13 16.8799 53.25 16.9999 53.39 17.0999C53.53 17.1999 53.71 17.2599 53.94 17.2599C54.15 17.2599 54.33 17.2099 54.48 17.0999C54.62 16.9999 54.74 16.8799 54.83 16.7199C55 16.3799 55.08 16.0299 55.08 15.6599C55.08 15.4799 55.06 15.2999 55.03 15.0999C54.99 14.9199 54.93 14.7499 54.83 14.5899C54.74 14.4299 54.62 14.2999 54.48 14.1999C54.33 14.0999 54.15 14.0599 53.94 14.0599C53.71 14.0599 53.53 14.1099 53.39 14.1999C53.24 14.2899 53.13 14.4199 53.04 14.5799C52.96 14.7299 52.9 14.8999 52.86 15.0899C52.82 15.2799 52.81 15.4699 52.81 15.6599C52.8 15.8299 52.82 16.0099 52.86 16.1999Z" fill="#092740"/>
<path d="M59.84 17.44C59.48 17.58 59.11 17.65 58.73 17.65C58.11 17.64 57.66 17.45 57.39 17.07C57.12 16.7 56.99 16.23 56.99 15.64C56.99 15.04 57.15 14.56 57.44 14.19C57.73 13.83 58.11 13.64 58.6 13.63C59.14 13.64 59.53 13.83 59.77 14.19C60.01 14.55 60.12 15 60.12 15.53V15.77H57.5C57.5 16.19 57.61 16.53 57.82 16.8C58.03 17.09 58.34 17.23 58.76 17.24C58.95 17.24 59.14 17.21 59.35 17.14C59.56 17.08 59.72 17.02 59.84 16.95V17.44ZM59.6 15.38C59.6 15.03 59.53 14.72 59.38 14.46C59.22 14.19 58.97 14.06 58.62 14.05C58.27 14.06 58 14.2 57.8 14.47C57.59 14.74 57.49 15.04 57.49 15.38H59.6ZM58.84 12.23H59.43L58.48 13.31H58.13L58.84 12.23Z" fill="#092740"/>
<path d="M61.61 14.5901C61.61 14.2401 61.6 13.9501 61.58 13.7301H62.05V14.4701H62.06C62.15 14.2401 62.28 14.0501 62.44 13.8901C62.6 13.7301 62.8 13.6501 63.04 13.6401C63.16 13.6401 63.27 13.6601 63.37 13.6801V14.1801C63.27 14.1501 63.15 14.1301 63.02 14.1301C62.83 14.1401 62.68 14.1801 62.56 14.2701C62.44 14.3601 62.34 14.4801 62.27 14.6401C62.2 14.7901 62.15 14.9501 62.12 15.1301C62.08 15.3201 62.07 15.5001 62.07 15.6701V17.5601H61.6V14.5901H61.61Z" fill="#092740"/>
<path d="M66.89 16.95H66.87C66.76 17.18 66.59 17.35 66.37 17.47C66.15 17.59 65.91 17.65 65.66 17.66C65.39 17.66 65.18 17.61 65.01 17.53C64.84 17.45 64.71 17.36 64.62 17.24C64.46 16.99 64.38 16.77 64.39 16.57C64.39 16.25 64.47 16 64.62 15.81C64.77 15.62 64.96 15.49 65.2 15.41C65.44 15.33 65.69 15.27 65.97 15.24C66.24 15.22 66.5 15.22 66.75 15.22H66.84V15.02C66.85 14.36 66.56 14.04 65.97 14.04C65.57 14.04 65.2 14.14 64.84 14.35V13.89C65.19 13.72 65.57 13.64 65.97 13.63C66.88 13.62 67.32 14.1 67.31 15.06V16.75C67.3 17.04 67.32 17.31 67.35 17.55H66.88V16.95H66.89ZM66.84 15.63H66.7C66.49 15.63 66.29 15.63 66.08 15.64C65.86 15.66 65.67 15.7 65.49 15.77C65.31 15.83 65.18 15.92 65.07 16.05C64.95 16.17 64.9 16.34 64.9 16.55C64.9 16.8 64.98 16.97 65.14 17.07C65.29 17.18 65.47 17.24 65.7 17.24C65.97 17.24 66.19 17.18 66.35 17.07C66.5 16.97 66.62 16.84 66.69 16.69C66.76 16.54 66.81 16.38 66.82 16.23C66.83 16.07 66.84 15.95 66.84 15.85V15.63Z" fill="#092740"/>
<path d="M70.68 14.1401H69.81V16.6201C69.81 16.7901 69.85 16.9401 69.93 17.0601C70.01 17.1901 70.14 17.2501 70.32 17.2501C70.49 17.2501 70.64 17.2201 70.76 17.1601L70.78 17.5501C70.72 17.5701 70.65 17.5901 70.55 17.6201C70.45 17.6401 70.33 17.6601 70.2 17.6601C69.99 17.6601 69.83 17.6301 69.71 17.5601C69.59 17.4901 69.51 17.4001 69.45 17.2801C69.4 17.1601 69.37 17.0201 69.35 16.8701C69.33 16.7201 69.33 16.5601 69.33 16.3801V14.1401H68.58V13.7301H69.33V12.8101L69.8 12.6401V13.7301H70.67V14.1401H70.68Z" fill="#092740"/>
<path d="M72.58 12.7101H72.11V12.0801H72.58V12.7101ZM72.11 13.7301H72.58V17.5601H72.11V13.7301Z" fill="#092740"/>
<path d="M74.5 14.2501C74.79 13.8501 75.24 13.6501 75.85 13.6401C76.47 13.6501 76.93 13.8501 77.22 14.2501C77.5 14.6401 77.64 15.1001 77.64 15.6501C77.64 16.1901 77.5 16.6501 77.22 17.0401C76.93 17.4401 76.47 17.6501 75.85 17.6601C75.24 17.6501 74.79 17.4501 74.5 17.0401C74.21 16.6501 74.06 16.1901 74.06 15.6501C74.07 15.1001 74.21 14.6401 74.5 14.2501ZM74.92 16.7701C75.13 17.0801 75.44 17.2401 75.86 17.2401C76.28 17.2301 76.59 17.0801 76.81 16.7701C77.02 16.4801 77.12 16.1001 77.12 15.6401C77.12 15.1801 77.02 14.8001 76.81 14.5001C76.59 14.2001 76.27 14.0501 75.86 14.0401C75.44 14.0401 75.13 14.2001 74.92 14.5001C74.7 14.8101 74.59 15.1901 74.59 15.6401C74.59 16.1001 74.7 16.4801 74.92 16.7701Z" fill="#092740"/>
<path d="M79.12 14.6401C79.12 14.3401 79.11 14.0401 79.09 13.7401H79.55V14.4201H79.57C79.61 14.3301 79.67 14.2401 79.73 14.1501C79.79 14.0601 79.87 13.9801 79.96 13.9001C80.06 13.8201 80.17 13.7601 80.31 13.7101C80.45 13.6701 80.62 13.6401 80.81 13.6401C81.28 13.6401 81.62 13.7901 81.82 14.0601C82.02 14.3301 82.11 14.6801 82.11 15.1101V17.5601H81.64V15.2301C81.64 14.8601 81.57 14.5701 81.44 14.3601C81.29 14.1501 81.06 14.0501 80.73 14.0501C80.31 14.0601 80.01 14.2101 79.84 14.5001C79.75 14.6401 79.69 14.7801 79.65 14.9401C79.61 15.1101 79.59 15.2701 79.59 15.4401V17.5601H79.12V14.6401Z" fill="#092740"/>
<path d="M87.18 17.2499C87.41 17.2499 87.62 17.1899 87.78 17.0599C87.94 16.9499 88.02 16.7799 88.03 16.5599C88.03 16.3299 87.93 16.1599 87.75 16.0299C87.57 15.9099 87.36 15.7899 87.11 15.6899C87 15.6399 86.88 15.5799 86.78 15.5199C86.68 15.4599 86.57 15.3899 86.48 15.3199C86.4 15.2399 86.33 15.1499 86.27 15.0399C86.21 14.9399 86.19 14.8199 86.19 14.6899C86.19 14.3099 86.33 14.0399 86.58 13.8799C86.83 13.7299 87.11 13.6499 87.44 13.6499C87.55 13.6499 87.69 13.6599 87.87 13.6799C88.05 13.7099 88.22 13.7599 88.39 13.8199L88.35 14.2299C88.08 14.1099 87.79 14.0499 87.5 14.0499C87.25 14.0499 87.06 14.0899 86.91 14.1899C86.83 14.2299 86.78 14.2999 86.74 14.3799C86.69 14.4599 86.67 14.5699 86.67 14.6899C86.67 14.7699 86.7 14.8499 86.75 14.9199C86.81 14.9799 86.88 15.0399 86.97 15.0999C87.06 15.1499 87.16 15.1999 87.28 15.2599C87.4 15.3099 87.51 15.3599 87.62 15.4299C87.87 15.5299 88.09 15.6799 88.27 15.8499C88.45 16.0299 88.55 16.2699 88.56 16.5799C88.56 16.7799 88.52 16.9499 88.44 17.0799C88.35 17.2199 88.25 17.3299 88.12 17.4199C87.84 17.5899 87.54 17.6699 87.23 17.6699C86.86 17.6699 86.5 17.6099 86.16 17.4899L86.2 17.0199C86.47 17.1599 86.8 17.2399 87.18 17.2499Z" fill="#092740"/>
<path d="M92.96 16.66C92.96 16.95 92.96 17.25 92.99 17.56H92.53V16.88H92.52C92.48 16.96 92.44 17.05 92.38 17.13C92.32 17.22 92.24 17.31 92.15 17.39C92.06 17.46 91.94 17.52 91.8 17.57C91.66 17.63 91.49 17.65 91.29 17.65C90.82 17.65 90.49 17.5 90.28 17.23C90.07 16.96 89.97 16.61 89.98 16.18V13.73H90.45V16.06C90.45 16.43 90.52 16.71 90.67 16.92C90.81 17.14 91.04 17.25 91.36 17.25C91.57 17.25 91.76 17.2 91.91 17.11C92.06 17.03 92.17 16.91 92.25 16.78C92.34 16.64 92.4 16.49 92.44 16.33C92.47 16.17 92.49 16.01 92.49 15.85V13.73H92.96V16.66Z" fill="#092740"/>
<path d="M95.21 12.7101H94.74V12.0801H95.21V12.7101ZM94.73 13.7301H95.2V17.5601H94.73V13.7301Z" fill="#092740"/>
<path d="M97.69 17.2499C97.92 17.2499 98.13 17.1899 98.29 17.0599C98.45 16.9499 98.53 16.7799 98.54 16.5599C98.54 16.3299 98.44 16.1599 98.26 16.0299C98.08 15.9099 97.87 15.7899 97.62 15.6899C97.51 15.6399 97.39 15.5799 97.29 15.5199C97.19 15.4599 97.08 15.3899 96.99 15.3199C96.91 15.2399 96.84 15.1499 96.78 15.0399C96.72 14.9399 96.7 14.8199 96.7 14.6899C96.7 14.3099 96.84 14.0399 97.09 13.8799C97.34 13.7299 97.62 13.6499 97.95 13.6499C98.06 13.6499 98.2 13.6599 98.38 13.6799C98.56 13.7099 98.73 13.7599 98.9 13.8199L98.86 14.2299C98.59 14.1099 98.3 14.0499 98.01 14.0499C97.76 14.0499 97.57 14.0899 97.42 14.1899C97.34 14.2299 97.29 14.2999 97.25 14.3799C97.2 14.4599 97.18 14.5699 97.18 14.6899C97.18 14.7699 97.21 14.8499 97.26 14.9199C97.32 14.9799 97.39 15.0399 97.48 15.0999C97.57 15.1499 97.67 15.1999 97.79 15.2599C97.91 15.3099 98.02 15.3599 98.13 15.4299C98.38 15.5299 98.6 15.6799 98.78 15.8499C98.96 16.0299 99.06 16.2699 99.07 16.5799C99.07 16.7799 99.03 16.9499 98.95 17.0799C98.86 17.2199 98.76 17.3299 98.63 17.4199C98.35 17.5899 98.05 17.6699 97.74 17.6699C97.37 17.6699 97.01 17.6099 96.67 17.4899L96.71 17.0199C96.98 17.1599 97.31 17.2399 97.69 17.2499Z" fill="#092740"/>
<path d="M101.19 17.2499C101.42 17.2499 101.63 17.1899 101.79 17.0599C101.95 16.9499 102.03 16.7799 102.04 16.5599C102.04 16.3299 101.94 16.1599 101.76 16.0299C101.58 15.9099 101.37 15.7899 101.12 15.6899C101.01 15.6399 100.89 15.5799 100.79 15.5199C100.69 15.4599 100.58 15.3899 100.49 15.3199C100.41 15.2399 100.34 15.1499 100.28 15.0399C100.22 14.9399 100.2 14.8199 100.2 14.6899C100.2 14.3099 100.34 14.0399 100.59 13.8799C100.84 13.7299 101.12 13.6499 101.45 13.6499C101.56 13.6499 101.7 13.6599 101.88 13.6799C102.06 13.7099 102.23 13.7599 102.4 13.8199L102.36 14.2299C102.09 14.1099 101.8 14.0499 101.51 14.0499C101.26 14.0499 101.07 14.0899 100.92 14.1899C100.84 14.2299 100.79 14.2999 100.75 14.3799C100.7 14.4599 100.68 14.5699 100.68 14.6899C100.68 14.7699 100.71 14.8499 100.76 14.9199C100.82 14.9799 100.89 15.0399 100.98 15.0999C101.07 15.1499 101.17 15.1999 101.29 15.2599C101.41 15.3099 101.52 15.3599 101.63 15.4299C101.88 15.5299 102.1 15.6799 102.28 15.8499C102.46 16.0299 102.56 16.2699 102.57 16.5799C102.57 16.7799 102.53 16.9499 102.45 17.0799C102.36 17.2199 102.26 17.3299 102.13 17.4199C101.85 17.5899 101.55 17.6699 101.24 17.6699C100.87 17.6699 100.51 17.6099 100.17 17.4899L100.21 17.0199C100.49 17.1599 100.82 17.2399 101.19 17.2499Z" fill="#092740"/>
<path d="M106.56 17.4399C106.2 17.5799 105.83 17.6499 105.45 17.6499C104.83 17.6399 104.38 17.4499 104.11 17.0699C103.84 16.6999 103.71 16.2299 103.71 15.6399C103.71 15.0399 103.87 14.5599 104.16 14.1899C104.45 13.8299 104.83 13.6399 105.32 13.6299C105.86 13.6399 106.25 13.8299 106.49 14.1899C106.73 14.5499 106.84 14.9999 106.84 15.5299V15.7699H104.22C104.22 16.1899 104.33 16.5299 104.54 16.7999C104.75 17.0899 105.06 17.2299 105.48 17.2399C105.67 17.2399 105.86 17.2099 106.07 17.1399C106.28 17.0799 106.44 17.0199 106.56 16.9499V17.4399ZM106.33 15.3799C106.33 15.0299 106.26 14.7199 106.11 14.4599C105.95 14.1899 105.7 14.0599 105.35 14.0499C105 14.0599 104.73 14.1999 104.53 14.4699C104.32 14.7399 104.22 15.0399 104.22 15.3799H106.33Z" fill="#092740"/>
<path d="M33.26 23.0701C33.05 23.0501 32.84 23.0301 32.65 23.0301C31.97 23.0401 31.45 23.2501 31.08 23.6701C30.71 24.0901 30.52 24.6301 30.52 25.2901C30.52 25.9601 30.7 26.5001 31.07 26.9101C31.43 27.3301 31.96 27.5501 32.65 27.5501C32.83 27.5501 33.03 27.5301 33.26 27.5001C33.48 27.4701 33.67 27.4101 33.82 27.3301L33.85 27.7801C33.7 27.8601 33.5 27.9201 33.27 27.9501C33.03 27.9801 32.83 28.0001 32.65 28.0001C31.82 27.9901 31.17 27.7401 30.71 27.2501C30.24 26.7601 30 26.1101 30 25.2901C30 24.4801 30.24 23.8301 30.71 23.3301C31.18 22.8401 31.82 22.5901 32.64 22.5801C32.81 22.5801 33.02 22.5901 33.26 22.6201C33.5 22.6501 33.69 22.7001 33.84 22.7801L33.81 23.2601C33.65 23.1701 33.46 23.1101 33.26 23.0701Z" fill="#092740"/>
<path d="M35.72 24.6002C36.01 24.2002 36.46 24.0002 37.07 23.9902C37.69 24.0002 38.15 24.2002 38.44 24.6002C38.72 24.9902 38.86 25.4502 38.86 26.0002C38.86 26.5402 38.72 27.0002 38.44 27.3902C38.15 27.7902 37.69 28.0002 37.07 28.0102C36.46 28.0002 36.01 27.8002 35.72 27.3902C35.43 27.0002 35.28 26.5402 35.28 26.0002C35.28 25.4502 35.43 24.9902 35.72 24.6002ZM36.13 27.1202C36.34 27.4302 36.65 27.5902 37.07 27.5902C37.49 27.5802 37.8 27.4302 38.02 27.1202C38.23 26.8302 38.33 26.4502 38.33 25.9902C38.33 25.5302 38.23 25.1502 38.02 24.8502C37.8 24.5502 37.48 24.4002 37.07 24.3902C36.65 24.3902 36.34 24.5502 36.13 24.8502C35.91 25.1602 35.8 25.5402 35.8 25.9902C35.8 26.4502 35.91 26.8302 36.13 27.1202Z" fill="#092740"/>
<path d="M40.33 24.9902C40.33 24.6902 40.32 24.3902 40.3 24.0902H40.76V24.7702H40.78C40.82 24.6802 40.88 24.5902 40.94 24.5002C41 24.4102 41.08 24.3302 41.17 24.2502C41.27 24.1702 41.38 24.1102 41.52 24.0602C41.66 24.0202 41.83 23.9902 42.02 23.9902C42.49 23.9902 42.83 24.1402 43.03 24.4102C43.23 24.6802 43.32 25.0302 43.32 25.4602V27.9102H42.85V25.5802C42.85 25.2102 42.78 24.9202 42.65 24.7102C42.5 24.5002 42.27 24.4002 41.94 24.4002C41.52 24.4102 41.22 24.5602 41.05 24.8502C40.96 24.9902 40.9 25.1302 40.86 25.2902C40.82 25.4602 40.8 25.6202 40.8 25.7902V27.9102H40.33V24.9902Z" fill="#092740"/>
<path d="M45.41 24.4899H44.64V24.0799H45.41V23.7999C45.41 23.5899 45.42 23.3899 45.44 23.1999C45.45 23.0099 45.49 22.8399 45.55 22.6899C45.61 22.5399 45.72 22.4099 45.86 22.3199C46 22.2299 46.18 22.1899 46.42 22.1899C46.5 22.1899 46.58 22.1899 46.67 22.1999C46.75 22.2199 46.82 22.2399 46.86 22.2699L46.83 22.6699C46.73 22.6199 46.6 22.5999 46.45 22.5999C46.3 22.5999 46.18 22.6299 46.1 22.6999C46.02 22.7799 45.96 22.8799 45.93 22.9899C45.9 23.1099 45.88 23.2299 45.88 23.3599C45.88 23.4999 45.87 23.6299 45.87 23.7499V24.0799H46.73V24.4899H45.87V27.9099H45.4V24.4899H45.41Z" fill="#092740"/>
<path d="M50.74 27.79C50.38 27.93 50.01 28 49.63 28C49.01 27.99 48.56 27.8 48.29 27.42C48.02 27.05 47.89 26.58 47.89 25.99C47.89 25.39 48.05 24.91 48.34 24.54C48.63 24.18 49.01 23.99 49.5 23.98C50.04 23.99 50.43 24.18 50.67 24.54C50.91 24.9 51.02 25.35 51.02 25.88V26.12H48.4C48.4 26.54 48.51 26.88 48.72 27.15C48.93 27.44 49.24 27.58 49.66 27.59C49.85 27.59 50.04 27.56 50.25 27.49C50.46 27.43 50.62 27.37 50.74 27.3V27.79ZM50.51 25.73C50.51 25.38 50.44 25.07 50.29 24.81C50.13 24.54 49.88 24.41 49.53 24.4C49.18 24.41 48.91 24.55 48.71 24.82C48.5 25.09 48.4 25.39 48.4 25.73H50.51Z" fill="#092740"/>
<path d="M55.54 27.91H55.07V27.3H55.06C54.81 27.77 54.41 28 53.87 28C53.34 27.99 52.95 27.8 52.69 27.42C52.42 27.04 52.29 26.57 52.29 25.99C52.29 25.39 52.41 24.91 52.66 24.55C52.91 24.18 53.31 23.99 53.87 23.99C54.06 23.99 54.23 24.02 54.37 24.07C54.52 24.13 54.64 24.19 54.73 24.28C54.93 24.46 55.04 24.6 55.07 24.72H55.08V22.27H55.55V27.91H55.54ZM52.86 26.55C52.9 26.74 52.96 26.92 53.04 27.08C53.13 27.23 53.25 27.35 53.39 27.45C53.53 27.55 53.71 27.61 53.94 27.61C54.15 27.61 54.33 27.56 54.48 27.45C54.62 27.35 54.74 27.23 54.83 27.07C55 26.73 55.08 26.38 55.08 26.01C55.08 25.83 55.06 25.65 55.03 25.45C54.99 25.27 54.93 25.1 54.83 24.94C54.74 24.78 54.62 24.65 54.48 24.55C54.33 24.45 54.15 24.41 53.94 24.41C53.71 24.41 53.53 24.46 53.39 24.55C53.24 24.64 53.13 24.77 53.04 24.93C52.96 25.08 52.9 25.25 52.86 25.44C52.82 25.63 52.81 25.82 52.81 26.01C52.8 26.18 52.82 26.36 52.86 26.55Z" fill="#092740"/>
<path d="M59.84 27.79C59.48 27.93 59.11 28 58.73 28C58.11 27.99 57.66 27.8 57.39 27.42C57.12 27.05 56.99 26.58 56.99 25.99C56.99 25.39 57.15 24.91 57.44 24.54C57.73 24.18 58.11 23.99 58.6 23.98C59.14 23.99 59.53 24.18 59.77 24.54C60.01 24.9 60.12 25.35 60.12 25.88V26.12H57.5C57.5 26.54 57.61 26.88 57.82 27.15C58.03 27.44 58.34 27.58 58.76 27.59C58.95 27.59 59.14 27.56 59.35 27.49C59.56 27.43 59.72 27.37 59.84 27.3V27.79ZM59.6 25.73C59.6 25.38 59.53 25.07 59.38 24.81C59.22 24.54 58.97 24.41 58.62 24.4C58.27 24.41 58 24.55 57.8 24.82C57.59 25.09 57.49 25.39 57.49 25.73H59.6Z" fill="#092740"/>
<path d="M61.61 24.9402C61.61 24.5902 61.6 24.3002 61.58 24.0802H62.05V24.8202H62.06C62.15 24.5902 62.28 24.4002 62.44 24.2402C62.6 24.0802 62.8 24.0002 63.04 23.9902C63.16 23.9902 63.27 24.0102 63.37 24.0302V24.5302C63.27 24.5002 63.15 24.4802 63.02 24.4802C62.83 24.4902 62.68 24.5302 62.56 24.6202C62.44 24.7102 62.34 24.8302 62.27 24.9902C62.2 25.1402 62.15 25.3002 62.12 25.4802C62.08 25.6702 62.07 25.8502 62.07 26.0202V27.9102H61.6V24.9402H61.61Z" fill="#092740"/>
<path d="M66.89 27.3001H66.87C66.76 27.5301 66.59 27.7001 66.37 27.8201C66.15 27.9401 65.91 28.0001 65.66 28.0101C65.39 28.0101 65.18 27.9601 65.01 27.8801C64.84 27.8001 64.71 27.7101 64.62 27.5901C64.46 27.3401 64.38 27.1201 64.39 26.9201C64.39 26.6001 64.47 26.3501 64.62 26.1601C64.77 25.9701 64.96 25.8401 65.2 25.7601C65.44 25.6801 65.69 25.6201 65.97 25.5901C66.24 25.5701 66.5 25.5701 66.75 25.5701H66.84V25.3701C66.85 24.7101 66.56 24.3901 65.97 24.3901C65.57 24.3901 65.2 24.4901 64.84 24.7001V24.2401C65.19 24.0701 65.57 23.9901 65.97 23.9801C66.88 23.9701 67.32 24.4501 67.31 25.4101V27.1001C67.3 27.3901 67.32 27.6601 67.35 27.9001H66.88V27.3001H66.89ZM66.84 25.9801H66.7C66.49 25.9801 66.29 25.9801 66.08 25.9901C65.86 26.0101 65.67 26.0501 65.49 26.1201C65.31 26.1801 65.18 26.2701 65.07 26.4001C64.95 26.5201 64.9 26.6901 64.9 26.9001C64.9 27.1501 64.98 27.3201 65.14 27.4201C65.29 27.5301 65.47 27.5901 65.7 27.5901C65.97 27.5901 66.19 27.5301 66.35 27.4201C66.5 27.3201 66.62 27.1901 66.69 27.0401C66.76 26.8901 66.81 26.7301 66.82 26.5801C66.83 26.4201 66.84 26.3001 66.84 26.2001V25.9801Z" fill="#092740"/>
<path d="M68.67 27.5101L70.97 24.4901H68.76V24.0801H71.52V24.4901L69.22 27.5101H71.52V27.9201H68.67V27.5101Z" fill="#092740"/>
<path d="M73.42 23.0602H72.95V22.4302H73.42V23.0602ZM72.94 24.0802H73.41V27.9102H72.94V24.0802Z" fill="#092740"/>
<path d="M75.34 24.6002C75.63 24.2002 76.08 24.0002 76.69 23.9902C77.31 24.0002 77.77 24.2002 78.06 24.6002C78.34 24.9902 78.48 25.4502 78.48 26.0002C78.48 26.5402 78.34 27.0002 78.06 27.3902C77.77 27.7902 77.31 28.0002 76.69 28.0102C76.08 28.0002 75.63 27.8002 75.34 27.3902C75.05 27.0002 74.9 26.5402 74.9 26.0002C74.9 25.4502 75.05 24.9902 75.34 24.6002ZM75.75 27.1202C75.96 27.4302 76.27 27.5902 76.69 27.5902C77.11 27.5802 77.42 27.4302 77.64 27.1202C77.85 26.8302 77.95 26.4502 77.95 25.9902C77.95 25.5302 77.85 25.1502 77.64 24.8502C77.42 24.5502 77.1 24.4002 76.69 24.3902C76.27 24.3902 75.96 24.5502 75.75 24.8502C75.53 25.1602 75.42 25.5402 75.42 25.9902C75.42 26.4502 75.53 26.8302 75.75 27.1202Z" fill="#092740"/>
<path d="M79.95 24.9902C79.95 24.6902 79.94 24.3902 79.92 24.0902H80.38V24.7702H80.4C80.44 24.6802 80.5 24.5902 80.56 24.5002C80.62 24.4102 80.7 24.3302 80.79 24.2502C80.89 24.1702 81 24.1102 81.14 24.0602C81.28 24.0202 81.45 23.9902 81.64 23.9902C82.11 23.9902 82.45 24.1402 82.65 24.4102C82.85 24.6802 82.94 25.0302 82.94 25.4602V27.9102H82.47V25.5802C82.47 25.2102 82.4 24.9202 82.27 24.7102C82.12 24.5002 81.89 24.4002 81.56 24.4002C81.14 24.4102 80.84 24.5602 80.67 24.8502C80.58 24.9902 80.52 25.1302 80.48 25.2902C80.44 25.4602 80.42 25.6202 80.42 25.7902V27.9102H79.95V24.9902Z" fill="#092740"/>
<path d="M87.28 27.79C86.92 27.93 86.55 28 86.17 28C85.55 27.99 85.1 27.8 84.83 27.42C84.56 27.05 84.43 26.58 84.43 25.99C84.43 25.39 84.59 24.91 84.88 24.54C85.17 24.18 85.55 23.99 86.04 23.98C86.58 23.99 86.97 24.18 87.21 24.54C87.45 24.9 87.56 25.35 87.56 25.88V26.12H84.94C84.94 26.54 85.05 26.88 85.26 27.15C85.47 27.44 85.78 27.58 86.2 27.59C86.39 27.59 86.58 27.56 86.79 27.49C87 27.43 87.16 27.37 87.28 27.3V27.79ZM87.04 25.73C87.04 25.38 86.97 25.07 86.82 24.81C86.66 24.54 86.41 24.41 86.06 24.4C85.71 24.41 85.44 24.55 85.24 24.82C85.03 25.09 84.93 25.39 84.93 25.73H87.04Z" fill="#092740"/>
<path d="M92.71 27.5501C93.05 27.5501 93.33 27.4601 93.55 27.2901C93.77 27.1201 93.88 26.8501 93.89 26.4801C93.89 26.2201 93.76 26.0101 93.51 25.8301C93.4 25.7401 93.27 25.6601 93.13 25.5801C92.99 25.5001 92.84 25.4201 92.69 25.3401C92.54 25.2601 92.4 25.1601 92.25 25.0701C92.1 24.9801 91.97 24.8801 91.86 24.7701C91.61 24.5601 91.49 24.2801 91.48 23.9501C91.48 23.5201 91.65 23.1901 91.97 22.9401C92.28 22.7001 92.67 22.5801 93.14 22.5801C93.27 22.5801 93.43 22.5901 93.62 22.6101C93.81 22.6401 93.99 22.6901 94.17 22.7501L94.09 23.2201C93.83 23.0901 93.52 23.0201 93.14 23.0201C93.01 23.0201 92.87 23.0301 92.74 23.0601C92.61 23.0901 92.49 23.1401 92.37 23.2201C92.27 23.2801 92.18 23.3701 92.11 23.4901C92.04 23.6101 92.01 23.7601 92.01 23.9301C92.01 24.0501 92.04 24.1701 92.11 24.2801C92.18 24.3801 92.27 24.4801 92.38 24.5601C92.5 24.6401 92.63 24.7301 92.77 24.8001C92.91 24.8801 93.06 24.9601 93.21 25.0501C93.52 25.2001 93.8 25.3901 94.04 25.6201C94.16 25.7301 94.25 25.8601 94.32 26.0101C94.38 26.1601 94.42 26.3301 94.42 26.5301C94.41 27.0501 94.23 27.4301 93.87 27.6601C93.52 27.8901 93.13 28.0101 92.7 28.0101C92.19 28.0001 91.79 27.9301 91.51 27.7801L91.56 27.2501C91.85 27.4501 92.23 27.5501 92.71 27.5501Z" fill="#092740"/>
<path d="M97.31 27.9101H96.75L95.45 24.0801H95.97L97.03 27.3901H97.05L98.16 24.0801H98.66L97.31 27.9101Z" fill="#092740"/>
<path d="M100.37 23.0602H99.9V22.4302H100.37V23.0602ZM99.9 24.0802H100.37V27.9102H99.9V24.0802Z" fill="#092740"/>
<path d="M101.79 27.5101L104.09 24.4901H101.88V24.0801H104.64V24.4901L102.34 27.5101H104.64V27.9201H101.79V27.5101Z" fill="#092740"/>
<path d="M105.71 27.5101L108.01 24.4901H105.8V24.0801H108.56V24.4901L106.26 27.5101H108.56V27.9201H105.71V27.5101Z" fill="#092740"/>
<path d="M112.55 27.79C112.19 27.93 111.82 28 111.44 28C110.82 27.99 110.37 27.8 110.1 27.42C109.83 27.05 109.7 26.58 109.7 25.99C109.7 25.39 109.86 24.91 110.15 24.54C110.44 24.18 110.82 23.99 111.31 23.98C111.85 23.99 112.24 24.18 112.48 24.54C112.72 24.9 112.83 25.35 112.83 25.88V26.12H110.21C110.21 26.54 110.32 26.88 110.53 27.15C110.74 27.44 111.05 27.58 111.47 27.59C111.66 27.59 111.85 27.56 112.06 27.49C112.27 27.43 112.43 27.37 112.55 27.3V27.79ZM112.31 25.73C112.31 25.38 112.24 25.07 112.09 24.81C111.93 24.54 111.68 24.41 111.33 24.4C110.98 24.41 110.71 24.55 110.51 24.82C110.3 25.09 110.2 25.39 110.2 25.73H112.31Z" fill="#092740"/>
<path d="M114.32 24.9402C114.32 24.5902 114.31 24.3002 114.29 24.0802H114.76V24.8202H114.77C114.86 24.5902 114.99 24.4002 115.15 24.2402C115.31 24.0802 115.51 24.0002 115.75 23.9902C115.87 23.9902 115.98 24.0102 116.08 24.0302V24.5302C115.98 24.5002 115.86 24.4802 115.73 24.4802C115.54 24.4902 115.39 24.5302 115.27 24.6202C115.15 24.7102 115.05 24.8302 114.98 24.9902C114.91 25.1402 114.86 25.3002 114.83 25.4802C114.79 25.6702 114.78 25.8502 114.78 26.0202V27.9102H114.31V24.9402H114.32Z" fill="#092740"/>
<path d="M119.6 27.3001H119.58C119.47 27.5301 119.3 27.7001 119.08 27.8201C118.86 27.9401 118.62 28.0001 118.37 28.0101C118.1 28.0101 117.89 27.9601 117.72 27.8801C117.55 27.8001 117.42 27.7101 117.33 27.5901C117.17 27.3401 117.09 27.1201 117.1 26.9201C117.1 26.6001 117.18 26.3501 117.33 26.1601C117.48 25.9701 117.67 25.8401 117.91 25.7601C118.15 25.6801 118.4 25.6201 118.68 25.5901C118.95 25.5701 119.21 25.5701 119.46 25.5701H119.55V25.3701C119.56 24.7101 119.27 24.3901 118.68 24.3901C118.28 24.3901 117.91 24.4901 117.55 24.7001V24.2401C117.9 24.0701 118.28 23.9901 118.68 23.9801C119.59 23.9701 120.03 24.4501 120.02 25.4101V27.1001C120.01 27.3901 120.03 27.6601 120.06 27.9001H119.59V27.3001H119.6ZM119.56 25.9801H119.42C119.21 25.9801 119.01 25.9801 118.8 25.9901C118.58 26.0101 118.39 26.0501 118.21 26.1201C118.03 26.1801 117.9 26.2701 117.79 26.4001C117.67 26.5201 117.62 26.6901 117.62 26.9001C117.62 27.1501 117.7 27.3201 117.86 27.4201C118.01 27.5301 118.19 27.5901 118.42 27.5901C118.69 27.5901 118.91 27.5301 119.07 27.4201C119.22 27.3201 119.34 27.1901 119.41 27.0401C119.48 26.8901 119.53 26.7301 119.54 26.5801C119.55 26.4201 119.56 26.3001 119.56 26.2001V25.9801Z" fill="#092740"/>
<path d="M33.26 33.4202C33.05 33.4002 32.84 33.3802 32.65 33.3802C31.97 33.3902 31.45 33.6002 31.08 34.0202C30.71 34.4402 30.52 34.9802 30.52 35.6402C30.52 36.3102 30.7 36.8502 31.07 37.2602C31.43 37.6802 31.96 37.8902 32.65 37.9002C32.83 37.9002 33.03 37.8802 33.26 37.8502C33.48 37.8202 33.67 37.7602 33.82 37.6802L33.85 38.1302C33.7 38.2102 33.5 38.2702 33.27 38.3002C33.03 38.3302 32.83 38.3502 32.65 38.3502C31.82 38.3402 31.17 38.0902 30.71 37.6002C30.24 37.1102 30 36.4602 30 35.6402C30 34.8302 30.24 34.1802 30.71 33.6802C31.18 33.1902 31.82 32.9402 32.64 32.9302C32.81 32.9302 33.02 32.9402 33.26 32.9702C33.5 33.0002 33.69 33.0502 33.84 33.1302L33.81 33.6102C33.65 33.5202 33.46 33.4602 33.26 33.4202Z" fill="#092740"/>
<path d="M35.72 34.9498C36.01 34.5498 36.46 34.3498 37.07 34.3398C37.69 34.3498 38.15 34.5498 38.44 34.9498C38.72 35.3398 38.86 35.7998 38.86 36.3498C38.86 36.8898 38.72 37.3498 38.44 37.7398C38.15 38.1398 37.69 38.3498 37.07 38.3598C36.46 38.3498 36.01 38.1498 35.72 37.7398C35.43 37.3498 35.28 36.8898 35.28 36.3498C35.28 35.7998 35.43 35.3398 35.72 34.9498ZM36.13 37.4698C36.34 37.7798 36.65 37.9398 37.07 37.9398C37.49 37.9298 37.8 37.7798 38.02 37.4698C38.23 37.1798 38.33 36.7998 38.33 36.3398C38.33 35.8798 38.23 35.4998 38.02 35.1998C37.8 34.8998 37.48 34.7498 37.07 34.7398C36.65 34.7398 36.34 34.8998 36.13 35.1998C35.91 35.5098 35.8 35.8898 35.8 36.3398C35.8 36.7998 35.91 37.1798 36.13 37.4698Z" fill="#092740"/>
<path d="M40.33 35.3301C40.33 35.0301 40.32 34.7301 40.3 34.4301H40.76V35.1101H40.78C40.82 35.0201 40.88 34.9301 40.94 34.8401C41 34.7501 41.08 34.6701 41.17 34.5901C41.27 34.5101 41.38 34.4501 41.52 34.4001C41.66 34.3601 41.83 34.3301 42.02 34.3301C42.49 34.3301 42.83 34.4801 43.03 34.7501C43.23 35.0201 43.32 35.3701 43.32 35.8001V38.2501H42.85V35.9201C42.85 35.5501 42.78 35.2601 42.65 35.0501C42.5 34.8401 42.27 34.7401 41.94 34.7401C41.52 34.7501 41.22 34.9001 41.05 35.1901C40.96 35.3301 40.9 35.4701 40.86 35.6301C40.82 35.8001 40.8 35.9601 40.8 36.1301V38.2501H40.33V35.3301Z" fill="#092740"/>
<path d="M45.41 34.84H44.64V34.43H45.41V34.15C45.41 33.94 45.42 33.74 45.44 33.55C45.45 33.36 45.49 33.19 45.55 33.04C45.61 32.89 45.72 32.76 45.86 32.67C46 32.58 46.18 32.54 46.42 32.54C46.5 32.54 46.58 32.54 46.67 32.55C46.75 32.57 46.82 32.59 46.86 32.62L46.83 33.02C46.73 32.97 46.6 32.95 46.45 32.95C46.3 32.95 46.18 32.98 46.1 33.05C46.02 33.13 45.96 33.23 45.93 33.34C45.9 33.46 45.88 33.58 45.88 33.71C45.88 33.85 45.87 33.98 45.87 34.1V34.43H46.73V34.84H45.87V38.26H45.4V34.84H45.41Z" fill="#092740"/>
<path d="M50.74 38.1401C50.38 38.2801 50.01 38.3501 49.63 38.3501C49.01 38.3401 48.56 38.1501 48.29 37.7701C48.02 37.4001 47.89 36.9301 47.89 36.3401C47.89 35.7401 48.05 35.2601 48.34 34.8901C48.63 34.5301 49.01 34.3401 49.5 34.3301C50.04 34.3401 50.43 34.5301 50.67 34.8901C50.91 35.2501 51.02 35.7001 51.02 36.2301V36.4701H48.4C48.4 36.8901 48.51 37.2301 48.72 37.5001C48.93 37.7901 49.24 37.9301 49.66 37.9401C49.85 37.9401 50.04 37.9101 50.25 37.8401C50.46 37.7801 50.62 37.7201 50.74 37.6501V38.1401ZM50.51 36.0801C50.51 35.7301 50.44 35.4201 50.29 35.1601C50.13 34.8901 49.88 34.7601 49.53 34.7501C49.18 34.7601 48.91 34.9001 48.71 35.1701C48.5 35.4401 48.4 35.7401 48.4 36.0801H50.51Z" fill="#092740"/>
<path d="M55.54 38.2601H55.07V37.6501H55.06C54.81 38.1201 54.41 38.3501 53.87 38.3501C53.34 38.3401 52.95 38.1501 52.69 37.7701C52.42 37.3901 52.29 36.9201 52.29 36.3401C52.29 35.7401 52.41 35.2601 52.66 34.9001C52.91 34.5301 53.31 34.3401 53.87 34.3401C54.06 34.3401 54.23 34.3701 54.37 34.4201C54.52 34.4801 54.64 34.5401 54.73 34.6301C54.93 34.8101 55.04 34.9501 55.07 35.0701H55.08V32.6201H55.55V38.2601H55.54ZM52.86 36.9001C52.9 37.0901 52.96 37.2701 53.04 37.4301C53.13 37.5801 53.25 37.7001 53.39 37.8001C53.53 37.9001 53.71 37.9601 53.94 37.9601C54.15 37.9601 54.33 37.9101 54.48 37.8001C54.62 37.7001 54.74 37.5801 54.83 37.4201C55 37.0801 55.08 36.7301 55.08 36.3601C55.08 36.1801 55.06 36.0001 55.03 35.8001C54.99 35.6201 54.93 35.4501 54.83 35.2901C54.74 35.1301 54.62 35.0001 54.48 34.9001C54.33 34.8001 54.15 34.7601 53.94 34.7601C53.71 34.7601 53.53 34.8101 53.39 34.9001C53.24 34.9901 53.13 35.1201 53.04 35.2801C52.96 35.4301 52.9 35.6001 52.86 35.7901C52.82 35.9801 52.81 36.1701 52.81 36.3601C52.8 36.5301 52.82 36.7101 52.86 36.9001Z" fill="#092740"/>
<path d="M59.84 38.1401C59.48 38.2801 59.11 38.3501 58.73 38.3501C58.11 38.3401 57.66 38.1501 57.39 37.7701C57.12 37.4001 56.99 36.9301 56.99 36.3401C56.99 35.7401 57.15 35.2601 57.44 34.8901C57.73 34.5301 58.11 34.3401 58.6 34.3301C59.14 34.3401 59.53 34.5301 59.77 34.8901C60.01 35.2501 60.12 35.7001 60.12 36.2301V36.4701H57.5C57.5 36.8901 57.61 37.2301 57.82 37.5001C58.03 37.7901 58.34 37.9301 58.76 37.9401C58.95 37.9401 59.14 37.9101 59.35 37.8401C59.56 37.7801 59.72 37.7201 59.84 37.6501V38.1401ZM59.6 36.0801C59.6 35.7301 59.53 35.4201 59.38 35.1601C59.22 34.8901 58.97 34.7601 58.62 34.7501C58.27 34.7601 58 34.9001 57.8 35.1701C57.59 35.4401 57.49 35.7401 57.49 36.0801H59.6Z" fill="#092740"/>
<path d="M61.61 35.2898C61.61 34.9398 61.6 34.6498 61.58 34.4298H62.05V35.1698H62.06C62.15 34.9398 62.28 34.7498 62.44 34.5898C62.6 34.4298 62.8 34.3498 63.04 34.3398C63.16 34.3398 63.27 34.3598 63.37 34.3798V34.8798C63.27 34.8498 63.15 34.8298 63.02 34.8298C62.83 34.8398 62.68 34.8798 62.56 34.9698C62.44 35.0598 62.34 35.1798 62.27 35.3398C62.2 35.4898 62.15 35.6498 62.12 35.8298C62.08 36.0198 62.07 36.1998 62.07 36.3698V38.2598H61.6V35.2898H61.61Z" fill="#092740"/>
<path d="M66.89 37.6502H66.87C66.76 37.8802 66.59 38.0502 66.37 38.1702C66.15 38.2902 65.91 38.3502 65.66 38.3602C65.39 38.3602 65.18 38.3102 65.01 38.2302C64.84 38.1502 64.71 38.0602 64.62 37.9402C64.46 37.6902 64.38 37.4702 64.39 37.2702C64.39 36.9502 64.47 36.7002 64.62 36.5102C64.77 36.3202 64.96 36.1902 65.2 36.1102C65.44 36.0302 65.69 35.9702 65.97 35.9402C66.24 35.9202 66.5 35.9202 66.75 35.9202H66.84V35.7202C66.85 35.0602 66.56 34.7402 65.97 34.7402C65.57 34.7402 65.2 34.8402 64.84 35.0502V34.5902C65.19 34.4202 65.57 34.3402 65.97 34.3302C66.88 34.3202 67.32 34.8002 67.31 35.7602V37.4502C67.3 37.7402 67.32 38.0102 67.35 38.2502H66.88V37.6502H66.89ZM66.84 36.3302H66.7C66.49 36.3302 66.29 36.3302 66.08 36.3402C65.86 36.3602 65.67 36.4002 65.49 36.4702C65.31 36.5302 65.18 36.6202 65.07 36.7502C64.95 36.8702 64.9 37.0402 64.9 37.2502C64.9 37.5002 64.98 37.6702 65.14 37.7702C65.29 37.8802 65.47 37.9402 65.7 37.9402C65.97 37.9402 66.19 37.8802 66.35 37.7702C66.5 37.6702 66.62 37.5402 66.69 37.3902C66.76 37.2402 66.81 37.0802 66.82 36.9302C66.83 36.7702 66.84 36.6502 66.84 36.5502V36.3302Z" fill="#092740"/>
<path d="M68.67 37.8602L70.97 34.8402H68.76V34.4302H71.52V34.8402L69.22 37.8602H71.52V38.2702H68.67V37.8602Z" fill="#092740"/>
<path d="M73.42 33.4098H72.95V32.7798H73.42V33.4098ZM72.94 34.4298H73.41V38.2598H72.94V34.4298Z" fill="#092740"/>
<path d="M78.18 37.3602C78.18 37.6502 78.18 37.9502 78.21 38.2602H77.75V37.5802H77.74C77.7 37.6602 77.66 37.7502 77.6 37.8302C77.54 37.9202 77.46 38.0102 77.37 38.0902C77.28 38.1602 77.16 38.2202 77.02 38.2702C76.88 38.3302 76.71 38.3502 76.51 38.3502C76.04 38.3502 75.71 38.2002 75.5 37.9302C75.29 37.6602 75.19 37.3102 75.2 36.8802V34.4302H75.67V36.7602C75.67 37.1302 75.74 37.4102 75.89 37.6202C76.03 37.8402 76.26 37.9502 76.58 37.9502C76.79 37.9502 76.98 37.9002 77.13 37.8102C77.28 37.7302 77.39 37.6102 77.47 37.4802C77.56 37.3402 77.62 37.1902 77.66 37.0302C77.69 36.8702 77.71 36.7102 77.71 36.5502V34.4302H78.18V37.3602Z" fill="#092740"/>
<path d="M79.95 35.3301C79.95 35.0301 79.94 34.7301 79.92 34.4301H80.38V35.1101H80.4C80.44 35.0201 80.5 34.9301 80.56 34.8401C80.62 34.7501 80.7 34.6701 80.79 34.5901C80.89 34.5101 81 34.4501 81.14 34.4001C81.28 34.3601 81.45 34.3301 81.64 34.3301C82.11 34.3301 82.45 34.4801 82.65 34.7501C82.85 35.0201 82.94 35.3701 82.94 35.8001V38.2501H82.47V35.9201C82.47 35.5501 82.4 35.2601 82.27 35.0501C82.12 34.8401 81.89 34.7401 81.56 34.7401C81.14 34.7501 80.84 34.9001 80.67 35.1901C80.58 35.3301 80.52 35.4701 80.48 35.6301C80.44 35.8001 80.42 35.9601 80.42 36.1301V38.2501H79.95V35.3301Z" fill="#092740"/>
<path d="M88.01 37.9501C88.24 37.9501 88.45 37.8901 88.61 37.7601C88.77 37.6501 88.85 37.4801 88.86 37.2601C88.86 37.0301 88.76 36.8601 88.58 36.7301C88.4 36.6101 88.19 36.4901 87.94 36.3901C87.83 36.3401 87.71 36.2801 87.61 36.2201C87.51 36.1601 87.4 36.0901 87.31 36.0201C87.23 35.9401 87.16 35.8501 87.1 35.7401C87.04 35.6401 87.02 35.5201 87.02 35.3901C87.02 35.0101 87.16 34.7401 87.41 34.5801C87.66 34.4301 87.94 34.3501 88.27 34.3501C88.38 34.3501 88.52 34.3601 88.7 34.3801C88.88 34.4101 89.05 34.4601 89.22 34.5201L89.18 34.9301C88.91 34.8101 88.62 34.7501 88.33 34.7501C88.08 34.7501 87.89 34.7901 87.74 34.8901C87.66 34.9301 87.61 35.0001 87.57 35.0801C87.52 35.1601 87.5 35.2701 87.5 35.3901C87.5 35.4701 87.53 35.5501 87.58 35.6201C87.64 35.6801 87.71 35.7401 87.8 35.8001C87.89 35.8501 87.99 35.9001 88.11 35.9601C88.23 36.0101 88.34 36.0601 88.45 36.1301C88.7 36.2301 88.92 36.3801 89.1 36.5501C89.28 36.7301 89.38 36.9701 89.39 37.2801C89.39 37.4801 89.35 37.6501 89.27 37.7801C89.18 37.9201 89.08 38.0301 88.95 38.1201C88.67 38.2901 88.37 38.3701 88.06 38.3701C87.69 38.3701 87.33 38.3101 86.99 38.1901L87.03 37.7201C87.3 37.8601 87.64 37.9401 88.01 37.9501Z" fill="#092740"/>
<path d="M92.14 38.2602H91.58L90.28 34.4302H90.8L91.86 37.7402H91.87L92.98 34.4302H93.48L92.14 38.2602Z" fill="#092740"/>
<path d="M95.2 33.4098H94.73V32.7798H95.2V33.4098ZM94.73 34.4298H95.2V38.2598H94.73V34.4298Z" fill="#092740"/>
<path d="M96.62 37.8602L98.92 34.8402H96.71V34.4302H99.47V34.8402L97.17 37.8602H99.47V38.2702H96.62V37.8602Z" fill="#092740"/>
<path d="M100.89 35.2898C100.89 34.9398 100.88 34.6498 100.86 34.4298H101.33V35.1698H101.34C101.43 34.9398 101.56 34.7498 101.72 34.5898C101.88 34.4298 102.08 34.3498 102.32 34.3398C102.44 34.3398 102.55 34.3598 102.65 34.3798V34.8798C102.55 34.8498 102.43 34.8298 102.3 34.8298C102.11 34.8398 101.96 34.8798 101.84 34.9698C101.72 35.0598 101.62 35.1798 101.55 35.3398C101.48 35.4898 101.43 35.6498 101.4 35.8298C101.36 36.0198 101.35 36.1998 101.35 36.3698V38.2598H100.88V35.2898H100.89Z" fill="#092740"/>
<path d="M106.18 37.6502H106.16C106.05 37.8802 105.88 38.0502 105.66 38.1702C105.44 38.2902 105.2 38.3502 104.95 38.3602C104.68 38.3602 104.47 38.3102 104.3 38.2302C104.13 38.1502 104 38.0602 103.91 37.9402C103.75 37.6902 103.67 37.4702 103.68 37.2702C103.68 36.9502 103.76 36.7002 103.91 36.5102C104.06 36.3202 104.25 36.1902 104.49 36.1102C104.73 36.0302 104.98 35.9702 105.26 35.9402C105.53 35.9202 105.79 35.9202 106.04 35.9202H106.13V35.7202C106.14 35.0602 105.85 34.7402 105.26 34.7402C104.86 34.7402 104.49 34.8402 104.13 35.0502V34.5902C104.48 34.4202 104.86 34.3402 105.26 34.3302C106.17 34.3202 106.61 34.8002 106.6 35.7602V37.4502C106.59 37.7402 106.61 38.0102 106.64 38.2502H106.17V37.6502H106.18ZM106.13 36.3302H105.99C105.78 36.3302 105.58 36.3302 105.37 36.3402C105.15 36.3602 104.96 36.4002 104.78 36.4702C104.6 36.5302 104.47 36.6202 104.36 36.7502C104.24 36.8702 104.19 37.0402 104.19 37.2502C104.19 37.5002 104.27 37.6702 104.43 37.7702C104.58 37.8802 104.76 37.9402 104.99 37.9402C105.26 37.9402 105.48 37.8802 105.64 37.7702C105.79 37.6702 105.91 37.5402 105.98 37.3902C106.05 37.2402 106.1 37.0802 106.11 36.9302C106.12 36.7702 106.13 36.6502 106.13 36.5502V36.3302Z" fill="#092740"/>
<path d="M34.7388 64.3818C34.7388 65.1118 34.5618 65.6709 34.2078 66.0591C33.8562 66.4473 33.3557 66.6414 32.7063 66.6414C32.0569 66.6414 31.5576 66.4485 31.2085 66.0627C30.8521 65.6721 30.6738 65.1118 30.6738 64.3818V61.313H31.4246V64.2866C31.4246 65.4146 31.8518 65.9785 32.7063 65.9785C33.5632 65.9785 33.9917 65.4146 33.9917 64.2866V61.313H34.7388V64.3818ZM38.3324 60.8809L38.3031 61.4485C38.2201 61.4192 38.1078 61.4045 37.9662 61.4045C37.683 61.4045 37.4914 61.4949 37.3913 61.6755C37.318 61.8025 37.2814 62.0149 37.2814 62.3127V62.7266H38.2958V63.2942H37.2814V66.5498H36.5783V63.2942H35.6774V62.7266H36.5783V62.3713C36.5783 61.8611 36.6613 61.4888 36.8273 61.2544C37.0275 60.9736 37.3717 60.8333 37.86 60.8333C37.9845 60.8333 38.142 60.8491 38.3324 60.8809ZM41.3548 60.8809L41.3255 61.4485C41.2425 61.4192 41.1302 61.4045 40.9886 61.4045C40.7054 61.4045 40.5137 61.4949 40.4136 61.6755C40.3404 61.8025 40.3038 62.0149 40.3038 62.3127V62.7266H41.3182V63.2942H40.3038V66.5498H39.6006V63.2942H38.6998V62.7266H39.6006V62.3713C39.6006 61.8611 39.6836 61.4888 39.8497 61.2544C40.0499 60.9736 40.3941 60.8333 40.8824 60.8333C41.0069 60.8333 41.1644 60.8491 41.3548 60.8809ZM43.0039 61.8696H42.2092V61.075H43.0039V61.8696ZM42.9599 66.5498H42.2531V62.7266H42.9599V66.5498ZM47.1798 66.5498H44.0743V65.9346L46.2789 63.2942H44.1805V62.7266H47.0956V63.3381L44.891 65.9785H47.1798V66.5498ZM49.0413 61.8696H48.2466V61.075H49.0413V61.8696ZM48.9973 66.5498H48.2905V62.7266H48.9973V66.5498ZM54.7894 60.8809L54.7601 61.4485C54.6771 61.4192 54.5647 61.4045 54.4231 61.4045C54.1399 61.4045 53.9483 61.4949 53.8482 61.6755C53.775 61.8025 53.7383 62.0149 53.7383 62.3127V62.7266H54.7527V63.2942H53.7383V66.5498H53.0352V63.2942H52.1343V62.7266H53.0352V62.3713C53.0352 61.8611 53.1182 61.4888 53.2842 61.2544C53.4844 60.9736 53.8287 60.8333 54.3169 60.8333C54.4415 60.8333 54.5989 60.8491 54.7894 60.8809ZM58.8225 64.7957H56.0942C56.0942 65.1643 56.2211 65.4707 56.475 65.7148C56.7167 65.9517 57.0097 66.0701 57.354 66.0701C57.5664 66.0701 57.7995 66.0237 58.0534 65.9309C58.2707 65.8528 58.4306 65.771 58.5332 65.6855V66.3923C58.0742 66.5583 57.6713 66.6414 57.3247 66.6414C56.6655 66.6414 56.1662 66.4509 55.8269 66.0701C55.5046 65.7136 55.3435 65.2131 55.3435 64.5686C55.3435 63.9998 55.5083 63.5359 55.8378 63.177C56.1674 62.8157 56.6008 62.635 57.1379 62.635C58.2609 62.635 58.8225 63.3552 58.8225 64.7957ZM58.0754 64.2683C58.0754 63.9656 57.9924 63.7153 57.8264 63.5176C57.6506 63.3101 57.4162 63.2063 57.1232 63.2063C56.8059 63.2063 56.5544 63.321 56.3688 63.5505C56.2175 63.741 56.1259 63.9802 56.0942 64.2683H58.0754ZM63.2547 66.5498H62.5809V66.0115H62.5663C62.2904 66.4314 61.8558 66.6414 61.2625 66.6414C60.7206 66.6414 60.3019 66.4265 60.0064 65.9968C59.7477 65.6208 59.6183 65.1448 59.6183 64.5686C59.6183 64.0217 59.755 63.5713 60.0284 63.2173C60.3263 62.8291 60.7401 62.635 61.2699 62.635C61.8607 62.635 62.2831 62.8401 62.537 63.2502H62.5516V60.9248H63.2547V66.5498ZM62.5516 64.6455C62.5516 64.2549 62.4588 63.9253 62.2733 63.6567C62.0633 63.3564 61.7789 63.2063 61.42 63.2063C61.0636 63.2063 60.7926 63.3552 60.607 63.6531C60.4483 63.907 60.369 64.2305 60.369 64.6235C60.369 64.98 60.4508 65.2961 60.6144 65.572C60.8097 65.9041 61.0807 66.0701 61.4273 66.0701C61.7936 66.0701 62.0804 65.9126 62.2879 65.5977C62.4637 65.3291 62.5516 65.0117 62.5516 64.6455ZM67.7822 64.7957H65.054C65.054 65.1643 65.1809 65.4707 65.4348 65.7148C65.6765 65.9517 65.9695 66.0701 66.3137 66.0701C66.5261 66.0701 66.7593 66.0237 67.0132 65.9309C67.2305 65.8528 67.3904 65.771 67.4929 65.6855V66.3923C67.0339 66.5583 66.6311 66.6414 66.2844 66.6414C65.6252 66.6414 65.126 66.4509 64.7866 66.0701C64.4644 65.7136 64.3032 65.2131 64.3032 64.5686C64.3032 63.9998 64.468 63.5359 64.7976 63.177C65.1272 62.8157 65.5605 62.635 66.0977 62.635C67.2207 62.635 67.7822 63.3552 67.7822 64.7957ZM67.0352 64.2683C67.0352 63.9656 66.9521 63.7153 66.7861 63.5176C66.6104 63.3101 66.376 63.2063 66.083 63.2063C65.7656 63.2063 65.5142 63.321 65.3286 63.5505C65.1772 63.741 65.0857 63.9802 65.054 64.2683H67.0352ZM70.973 63.3162C70.8632 63.2722 70.7326 63.2502 70.5812 63.2502C70.2638 63.2502 70.0099 63.3906 69.8195 63.6714C69.6315 63.9521 69.5375 64.3318 69.5375 64.8103V66.5498H68.8344V62.7266H69.4936V63.3162H69.5082C69.6034 63.116 69.7426 62.9524 69.9257 62.8254C70.1112 62.6985 70.3053 62.635 70.508 62.635C70.6422 62.635 70.7973 62.6521 70.973 62.6863V63.3162ZM74.8633 66.5498H74.2042V66.0554H74.1895C73.9112 66.446 73.5157 66.6414 73.003 66.6414C72.5709 66.6414 72.2339 66.5461 71.9922 66.3557C71.731 66.1506 71.6004 65.8479 71.6004 65.4475C71.6004 65.0129 71.8055 64.6833 72.2156 64.4587C72.5428 64.2781 72.931 64.1877 73.3802 64.1877C73.6951 64.1877 73.9441 64.1926 74.1272 64.2024C74.1272 63.8606 74.0589 63.6116 73.9222 63.4553C73.7732 63.2893 73.5267 63.2063 73.1824 63.2063C72.7527 63.2063 72.3829 63.3357 72.0728 63.5945L72.0362 62.9939C72.439 62.7546 72.8589 62.635 73.2959 62.635C73.8331 62.635 74.2261 62.7681 74.4751 63.0342C74.7144 63.2905 74.834 63.6848 74.834 64.217V65.7991C74.834 66.1506 74.8438 66.4009 74.8633 66.5498ZM74.1272 65.063V64.7261C74.0784 64.7261 74.004 64.7236 73.9039 64.7188C73.8038 64.7139 73.7293 64.7114 73.6805 64.7114C72.7942 64.7114 72.3511 64.9568 72.3511 65.4475C72.3511 65.6355 72.4292 65.7893 72.5855 65.9089C72.7247 66.0164 72.8846 66.0701 73.0652 66.0701C73.4021 66.0701 73.6658 65.9736 73.8563 65.7808C74.0369 65.6001 74.1272 65.3608 74.1272 65.063ZM76.9262 66.5498H76.2194V60.9248H76.9262V66.5498ZM83.8865 66.5498H83.2126V66.0115H83.198C82.9221 66.4314 82.4875 66.6414 81.8943 66.6414C81.3523 66.6414 80.9336 66.4265 80.6382 65.9968C80.3794 65.6208 80.25 65.1448 80.25 64.5686C80.25 64.0217 80.3867 63.5713 80.6602 63.2173C80.958 62.8291 81.3718 62.635 81.9016 62.635C82.4924 62.635 82.9148 62.8401 83.1687 63.2502H83.1833V60.9248H83.8865V66.5498ZM83.1833 64.6455C83.1833 64.2549 83.0906 63.9253 82.905 63.6567C82.6951 63.3564 82.4106 63.2063 82.0518 63.2063C81.6953 63.2063 81.4243 63.3552 81.2388 63.6531C81.0801 63.907 81.0007 64.2305 81.0007 64.6235C81.0007 64.98 81.0825 65.2961 81.2461 65.572C81.4414 65.9041 81.7124 66.0701 82.0591 66.0701C82.4253 66.0701 82.7122 65.9126 82.9197 65.5977C83.0955 65.3291 83.1833 65.0117 83.1833 64.6455ZM88.1979 66.5498H87.5387V66.0554H87.5241C87.2458 66.446 86.8502 66.6414 86.3375 66.6414C85.9054 66.6414 85.5685 66.5461 85.3268 66.3557C85.0656 66.1506 84.935 65.8479 84.935 65.4475C84.935 65.0129 85.14 64.6833 85.5502 64.4587C85.8773 64.2781 86.2655 64.1877 86.7147 64.1877C87.0297 64.1877 87.2787 64.1926 87.4618 64.2024C87.4618 63.8606 87.3935 63.6116 87.2567 63.4553C87.1078 63.2893 86.8612 63.2063 86.517 63.2063C86.0873 63.2063 85.7174 63.3357 85.4074 63.5945L85.3708 62.9939C85.7736 62.7546 86.1935 62.635 86.6305 62.635C87.1676 62.635 87.5607 62.7681 87.8097 63.0342C88.049 63.2905 88.1686 63.6848 88.1686 64.217V65.7991C88.1686 66.1506 88.1784 66.4009 88.1979 66.5498ZM87.4618 65.063V64.7261C87.413 64.7261 87.3385 64.7236 87.2384 64.7188C87.1383 64.7139 87.0639 64.7114 87.015 64.7114C86.1288 64.7114 85.6857 64.9568 85.6857 65.4475C85.6857 65.6355 85.7638 65.7893 85.9201 65.9089C86.0592 66.0164 86.2191 66.0701 86.3998 66.0701C86.7367 66.0701 87.0004 65.9736 87.1908 65.7808C87.3715 65.6001 87.4618 65.3608 87.4618 65.063ZM95.0336 66.385C95.0336 67.6057 94.3769 68.2161 93.0634 68.2161C92.6606 68.2161 92.2028 68.1282 91.6901 67.9524L91.767 67.3005C92.2675 67.53 92.7265 67.6448 93.144 67.6448C93.5151 67.6448 93.8056 67.5276 94.0156 67.2932C94.2255 67.0588 94.3305 66.739 94.3305 66.3337V65.9565H94.3159C94.018 66.3521 93.5908 66.5498 93.0341 66.5498C92.5117 66.5498 92.1015 66.3594 91.8037 65.9785C91.5327 65.6343 91.3972 65.1973 91.3972 64.6675C91.3972 64.1279 91.5375 63.6665 91.8183 63.2832C92.1357 62.8511 92.5654 62.635 93.1074 62.635C93.7226 62.635 94.1425 62.8547 94.3671 63.2942H94.3818V62.7266H95.0336V66.385ZM94.3305 64.6821C94.3305 64.2598 94.2377 63.9143 94.0522 63.6458C93.8496 63.3528 93.57 63.2063 93.2136 63.2063C92.8815 63.2063 92.6142 63.3613 92.4116 63.6714C92.2358 63.9473 92.1479 64.2671 92.1479 64.6309C92.1479 65.0044 92.2431 65.3193 92.4335 65.5757C92.6337 65.8442 92.8937 65.9785 93.2136 65.9785C93.5383 65.9785 93.8068 65.8516 94.0192 65.5977C94.2268 65.3511 94.3305 65.0459 94.3305 64.6821ZM97.1771 61.8696H96.3824V61.075H97.1771V61.8696ZM97.1332 66.5498H96.4264V62.7266H97.1332V66.5498ZM101.906 66.5498H101.225V65.9419H101.21C101.108 66.1567 100.94 66.3276 100.708 66.4546C100.479 66.5791 100.229 66.6414 99.9578 66.6414C99.0032 66.6414 98.5259 66.0933 98.5259 64.9971V62.7266H99.229V64.7041C99.229 65.168 99.2876 65.5049 99.4048 65.7148C99.5293 65.9443 99.7417 66.0627 100.042 66.0701C100.428 66.0798 100.721 65.9358 100.921 65.6379C101.109 65.3645 101.203 64.9836 101.203 64.4954V62.7266H101.906V66.5498ZM105.273 65.4475C105.273 65.8333 105.136 66.1335 104.862 66.3484C104.616 66.5437 104.307 66.6414 103.936 66.6414C103.499 66.6414 103.15 66.5706 102.889 66.429L102.925 65.7991C103.204 65.9797 103.496 66.0701 103.804 66.0701C103.995 66.0701 104.154 66.0298 104.284 65.9492C104.443 65.854 104.522 65.7112 104.522 65.5208C104.522 65.3352 104.379 65.1643 104.093 65.0081C103.827 64.864 103.561 64.72 103.295 64.5759C103.009 64.3708 102.867 64.1157 102.867 63.8105C102.867 63.4297 102.996 63.1343 103.255 62.9243C103.496 62.7314 103.816 62.635 104.214 62.635C104.463 62.635 104.756 62.6851 105.093 62.7852L105.035 63.4004C104.959 63.354 104.836 63.3088 104.665 63.2649C104.504 63.2258 104.379 63.2063 104.291 63.2063C104.098 63.2063 103.941 63.2441 103.819 63.3198C103.682 63.4028 103.614 63.52 103.614 63.6714C103.614 63.8789 103.758 64.0571 104.046 64.2061C104.312 64.3428 104.578 64.4795 104.844 64.6162C105.13 64.8213 105.273 65.0984 105.273 65.4475ZM108.324 66.5352C108.08 66.606 107.88 66.6414 107.724 66.6414C106.94 66.6414 106.548 66.2703 106.548 65.5281V63.2942H105.684V62.7266H106.548V61.8403L107.251 61.6133V62.7266H108.266V63.2942H107.251V65.3889C107.251 65.6013 107.31 65.7698 107.427 65.8943C107.537 66.0115 107.676 66.0701 107.845 66.0701C108.025 66.0701 108.185 66.0249 108.324 65.9346V66.5352ZM110.094 61.8696H109.3V61.075H110.094V61.8696ZM110.05 66.5498H109.343V62.7266H110.05V66.5498ZM114.45 66.5498H113.79V66.0554H113.776C113.497 66.446 113.102 66.6414 112.589 66.6414C112.157 66.6414 111.82 66.5461 111.578 66.3557C111.317 66.1506 111.187 65.8479 111.187 65.4475C111.187 65.0129 111.392 64.6833 111.802 64.4587C112.129 64.2781 112.517 64.1877 112.966 64.1877C113.281 64.1877 113.53 64.1926 113.713 64.2024C113.713 63.8606 113.645 63.6116 113.508 63.4553C113.359 63.2893 113.113 63.2063 112.769 63.2063C112.339 63.2063 111.969 63.3357 111.659 63.5945L111.622 62.9939C112.025 62.7546 112.445 62.635 112.882 62.635C113.419 62.635 113.812 62.7681 114.061 63.0342C114.301 63.2905 114.42 63.6848 114.42 64.217V65.7991C114.42 66.1506 114.43 66.4009 114.45 66.5498ZM113.713 65.063V64.7261C113.665 64.7261 113.59 64.7236 113.49 64.7188C113.39 64.7139 113.316 64.7114 113.267 64.7114C112.38 64.7114 111.937 64.9568 111.937 65.4475C111.937 65.6355 112.015 65.7893 112.172 65.9089C112.311 66.0164 112.471 66.0701 112.651 66.0701C112.988 66.0701 113.252 65.9736 113.442 65.7808C113.623 65.6001 113.713 65.3608 113.713 65.063ZM122.043 64.3818C122.043 65.1118 121.866 65.6709 121.512 66.0591C121.161 66.4473 120.66 66.6414 120.011 66.6414C119.361 66.6414 118.862 66.4485 118.513 66.0627C118.157 65.6721 117.978 65.1118 117.978 64.3818V61.313H118.729V64.2866C118.729 65.4146 119.156 65.9785 120.011 65.9785C120.868 65.9785 121.296 65.4146 121.296 64.2866V61.313H122.043V64.3818ZM126.23 61.9758H124.198V63.5066H126.139V64.1658H124.198V66.5498H123.447V61.313H126.23V61.9758ZM131.428 66.407C130.976 66.5632 130.444 66.6414 129.831 66.6414C128.999 66.6414 128.331 66.3936 127.828 65.8979C127.325 65.4023 127.074 64.7395 127.074 63.9094C127.074 63.1111 127.335 62.4617 127.857 61.9612C128.373 61.4705 129.033 61.2251 129.839 61.2251C130.356 61.2251 130.869 61.313 131.377 61.4888L131.318 62.2432C130.949 62.0039 130.468 61.8843 129.875 61.8843C129.279 61.8843 128.794 62.0796 128.418 62.4702C128.051 62.8535 127.868 63.3406 127.868 63.9314C127.868 64.5344 128.061 65.03 128.447 65.4182C128.821 65.7917 129.284 65.9785 129.839 65.9785C130.1 65.9785 130.381 65.9492 130.681 65.8906V64.3013H129.579V63.686H131.428V66.407Z" fill="#092740"/>
<path d="M31.1175 51.7648V56.0998H31.545C33.14 56.1348 33.9575 55.3998 33.9975 53.8948C33.9875 53.1048 33.7825 52.5473 33.3825 52.2223C32.9775 51.9123 32.475 51.7598 31.875 51.7648H31.1175ZM30.6 56.5498V51.3148H31.8975C32.8275 51.3248 33.5 51.5673 33.915 52.0423C34.32 52.5173 34.52 53.1448 34.515 53.9248C34.505 54.8598 34.2225 55.5323 33.6675 55.9423C33.1175 56.3473 32.4 56.5498 31.515 56.5498H30.6ZM38.2599 55.9498V56.4298C37.8999 56.5648 37.5299 56.6348 37.1499 56.6398C36.5249 56.6298 36.0774 56.4373 35.8074 56.0623C35.5374 55.6973 35.4049 55.2223 35.4099 54.6373C35.4149 54.0423 35.5649 53.5598 35.8599 53.1898C36.1449 52.8248 36.5324 52.6398 37.0224 52.6348C37.5574 52.6448 37.9474 52.8323 38.1924 53.1973C38.4274 53.5573 38.5449 54.0023 38.5449 54.5323V54.7723H35.9274C35.9274 55.1873 36.0349 55.5298 36.2499 55.7998C36.4599 56.0848 36.7724 56.2298 37.1874 56.2348C37.3724 56.2348 37.5674 56.2023 37.7724 56.1373C37.9774 56.0823 38.1399 56.0198 38.2599 55.9498ZM35.9274 54.3673H38.0274C38.0274 54.0173 37.9549 53.7123 37.8099 53.4523C37.6549 53.1873 37.4024 53.0498 37.0524 53.0398C36.7074 53.0498 36.4349 53.1898 36.2349 53.4598C36.0299 53.7298 35.9274 54.0323 35.9274 54.3673ZM39.4999 58.1248V52.7248H39.9724L39.9424 53.4223H39.9574C39.9874 53.3673 40.0324 53.2923 40.0924 53.1973C40.1474 53.1123 40.2224 53.0273 40.3174 52.9423C40.4124 52.8573 40.5299 52.7823 40.6699 52.7173C40.8099 52.6623 40.9799 52.6348 41.1799 52.6348C41.7399 52.6398 42.1449 52.8273 42.3949 53.1973C42.6349 53.5623 42.7549 54.0423 42.7549 54.6373C42.7549 55.2123 42.6249 55.6873 42.3649 56.0623C42.0999 56.4373 41.7049 56.6298 41.1799 56.6398C40.5999 56.6398 40.2024 56.3923 39.9874 55.8973H39.9724V58.1248H39.4999ZM42.2374 54.6373C42.2374 54.4473 42.2249 54.2573 42.1999 54.0673C42.1649 53.8773 42.1024 53.7073 42.0124 53.5573C41.9324 53.3973 41.8174 53.2723 41.6674 53.1823C41.5174 53.0873 41.3299 53.0398 41.1049 53.0398C40.8949 53.0398 40.7199 53.0873 40.5799 53.1823C40.4349 53.2823 40.3174 53.4123 40.2274 53.5723C40.1374 53.7323 40.0749 53.9023 40.0399 54.0823C39.9949 54.2723 39.9724 54.4573 39.9724 54.6373C39.9674 55.0023 40.0524 55.3548 40.2274 55.6948C40.3174 55.8548 40.4349 55.9823 40.5799 56.0773C40.7199 56.1823 40.8949 56.2348 41.1049 56.2348C41.3299 56.2348 41.5174 56.1823 41.6674 56.0773C41.8174 55.9823 41.9324 55.8598 42.0124 55.7098C42.1024 55.5498 42.1649 55.3748 42.1999 55.1848C42.2249 54.9998 42.2374 54.8173 42.2374 54.6373ZM46.0099 56.5498V55.9348H45.9949C45.8849 56.1598 45.7174 56.3323 45.4924 56.4523C45.2674 56.5723 45.0299 56.6348 44.7799 56.6398C44.5149 56.6348 44.2999 56.5923 44.1349 56.5123C43.9649 56.4373 43.8349 56.3423 43.7449 56.2273C43.5849 55.9773 43.5099 55.7548 43.5199 55.5598C43.5199 55.2398 43.5974 54.9873 43.7524 54.8023C43.9024 54.6173 44.0949 54.4848 44.3299 54.4048C44.5649 54.3198 44.8199 54.2648 45.0949 54.2398C45.3649 54.2248 45.6249 54.2173 45.8749 54.2173H45.9649V54.0223C45.9799 53.3673 45.6899 53.0398 45.0949 53.0398C44.6999 53.0348 44.3249 53.1398 43.9699 53.3548V52.8973C44.3249 52.7323 44.6999 52.6448 45.0949 52.6348C45.9999 52.6248 46.4474 53.0998 46.4374 54.0598V55.7473C46.4324 56.0373 46.4449 56.3048 46.4749 56.5498H46.0099ZM45.9649 54.8548V54.6223H45.8299C45.6249 54.6223 45.4199 54.6273 45.2149 54.6373C44.9999 54.6573 44.8049 54.6998 44.6299 54.7648C44.4549 54.8248 44.3149 54.9173 44.2099 55.0423C44.0949 55.1673 44.0374 55.3348 44.0374 55.5448C44.0374 55.7898 44.1174 55.9648 44.2774 56.0698C44.4274 56.1798 44.6124 56.2348 44.8324 56.2348C45.1074 56.2348 45.3249 56.1798 45.4849 56.0698C45.6399 55.9648 45.7524 55.8398 45.8224 55.6948C45.8974 55.5398 45.9399 55.3873 45.9499 55.2373C45.9599 55.0823 45.9649 54.9548 45.9649 54.8548ZM47.6624 56.5498V53.5798C47.6624 53.2248 47.6524 52.9398 47.6324 52.7248H48.1049V53.4598H48.1199C48.2099 53.2348 48.3374 53.0423 48.5024 52.8823C48.6624 52.7223 48.8624 52.6398 49.1024 52.6348C49.2274 52.6398 49.3374 52.6548 49.4324 52.6798V53.1748C49.3274 53.1448 49.2124 53.1298 49.0874 53.1298C48.9024 53.1348 48.7499 53.1798 48.6299 53.2648C48.5099 53.3548 48.4124 53.4773 48.3374 53.6323C48.2674 53.7823 48.2174 53.9448 48.1874 54.1198C48.1524 54.3048 48.1349 54.4848 48.1349 54.6598V56.5498H47.6624ZM51.91 52.7248V53.1298H51.04V55.6048C51.04 55.7798 51.08 55.9273 51.16 56.0473C51.235 56.1723 51.365 56.2348 51.55 56.2348C51.72 56.2348 51.865 56.2048 51.985 56.1448L52.015 56.5348C51.96 56.5548 51.8825 56.5773 51.7825 56.6023C51.6775 56.6273 51.5625 56.6398 51.4375 56.6398C51.2325 56.6398 51.07 56.6048 50.95 56.5348C50.835 56.4648 50.7475 56.3723 50.6875 56.2573C50.6375 56.1373 50.605 56.0023 50.59 55.8523C50.575 55.7023 50.5675 55.5398 50.5675 55.3648V53.1298H49.8175V52.7248H50.5675V51.8023L51.04 51.6373V52.7248H51.91ZM55.055 56.5498V55.9348H55.04C54.93 56.1598 54.7625 56.3323 54.5375 56.4523C54.3125 56.5723 54.075 56.6348 53.825 56.6398C53.56 56.6348 53.345 56.5923 53.18 56.5123C53.01 56.4373 52.88 56.3423 52.79 56.2273C52.63 55.9773 52.555 55.7548 52.565 55.5598C52.565 55.2398 52.6425 54.9873 52.7975 54.8023C52.9475 54.6173 53.14 54.4848 53.375 54.4048C53.61 54.3198 53.865 54.2648 54.14 54.2398C54.41 54.2248 54.67 54.2173 54.92 54.2173H55.01V54.0223C55.025 53.3673 54.735 53.0398 54.14 53.0398C53.745 53.0348 53.37 53.1398 53.015 53.3548V52.8973C53.37 52.7323 53.745 52.6448 54.14 52.6348C55.045 52.6248 55.4925 53.0998 55.4825 54.0598V55.7473C55.4775 56.0373 55.49 56.3048 55.52 56.5498H55.055ZM55.01 54.8548V54.6223H54.875C54.67 54.6223 54.465 54.6273 54.26 54.6373C54.045 54.6573 53.85 54.6998 53.675 54.7648C53.5 54.8248 53.36 54.9173 53.255 55.0423C53.14 55.1673 53.0825 55.3348 53.0825 55.5448C53.0825 55.7898 53.1625 55.9648 53.3225 56.0698C53.4725 56.1798 53.6575 56.2348 53.8775 56.2348C54.1525 56.2348 54.37 56.1798 54.53 56.0698C54.685 55.9648 54.7975 55.8398 54.8675 55.6948C54.9425 55.5398 54.985 55.3873 54.995 55.2373C55.005 55.0823 55.01 54.9548 55.01 54.8548ZM61.8 56.5498H61.3275V54.0073C61.3275 53.8673 61.3175 53.7373 61.2975 53.6173C61.2675 53.5023 61.22 53.4023 61.155 53.3173C61.095 53.2273 61.0125 53.1573 60.9075 53.1073C60.8025 53.0623 60.6725 53.0398 60.5175 53.0398C60.2525 53.0398 60.0175 53.1498 59.8125 53.3698C59.6025 53.5998 59.495 53.9548 59.49 54.4348V56.5498H59.0175V54.0073C59.0175 53.8673 59.0075 53.7373 58.9875 53.6173C58.9575 53.5023 58.91 53.4023 58.845 53.3173C58.785 53.2273 58.7025 53.1573 58.5975 53.1073C58.4925 53.0623 58.3625 53.0398 58.2075 53.0398C57.9425 53.0398 57.7075 53.1498 57.5025 53.3698C57.2925 53.5998 57.185 53.9548 57.18 54.4348V56.5498H56.7075V53.6248C56.7075 53.3298 56.6975 53.0298 56.6775 52.7248H57.135V53.3698L57.15 53.3773C57.185 53.3073 57.2325 53.2298 57.2925 53.1448C57.3425 53.0598 57.4125 52.9798 57.5025 52.9048C57.5925 52.8298 57.705 52.7648 57.84 52.7098C57.975 52.6598 58.1425 52.6348 58.3425 52.6348C58.4325 52.6348 58.53 52.6448 58.635 52.6648C58.735 52.6848 58.835 52.7248 58.935 52.7848C59.035 52.8398 59.1225 52.9198 59.1975 53.0248C59.2725 53.1348 59.325 53.2748 59.355 53.4448H59.37C59.465 53.2148 59.6175 53.0223 59.8275 52.8673C60.0325 52.7173 60.2875 52.6398 60.5925 52.6348C60.9825 52.6398 61.2825 52.7598 61.4925 52.9948C61.6975 53.2248 61.8 53.5323 61.8 53.9173V56.5498ZM65.6201 55.9498V56.4298C65.2601 56.5648 64.8901 56.6348 64.5101 56.6398C63.8851 56.6298 63.4376 56.4373 63.1676 56.0623C62.8976 55.6973 62.7651 55.2223 62.7701 54.6373C62.7751 54.0423 62.9251 53.5598 63.2201 53.1898C63.5051 52.8248 63.8926 52.6398 64.3826 52.6348C64.9176 52.6448 65.3076 52.8323 65.5526 53.1973C65.7876 53.5573 65.9051 54.0023 65.9051 54.5323V54.7723H63.2876C63.2876 55.1873 63.3951 55.5298 63.6101 55.7998C63.8201 56.0848 64.1326 56.2298 64.5476 56.2348C64.7326 56.2348 64.9276 56.2023 65.1326 56.1373C65.3376 56.0823 65.5001 56.0198 65.6201 55.9498ZM63.2876 54.3673H65.3876C65.3876 54.0173 65.3151 53.7123 65.1701 53.4523C65.0151 53.1873 64.7626 53.0498 64.4126 53.0398C64.0676 53.0498 63.7951 53.1898 63.5951 53.4598C63.3901 53.7298 63.2876 54.0323 63.2876 54.3673ZM66.9051 56.5498V53.6248C66.9051 53.3298 66.8951 53.0298 66.8751 52.7248H67.3326V53.4073H67.3476C67.3926 53.3173 67.4451 53.2273 67.5051 53.1373C67.5651 53.0473 67.6401 52.9648 67.7301 52.8898C67.8251 52.8098 67.9426 52.7473 68.0826 52.7023C68.2226 52.6573 68.3901 52.6348 68.5851 52.6348C69.0551 52.6398 69.3926 52.7798 69.5976 53.0548C69.7926 53.3248 69.8901 53.6748 69.8901 54.1048V56.5498H69.4176V54.2248C69.4176 53.8598 69.3501 53.5698 69.2151 53.3548C69.0701 53.1498 68.8351 53.0448 68.5101 53.0398C68.0901 53.0498 67.7951 53.1998 67.6251 53.4898C67.5351 53.6248 67.4726 53.7723 67.4376 53.9323C67.3976 54.0973 67.3776 54.2648 67.3776 54.4348V56.5498H66.9051ZM72.8226 52.7248V53.1298H71.9526V55.6048C71.9526 55.7798 71.9926 55.9273 72.0726 56.0473C72.1476 56.1723 72.2776 56.2348 72.4626 56.2348C72.6326 56.2348 72.7776 56.2048 72.8976 56.1448L72.9276 56.5348C72.8726 56.5548 72.7951 56.5773 72.6951 56.6023C72.5901 56.6273 72.4751 56.6398 72.3501 56.6398C72.1451 56.6398 71.9826 56.6048 71.8626 56.5348C71.7476 56.4648 71.6601 56.3723 71.6001 56.2573C71.5501 56.1373 71.5176 56.0023 71.5026 55.8523C71.4876 55.7023 71.4801 55.5398 71.4801 55.3648V53.1298H70.7301V52.7248H71.4801V51.8023L71.9526 51.6373V52.7248H72.8226ZM76.28 56.5498V53.1298H75.5075V52.7248H76.28V52.4473C76.28 52.2423 76.29 52.0423 76.31 51.8473C76.32 51.6573 76.3575 51.4873 76.4225 51.3373C76.4875 51.1823 76.59 51.0598 76.73 50.9698C76.865 50.8798 77.0525 50.8348 77.2925 50.8348C77.3725 50.8348 77.455 50.8373 77.54 50.8423C77.625 50.8573 77.69 50.8798 77.735 50.9098L77.705 51.3223C77.6 51.2673 77.475 51.2398 77.33 51.2398C77.175 51.2398 77.0575 51.2748 76.9775 51.3448C76.8925 51.4248 76.835 51.5223 76.805 51.6373C76.775 51.7523 76.76 51.8748 76.76 52.0048C76.755 52.1398 76.7525 52.2698 76.7525 52.3948V52.7248H77.615V53.1298H76.7525V56.5498H76.28ZM81.1201 55.9498V56.4298C80.7601 56.5648 80.3901 56.6348 80.0101 56.6398C79.3851 56.6298 78.9376 56.4373 78.6676 56.0623C78.3976 55.6973 78.2651 55.2223 78.2701 54.6373C78.2751 54.0423 78.4251 53.5598 78.7201 53.1898C79.0051 52.8248 79.3926 52.6398 79.8826 52.6348C80.4176 52.6448 80.8076 52.8323 81.0526 53.1973C81.2876 53.5573 81.4051 54.0023 81.4051 54.5323V54.7723H78.7876C78.7876 55.1873 78.8951 55.5298 79.1101 55.7998C79.3201 56.0848 79.6326 56.2298 80.0476 56.2348C80.2326 56.2348 80.4276 56.2023 80.6326 56.1373C80.8376 56.0823 81.0001 56.0198 81.1201 55.9498ZM78.7876 54.3673H80.8876C80.8876 54.0173 80.8151 53.7123 80.6701 53.4523C80.5151 53.1873 80.2626 53.0498 79.9126 53.0398C79.5676 53.0498 79.2951 53.1898 79.0951 53.4598C78.8901 53.7298 78.7876 54.0323 78.7876 54.3673ZM85.4351 50.9248V56.5498H84.9626V55.9423H84.9476C84.6976 56.4123 84.3001 56.6448 83.7551 56.6398C83.2301 56.6298 82.8376 56.4373 82.5776 56.0623C82.3126 55.6873 82.1801 55.2123 82.1801 54.6373C82.1751 54.0423 82.2976 53.5623 82.5476 53.1973C82.7976 52.8273 83.2001 52.6398 83.7551 52.6348C83.9451 52.6348 84.1101 52.6623 84.2501 52.7173C84.3951 52.7723 84.5151 52.8423 84.6101 52.9273C84.8051 53.1023 84.9176 53.2498 84.9476 53.3698H84.9626V50.9248H85.4351ZM82.6976 54.6373C82.6976 54.8173 82.7151 54.9998 82.7501 55.1848C82.7901 55.3748 82.8501 55.5498 82.9301 55.7098C83.0201 55.8598 83.1376 55.9823 83.2826 56.0773C83.4226 56.1823 83.6051 56.2348 83.8301 56.2348C84.0401 56.2348 84.2201 56.1823 84.3701 56.0773C84.5101 55.9823 84.6251 55.8548 84.7151 55.6948C84.8851 55.3548 84.9676 55.0023 84.9626 54.6373C84.9626 54.4573 84.9451 54.2723 84.9101 54.0823C84.8701 53.9023 84.8051 53.7323 84.7151 53.5723C84.6251 53.4123 84.5101 53.2823 84.3701 53.1823C84.2201 53.0873 84.0401 53.0398 83.8301 53.0398C83.6051 53.0398 83.4226 53.0873 83.2826 53.1823C83.1376 53.2723 83.0201 53.3973 82.9301 53.5573C82.8501 53.7073 82.7901 53.8773 82.7501 54.0673C82.7151 54.2573 82.6976 54.4473 82.6976 54.6373ZM89.2376 55.9498V56.4298C88.8776 56.5648 88.5076 56.6348 88.1276 56.6398C87.5026 56.6298 87.0551 56.4373 86.7851 56.0623C86.5151 55.6973 86.3826 55.2223 86.3876 54.6373C86.3926 54.0423 86.5426 53.5598 86.8376 53.1898C87.1226 52.8248 87.5101 52.6398 88.0001 52.6348C88.5351 52.6448 88.9251 52.8323 89.1701 53.1973C89.4051 53.5573 89.5226 54.0023 89.5226 54.5323V54.7723H86.9051C86.9051 55.1873 87.0126 55.5298 87.2276 55.7998C87.4376 56.0848 87.7501 56.2298 88.1651 56.2348C88.3501 56.2348 88.5451 56.2023 88.7501 56.1373C88.9551 56.0823 89.1176 56.0198 89.2376 55.9498ZM86.9051 54.3673H89.0051C89.0051 54.0173 88.9326 53.7123 88.7876 53.4523C88.6326 53.1873 88.3801 53.0498 88.0301 53.0398C87.6851 53.0498 87.4126 53.1898 87.2126 53.4598C87.0076 53.7298 86.9051 54.0323 86.9051 54.3673ZM90.5226 56.5498V53.5798C90.5226 53.2248 90.5126 52.9398 90.4926 52.7248H90.9651V53.4598H90.9801C91.0701 53.2348 91.1976 53.0423 91.3626 52.8823C91.5226 52.7223 91.7226 52.6398 91.9626 52.6348C92.0876 52.6398 92.1976 52.6548 92.2926 52.6798V53.1748C92.1876 53.1448 92.0726 53.1298 91.9476 53.1298C91.7626 53.1348 91.6101 53.1798 91.4901 53.2648C91.3701 53.3548 91.2726 53.4773 91.1976 53.6323C91.1276 53.7823 91.0776 53.9448 91.0476 54.1198C91.0126 54.3048 90.9951 54.4848 90.9951 54.6598V56.5498H90.5226ZM95.3176 56.5498V55.9348H95.3026C95.1926 56.1598 95.0251 56.3323 94.8001 56.4523C94.5751 56.5723 94.3376 56.6348 94.0876 56.6398C93.8226 56.6348 93.6076 56.5923 93.4426 56.5123C93.2726 56.4373 93.1426 56.3423 93.0526 56.2273C92.8926 55.9773 92.8176 55.7548 92.8276 55.5598C92.8276 55.2398 92.9051 54.9873 93.0601 54.8023C93.2101 54.6173 93.4026 54.4848 93.6376 54.4048C93.8726 54.3198 94.1276 54.2648 94.4026 54.2398C94.6726 54.2248 94.9326 54.2173 95.1826 54.2173H95.2726V54.0223C95.2876 53.3673 94.9976 53.0398 94.4026 53.0398C94.0076 53.0348 93.6326 53.1398 93.2776 53.3548V52.8973C93.6326 52.7323 94.0076 52.6448 94.4026 52.6348C95.3076 52.6248 95.7551 53.0998 95.7451 54.0598V55.7473C95.7401 56.0373 95.7526 56.3048 95.7826 56.5498H95.3176ZM95.2726 54.8548V54.6223H95.1376C94.9326 54.6223 94.7276 54.6273 94.5226 54.6373C94.3076 54.6573 94.1126 54.6998 93.9376 54.7648C93.7626 54.8248 93.6226 54.9173 93.5176 55.0423C93.4026 55.1673 93.3451 55.3348 93.3451 55.5448C93.3451 55.7898 93.4251 55.9648 93.5851 56.0698C93.7351 56.1798 93.9201 56.2348 94.1401 56.2348C94.4151 56.2348 94.6326 56.1798 94.7926 56.0698C94.9476 55.9648 95.0601 55.8398 95.1301 55.6948C95.2051 55.5398 95.2476 55.3873 95.2576 55.2373C95.2676 55.0823 95.2726 54.9548 95.2726 54.8548ZM96.9701 56.5498V50.9248H97.4426V56.5498H96.9701ZM103.95 50.9248V56.5498H103.478V55.9423H103.463C103.213 56.4123 102.815 56.6448 102.27 56.6398C101.745 56.6298 101.353 56.4373 101.093 56.0623C100.828 55.6873 100.695 55.2123 100.695 54.6373C100.69 54.0423 100.813 53.5623 101.063 53.1973C101.313 52.8273 101.715 52.6398 102.27 52.6348C102.46 52.6348 102.625 52.6623 102.765 52.7173C102.91 52.7723 103.03 52.8423 103.125 52.9273C103.32 53.1023 103.433 53.2498 103.463 53.3698H103.478V50.9248H103.95ZM101.213 54.6373C101.213 54.8173 101.23 54.9998 101.265 55.1848C101.305 55.3748 101.365 55.5498 101.445 55.7098C101.535 55.8598 101.653 55.9823 101.798 56.0773C101.938 56.1823 102.12 56.2348 102.345 56.2348C102.555 56.2348 102.735 56.1823 102.885 56.0773C103.025 55.9823 103.14 55.8548 103.23 55.6948C103.4 55.3548 103.483 55.0023 103.478 54.6373C103.478 54.4573 103.46 54.2723 103.425 54.0823C103.385 53.9023 103.32 53.7323 103.23 53.5723C103.14 53.4123 103.025 53.2823 102.885 53.1823C102.735 53.0873 102.555 53.0398 102.345 53.0398C102.12 53.0398 101.938 53.0873 101.798 53.1823C101.653 53.2723 101.535 53.3973 101.445 53.5573C101.365 53.7073 101.305 53.8773 101.265 54.0673C101.23 54.2573 101.213 54.4473 101.213 54.6373ZM107.385 56.5498V55.9348H107.37C107.26 56.1598 107.093 56.3323 106.868 56.4523C106.643 56.5723 106.405 56.6348 106.155 56.6398C105.89 56.6348 105.675 56.5923 105.51 56.5123C105.34 56.4373 105.21 56.3423 105.12 56.2273C104.96 55.9773 104.885 55.7548 104.895 55.5598C104.895 55.2398 104.973 54.9873 105.128 54.8023C105.278 54.6173 105.47 54.4848 105.705 54.4048C105.94 54.3198 106.195 54.2648 106.47 54.2398C106.74 54.2248 107 54.2173 107.25 54.2173H107.34V54.0223C107.355 53.3673 107.065 53.0398 106.47 53.0398C106.075 53.0348 105.7 53.1398 105.345 53.3548V52.8973C105.7 52.7323 106.075 52.6448 106.47 52.6348C107.375 52.6248 107.823 53.0998 107.813 54.0598V55.7473C107.808 56.0373 107.82 56.3048 107.85 56.5498H107.385ZM107.34 54.8548V54.6223H107.205C107 54.6223 106.795 54.6273 106.59 54.6373C106.375 54.6573 106.18 54.6998 106.005 54.7648C105.83 54.8248 105.69 54.9173 105.585 55.0423C105.47 55.1673 105.413 55.3348 105.413 55.5448C105.413 55.7898 105.493 55.9648 105.653 56.0698C105.803 56.1798 105.988 56.2348 106.208 56.2348C106.483 56.2348 106.7 56.1798 106.86 56.0698C107.015 55.9648 107.128 55.8398 107.198 55.6948C107.273 55.5398 107.315 55.3873 107.325 55.2373C107.335 55.0823 107.34 54.9548 107.34 54.8548ZM111.518 54.6373C111.513 55.0273 111.598 55.3698 111.773 55.6648C111.943 55.9748 112.225 56.1348 112.62 56.1448C113.045 56.1348 113.348 55.9698 113.528 55.6498C113.698 55.3398 113.783 55.0023 113.783 54.6373C113.783 54.1623 113.703 53.7798 113.543 53.4898C113.378 53.1948 113.08 53.0448 112.65 53.0398C112.425 53.0398 112.243 53.0873 112.103 53.1823C111.958 53.2723 111.84 53.3973 111.75 53.5573C111.67 53.7073 111.61 53.8773 111.57 54.0673C111.535 54.2573 111.518 54.4473 111.518 54.6373ZM114.255 52.7248V56.2348C114.255 56.7798 114.123 57.2348 113.858 57.5998C113.583 57.9698 113.118 58.1598 112.463 58.1698C112.213 58.1648 111.983 58.1373 111.773 58.0873C111.568 58.0373 111.413 57.9973 111.308 57.9673L111.345 57.4948C111.66 57.6648 112.035 57.7548 112.47 57.7648C112.775 57.7598 113.015 57.7048 113.19 57.5998C113.37 57.4998 113.503 57.3598 113.588 57.1798C113.678 56.9998 113.735 56.7923 113.76 56.5573C113.78 56.3223 113.79 56.0698 113.79 55.7998H113.775C113.505 56.3098 113.118 56.5598 112.613 56.5498C112.013 56.5348 111.593 56.3198 111.353 55.9048C111.228 55.7148 111.14 55.5098 111.09 55.2898C111.03 55.0698 111 54.8523 111 54.6373C110.995 54.0423 111.118 53.5623 111.368 53.1973C111.618 52.8273 112.02 52.6398 112.575 52.6348C112.825 52.6348 113.045 52.6623 113.235 52.7173C113.42 52.7873 113.598 52.9348 113.768 53.1598H113.783V52.7248H114.255ZM115.493 56.5498V52.7248H115.965V56.5498H115.493ZM115.965 51.0748V51.7048H115.493V51.0748H115.965ZM120.24 52.7248V55.6498C120.235 55.9398 120.245 56.2398 120.27 56.5498H119.813V55.8673H119.798C119.763 55.9523 119.715 56.0373 119.655 56.1223C119.595 56.2123 119.518 56.2973 119.423 56.3773C119.328 56.4523 119.21 56.5123 119.07 56.5573C118.93 56.6123 118.76 56.6398 118.56 56.6398C118.095 56.6348 117.76 56.4948 117.555 56.2198C117.35 55.9498 117.25 55.5998 117.255 55.1698V52.7248H117.728V55.0498C117.728 55.4148 117.8 55.6998 117.945 55.9048C118.085 56.1248 118.315 56.2348 118.635 56.2348C118.85 56.2348 119.033 56.1898 119.183 56.0998C119.333 56.0148 119.448 55.9048 119.528 55.7698C119.618 55.6298 119.68 55.4798 119.715 55.3198C119.75 55.1598 119.768 54.9998 119.768 54.8398V52.7248H120.24ZM121.23 55.9948C121.52 56.1498 121.853 56.2298 122.228 56.2348C122.463 56.2348 122.663 56.1723 122.828 56.0473C122.988 55.9323 123.07 55.7673 123.075 55.5523C123.07 55.3273 122.978 55.1498 122.798 55.0198C122.618 54.8948 122.405 54.7823 122.16 54.6823C122.045 54.6273 121.935 54.5698 121.83 54.5098C121.725 54.4498 121.625 54.3823 121.53 54.3073C121.445 54.2273 121.375 54.1348 121.32 54.0298C121.265 53.9298 121.238 53.8123 121.238 53.6773C121.243 53.2973 121.373 53.0273 121.628 52.8673C121.873 52.7123 122.158 52.6348 122.483 52.6348C122.593 52.6348 122.735 52.6448 122.91 52.6648C123.085 52.6948 123.258 52.7423 123.428 52.8073L123.383 53.2198C123.108 53.1048 122.825 53.0448 122.535 53.0398C122.29 53.0398 122.095 53.0848 121.95 53.1748C121.875 53.2198 121.818 53.2823 121.778 53.3623C121.733 53.4423 121.71 53.5473 121.71 53.6773C121.71 53.7573 121.738 53.8323 121.793 53.9023C121.848 53.9673 121.92 54.0273 122.01 54.0823C122.1 54.1323 122.203 54.1848 122.318 54.2398C122.433 54.2898 122.545 54.3448 122.655 54.4048C122.905 54.5098 123.123 54.6498 123.308 54.8248C123.493 54.9998 123.588 55.2423 123.593 55.5523C123.593 55.7523 123.553 55.9198 123.473 56.0548C123.388 56.1948 123.28 56.3073 123.15 56.3923C122.87 56.5573 122.573 56.6398 122.258 56.6398C121.888 56.6398 121.53 56.5798 121.185 56.4598L121.23 55.9948ZM126.188 52.7248V53.1298H125.318V55.6048C125.318 55.7798 125.358 55.9273 125.438 56.0473C125.513 56.1723 125.643 56.2348 125.828 56.2348C125.998 56.2348 126.143 56.2048 126.263 56.1448L126.293 56.5348C126.238 56.5548 126.16 56.5773 126.06 56.6023C125.955 56.6273 125.84 56.6398 125.715 56.6398C125.51 56.6398 125.348 56.6048 125.228 56.5348C125.113 56.4648 125.025 56.3723 124.965 56.2573C124.915 56.1373 124.883 56.0023 124.868 55.8523C124.853 55.7023 124.845 55.5398 124.845 55.3648V53.1298H124.095V52.7248H124.845V51.8023L125.318 51.6373V52.7248H126.188ZM127.135 56.5498V52.7248H127.608V56.5498H127.135ZM127.608 51.0748V51.7048H127.135V51.0748H127.608ZM131.095 56.5498V55.9348H131.08C130.97 56.1598 130.803 56.3323 130.578 56.4523C130.353 56.5723 130.115 56.6348 129.865 56.6398C129.6 56.6348 129.385 56.5923 129.22 56.5123C129.05 56.4373 128.92 56.3423 128.83 56.2273C128.67 55.9773 128.595 55.7548 128.605 55.5598C128.605 55.2398 128.683 54.9873 128.838 54.8023C128.988 54.6173 129.18 54.4848 129.415 54.4048C129.65 54.3198 129.905 54.2648 130.18 54.2398C130.45 54.2248 130.71 54.2173 130.96 54.2173H131.05V54.0223C131.065 53.3673 130.775 53.0398 130.18 53.0398C129.785 53.0348 129.41 53.1398 129.055 53.3548V52.8973C129.41 52.7323 129.785 52.6448 130.18 52.6348C131.085 52.6248 131.533 53.0998 131.523 54.0598V55.7473C131.518 56.0373 131.53 56.3048 131.56 56.5498H131.095ZM131.05 54.8548V54.6223H130.915C130.71 54.6223 130.505 54.6273 130.3 54.6373C130.085 54.6573 129.89 54.6998 129.715 54.7648C129.54 54.8248 129.4 54.9173 129.295 55.0423C129.18 55.1673 129.123 55.3348 129.123 55.5448C129.123 55.7898 129.203 55.9648 129.363 56.0698C129.513 56.1798 129.698 56.2348 129.918 56.2348C130.193 56.2348 130.41 56.1798 130.57 56.0698C130.725 55.9648 130.838 55.8398 130.908 55.6948C130.983 55.5398 131.025 55.3873 131.035 55.2373C131.045 55.0823 131.05 54.9548 131.05 54.8548ZM137.5 55.9498V56.4298C137.14 56.5648 136.77 56.6348 136.39 56.6398C135.765 56.6298 135.318 56.4373 135.048 56.0623C134.778 55.6973 134.645 55.2223 134.65 54.6373C134.655 54.0423 134.805 53.5598 135.1 53.1898C135.385 52.8248 135.773 52.6398 136.263 52.6348C136.798 52.6448 137.188 52.8323 137.433 53.1973C137.668 53.5573 137.785 54.0023 137.785 54.5323V54.7723H135.168C135.168 55.1873 135.275 55.5298 135.49 55.7998C135.7 56.0848 136.013 56.2298 136.428 56.2348C136.613 56.2348 136.808 56.2023 137.013 56.1373C137.218 56.0823 137.38 56.0198 137.5 55.9498ZM135.168 54.3673H137.268C137.268 54.0173 137.195 53.7123 137.05 53.4523C136.895 53.1873 136.643 53.0498 136.293 53.0398C135.948 53.0498 135.675 53.1898 135.475 53.4598C135.27 53.7298 135.168 54.0323 135.168 54.3673ZM140.928 58.1248V52.7248H141.4L141.37 53.4223H141.385C141.415 53.3673 141.46 53.2923 141.52 53.1973C141.575 53.1123 141.65 53.0273 141.745 52.9423C141.84 52.8573 141.958 52.7823 142.098 52.7173C142.238 52.6623 142.408 52.6348 142.608 52.6348C143.168 52.6398 143.573 52.8273 143.823 53.1973C144.063 53.5623 144.183 54.0423 144.183 54.6373C144.183 55.2123 144.053 55.6873 143.793 56.0623C143.528 56.4373 143.133 56.6298 142.608 56.6398C142.028 56.6398 141.63 56.3923 141.415 55.8973H141.4V58.1248H140.928ZM143.665 54.6373C143.665 54.4473 143.653 54.2573 143.628 54.0673C143.593 53.8773 143.53 53.7073 143.44 53.5573C143.36 53.3973 143.245 53.2723 143.095 53.1823C142.945 53.0873 142.758 53.0398 142.533 53.0398C142.323 53.0398 142.148 53.0873 142.008 53.1823C141.863 53.2823 141.745 53.4123 141.655 53.5723C141.565 53.7323 141.503 53.9023 141.468 54.0823C141.423 54.2723 141.4 54.4573 141.4 54.6373C141.395 55.0023 141.48 55.3548 141.655 55.6948C141.745 55.8548 141.863 55.9823 142.008 56.0773C142.148 56.1823 142.323 56.2348 142.533 56.2348C142.758 56.2348 142.945 56.1823 143.095 56.0773C143.245 55.9823 143.36 55.8598 143.44 55.7098C143.53 55.5498 143.593 55.3748 143.628 55.1848C143.653 54.9998 143.665 54.8173 143.665 54.6373ZM144.948 54.6373C144.948 54.0923 145.093 53.6273 145.383 53.2423C145.673 52.8473 146.123 52.6448 146.733 52.6348C147.353 52.6448 147.808 52.8473 148.098 53.2423C148.378 53.6273 148.518 54.0923 148.518 54.6373C148.518 55.1723 148.378 55.6348 148.098 56.0248C147.808 56.4248 147.353 56.6298 146.733 56.6398C146.123 56.6298 145.673 56.4248 145.383 56.0248C145.093 55.6348 144.948 55.1723 144.948 54.6373ZM145.465 54.6373C145.465 55.0923 145.575 55.4673 145.795 55.7623C146.005 56.0723 146.318 56.2298 146.733 56.2348C147.148 56.2298 147.465 56.0723 147.685 55.7623C147.895 55.4673 148 55.0923 148 54.6373C148 54.1823 147.895 53.8023 147.685 53.4973C147.465 53.1973 147.148 53.0448 146.733 53.0398C146.318 53.0448 146.005 53.1973 145.795 53.4973C145.575 53.8023 145.465 54.1823 145.465 54.6373ZM149.508 56.5498V50.9248H149.98V56.5498H149.508ZM151.27 56.5498V52.7248H151.743V56.5498H151.27ZM151.743 51.0748V51.7048H151.27V51.0748H151.743ZM152.68 56.5498V56.1523L154.983 53.1298H152.77V52.7248H155.53V53.1298L153.228 56.1448H155.53V56.5498H152.68ZM156.465 56.5498V52.7248H156.938V56.5498H156.465ZM156.938 51.0748V51.7048H156.465V51.0748H156.938ZM160.425 56.5498V55.9348H160.41C160.3 56.1598 160.133 56.3323 159.908 56.4523C159.683 56.5723 159.445 56.6348 159.195 56.6398C158.93 56.6348 158.715 56.5923 158.55 56.5123C158.38 56.4373 158.25 56.3423 158.16 56.2273C158 55.9773 157.925 55.7548 157.935 55.5598C157.935 55.2398 158.013 54.9873 158.168 54.8023C158.318 54.6173 158.51 54.4848 158.745 54.4048C158.98 54.3198 159.235 54.2648 159.51 54.2398C159.78 54.2248 160.04 54.2173 160.29 54.2173H160.38V54.0223C160.395 53.3673 160.105 53.0398 159.51 53.0398C159.115 53.0348 158.74 53.1398 158.385 53.3548V52.8973C158.74 52.7323 159.115 52.6448 159.51 52.6348C160.415 52.6248 160.863 53.0998 160.853 54.0598V55.7473C160.848 56.0373 160.86 56.3048 160.89 56.5498H160.425ZM160.38 54.8548V54.6223H160.245C160.04 54.6223 159.835 54.6273 159.63 54.6373C159.415 54.6573 159.22 54.6998 159.045 54.7648C158.87 54.8248 158.73 54.9173 158.625 55.0423C158.51 55.1673 158.453 55.3348 158.453 55.5448C158.453 55.7898 158.533 55.9648 158.693 56.0698C158.843 56.1798 159.028 56.2348 159.248 56.2348C159.523 56.2348 159.74 56.1798 159.9 56.0698C160.055 55.9648 160.168 55.8398 160.238 55.6948C160.313 55.5398 160.355 55.3873 160.365 55.2373C160.375 55.0823 160.38 54.9548 160.38 54.8548ZM164.79 51.7648V56.0998H165.218C166.813 56.1348 167.63 55.3998 167.67 53.8948C167.66 53.1048 167.455 52.5473 167.055 52.2223C166.65 51.9123 166.148 51.7598 165.548 51.7648H164.79ZM164.273 56.5498V51.3148H165.57C166.5 51.3248 167.173 51.5673 167.588 52.0423C167.993 52.5173 168.193 53.1448 168.188 53.9248C168.178 54.8598 167.895 55.5323 167.34 55.9423C166.79 56.3473 166.073 56.5498 165.188 56.5498H164.273ZM169.353 56.5498V51.3148H171.843V51.7648H169.87V53.6323H171.753V54.0823H169.87V56.5498H169.353ZM176.438 56.0023V54.1648H175.223V53.7148H176.955V56.3173C176.435 56.5373 175.893 56.6448 175.328 56.6398C174.498 56.6298 173.853 56.3798 173.393 55.8898C172.923 55.4048 172.688 54.7523 172.688 53.9323C172.693 53.1223 172.93 52.4698 173.4 51.9748C173.865 51.4848 174.508 51.2348 175.328 51.2248C175.543 51.2248 175.785 51.2423 176.055 51.2773C176.32 51.3173 176.545 51.3823 176.73 51.4723L176.67 51.9523C176.465 51.8423 176.25 51.7648 176.025 51.7198C175.795 51.6898 175.563 51.6748 175.328 51.6748C174.648 51.6848 174.125 51.8973 173.76 52.3123C173.39 52.7273 173.205 53.2673 173.205 53.9323C173.205 54.6023 173.388 55.1423 173.753 55.5523C174.113 55.9723 174.638 56.1848 175.328 56.1898C175.503 56.1898 175.7 56.1748 175.92 56.1448C176.135 56.1248 176.308 56.0773 176.438 56.0023ZM178.365 56.5498V51.3148H179.655C180.71 51.3148 181.25 51.8098 181.275 52.7998C181.27 53.2848 181.11 53.6523 180.795 53.9023C180.485 54.1573 180.088 54.2848 179.603 54.2848H178.883V56.5498H178.365ZM178.883 51.7648V53.8348H179.243C179.443 53.8348 179.633 53.8223 179.813 53.7973C179.993 53.7773 180.155 53.7348 180.3 53.6698C180.445 53.5998 180.558 53.4948 180.638 53.3548C180.718 53.2148 180.758 53.0298 180.758 52.7998C180.748 52.1198 180.403 51.7748 179.723 51.7648H178.883Z" fill="#092740"/>
</svg>
