<?xml version="1.0" encoding="UTF-8"?>
<svg id="Ebene_1" xmlns="http://www.w3.org/2000/svg" version="1.1" viewBox="0 0 170.56 82.89">
  <!-- Generator: Adobe Illustrator 29.7.1, SVG Export Plug-In . SVG Version: 2.1.1 Build 8)  -->
  <defs>
    <style>
      .st0 {
        fill: #fff;
      }

      .st1 {
        fill: red;
      }
    </style>
  </defs>
  <g>
    <g>
      <path class="st0" d="M32.15,8.35c.31.2.67.31,1.15.31.65,0,1.18-.33,1.18-1.07,0-1.03-2.4-1.16-2.4-2.53,0-.84.74-1.37,1.66-1.37.25,0,.67.04,1.03.17l-.08.47c-.23-.13-.6-.2-.95-.2-.54,0-1.13.23-1.13.9,0,1.05,2.4,1.06,2.4,2.59,0,1.06-.91,1.48-1.72,1.48-.51,0-.91-.1-1.19-.23l.05-.53h0Z"/>
      <path class="st0" d="M39.07,5.7c-.25-.11-.56-.2-.82-.2-.92,0-1.44.67-1.44,1.6,0,.87.53,1.6,1.39,1.6.3,0,.58-.07.86-.17l.04.44c-.32.11-.62.13-.98.13-1.23,0-1.83-.94-1.83-2,0-1.18.76-2,1.89-2,.46,0,.79.1.92.15l-.04.45h.01Z"/>
      <path class="st0" d="M40.49,3.39h.47v2.45h.01c.2-.42.63-.74,1.19-.74,1.03,0,1.31.68,1.31,1.63v2.29h-.47v-2.28c0-.66-.13-1.23-.91-1.23-.84,0-1.13.8-1.13,1.46v2.05h-.47V3.39Z"/>
      <path class="st0" d="M49.18,9.01h-.57l-1.04-3.31h-.01l-1.04,3.31h-.57l-1.23-3.83h.52l1,3.31h.01l1.07-3.31h.57l1.01,3.31h.01l1.06-3.31h.47s-1.26,3.83-1.26,3.83Z"/>
      <path class="st0" d="M54.24,8.89c-.33.13-.76.21-1.11.21-1.27,0-1.74-.85-1.74-2s.65-2,1.61-2c1.08,0,1.52.87,1.52,1.9v.24h-2.62c0,.81.43,1.46,1.26,1.46.35,0,.85-.14,1.07-.29v.48h.01ZM54.01,6.83c0-.67-.27-1.33-.97-1.33s-1.13.7-1.13,1.33h2.1Z"/>
      <path class="st0" d="M56.48,4.17h-.47v-.63h.47v.63ZM56.01,5.19h.47v3.83h-.47v-3.83Z"/>
      <path class="st0" d="M57.91,8.62l2.3-3.02h-2.21v-.4h2.76v.4l-2.3,3.02h2.3v.4h-2.85s0-.4,0-.4Z"/>
      <path class="st0" d="M64.74,8.89c-.33.13-.76.21-1.11.21-1.27,0-1.74-.85-1.74-2s.65-2,1.61-2c1.08,0,1.52.87,1.52,1.9v.24h-2.62c0,.81.44,1.46,1.26,1.46.35,0,.85-.14,1.07-.29v.48h.01ZM64.51,6.83c0-.67-.27-1.33-.97-1.33s-1.13.7-1.13,1.33h2.1Z"/>
      <path class="st0" d="M66.51,6.04c0-.42,0-.58-.03-.85h.47v.74h.01c.17-.43.5-.82.98-.82.11,0,.25.02.33.04v.5c-.1-.03-.22-.04-.35-.04-.75,0-.95.84-.95,1.53v1.89h-.47v-2.99Z"/>
      <path class="st0" d="M70.07,4.17h-.47v-.63h.47v.63ZM69.6,5.19h.47v3.83h-.47v-3.83Z"/>
      <path class="st0" d="M71.56,8.46c.29.14.63.24,1,.24.45,0,.85-.25.85-.68,0-.91-1.84-.76-1.84-1.88,0-.76.61-1.04,1.25-1.04.2,0,.61.04.95.17l-.04.41c-.25-.11-.58-.18-.85-.18-.49,0-.83.15-.83.64,0,.71,1.88.62,1.88,1.88,0,.81-.76,1.09-1.34,1.09-.37,0-.74-.04-1.07-.18l.04-.47Z"/>
      <path class="st0" d="M77.84,5.7c-.26-.11-.56-.2-.82-.2-.92,0-1.44.67-1.44,1.6,0,.87.52,1.6,1.39,1.6.3,0,.58-.07.86-.17l.04.44c-.32.11-.62.13-.98.13-1.23,0-1.83-.94-1.83-2,0-1.18.76-2,1.89-2,.46,0,.79.1.92.15l-.04.45h.01Z"/>
      <path class="st0" d="M79.27,3.39h.47v2.45h.01c.2-.42.63-.74,1.19-.74,1.03,0,1.31.68,1.31,1.63v2.29h-.47v-2.28c0-.66-.13-1.23-.91-1.23-.84,0-1.13.8-1.13,1.46v2.05h-.47V3.39h0Z"/>
      <path class="st0" d="M86.59,8.89c-.33.13-.76.21-1.11.21-1.27,0-1.74-.85-1.74-2s.65-2,1.61-2c1.08,0,1.52.87,1.52,1.9v.24h-2.62c0,.81.44,1.46,1.26,1.46.35,0,.85-.14,1.07-.29v.48h.01ZM86.36,6.83c0-.67-.27-1.33-.98-1.33s-1.13.7-1.13,1.33h2.11Z"/>
      <path class="st0" d="M90.86,3.78h2.57v.45h-2.05v1.87h1.94v.45h-1.94v2.02h2.14v.45h-2.66V3.78h0Z"/>
      <path class="st0" d="M95.62,4.17h-.47v-.63h.47v.63ZM95.15,5.19h.47v3.83h-.47v-3.83Z"/>
      <path class="st0" d="M100.43,9.01h-.47v-.61h0c-.26.49-.65.7-1.19.7-1.05,0-1.58-.87-1.58-2s.45-2,1.58-2c.75,0,1.13.55,1.19.74h0v-2.45h.47v5.63h0ZM98.82,8.7c.84,0,1.13-.9,1.13-1.6s-.29-1.6-1.13-1.6c-.9,0-1.13.85-1.13,1.6s.23,1.6,1.13,1.6Z"/>
      <path class="st0" d="M105.19,8.7c0,1.07-.48,1.94-1.79,1.94-.5,0-.96-.14-1.16-.2l.04-.47c.29.15.71.27,1.13.27,1.22,0,1.32-.89,1.32-1.97h0c-.26.55-.68.75-1.16.75-1.22,0-1.61-1.07-1.61-1.91,0-1.16.45-2,1.58-2,.51,0,.84.07,1.19.52h0v-.44h.47v3.51h-.01ZM103.55,8.61c.85,0,1.16-.81,1.16-1.51,0-.92-.27-1.6-1.13-1.6s-1.13.85-1.13,1.6.3,1.51,1.1,1.51Z"/>
      <path class="st0" d="M109.48,8.89c-.33.13-.76.21-1.11.21-1.27,0-1.74-.85-1.74-2s.65-2,1.61-2c1.08,0,1.52.87,1.52,1.9v.24h-2.62c0,.81.44,1.46,1.26,1.46.35,0,.85-.14,1.07-.29v.48h0ZM109.25,6.83c0-.67-.27-1.33-.98-1.33s-1.13.7-1.13,1.33h2.11Z"/>
      <path class="st0" d="M111.25,6.09c0-.29,0-.59-.03-.9h.46v.68h0c.16-.35.44-.77,1.24-.77.95,0,1.31.63,1.31,1.47v2.45h-.47v-2.33c0-.72-.26-1.19-.91-1.19-.86,0-1.13.76-1.13,1.4v2.12h-.47v-2.93h0Z"/>
      <path class="st0" d="M117.5,5.1c1.24,0,1.79.96,1.79,2s-.55,2-1.79,2-1.79-.96-1.79-2,.55-2,1.79-2ZM117.5,8.7c.83,0,1.27-.71,1.27-1.6s-.44-1.6-1.27-1.6-1.27.71-1.27,1.6.44,1.6,1.27,1.6Z"/>
      <path class="st0" d="M120.47,8.46c.29.14.63.24,1,.24.45,0,.85-.25.85-.68,0-.91-1.84-.76-1.84-1.88,0-.76.62-1.04,1.25-1.04.2,0,.61.04.95.17l-.04.41c-.25-.11-.59-.18-.85-.18-.49,0-.83.15-.83.64,0,.71,1.88.62,1.88,1.88,0,.81-.76,1.09-1.34,1.09-.37,0-.74-.04-1.07-.18l.04-.47Z"/>
      <path class="st0" d="M123.98,8.46c.29.14.63.24,1,.24.45,0,.85-.25.85-.68,0-.91-1.84-.76-1.84-1.88,0-.76.62-1.04,1.25-1.04.2,0,.61.04.95.17l-.04.41c-.25-.11-.59-.18-.85-.18-.49,0-.83.15-.83.64,0,.71,1.88.62,1.88,1.88,0,.81-.76,1.09-1.34,1.09-.37,0-.74-.04-1.07-.18l.04-.47Z"/>
      <path class="st0" d="M130.34,8.89c-.33.13-.76.21-1.11.21-1.27,0-1.74-.85-1.74-2s.65-2,1.61-2c1.08,0,1.52.87,1.52,1.9v.24h-2.62c0,.81.44,1.46,1.26,1.46.35,0,.85-.14,1.07-.29v.48h0ZM130.11,6.83c0-.67-.27-1.33-.98-1.33s-1.13.7-1.13,1.33h2.11Z"/>
      <path class="st0" d="M132.11,6.09c0-.29,0-.59-.03-.9h.46v.68h0c.16-.35.44-.77,1.24-.77.95,0,1.31.63,1.31,1.47v2.45h-.47v-2.33c0-.72-.26-1.19-.91-1.19-.86,0-1.13.76-1.13,1.4v2.12h-.47v-2.93h0Z"/>
      <path class="st0" d="M136.57,8.46c.29.14.63.24,1,.24.45,0,.85-.25.85-.68,0-.91-1.84-.76-1.84-1.88,0-.76.62-1.04,1.25-1.04.2,0,.61.04.95.17l-.04.41c-.25-.11-.59-.18-.85-.18-.49,0-.83.15-.83.64,0,.71,1.88.62,1.88,1.88,0,.81-.76,1.09-1.34,1.09-.37,0-.74-.04-1.07-.18l.05-.47h-.01Z"/>
      <path class="st0" d="M142.86,5.7c-.26-.11-.56-.2-.82-.2-.92,0-1.44.67-1.44,1.6,0,.87.52,1.6,1.39,1.6.3,0,.58-.07.86-.17l.04.44c-.32.11-.62.13-.98.13-1.23,0-1.83-.94-1.83-2,0-1.18.76-2,1.89-2,.46,0,.79.1.92.15l-.04.45h.01Z"/>
      <path class="st0" d="M144.29,3.39h.47v2.45h0c.2-.42.63-.74,1.19-.74,1.03,0,1.31.68,1.31,1.63v2.29h-.47v-2.28c0-.66-.13-1.23-.91-1.23-.84,0-1.13.8-1.13,1.46v2.05h-.47V3.39h0Z"/>
      <path class="st0" d="M151.24,8.4h0c-.21.46-.74.71-1.22.71-1.09,0-1.26-.74-1.26-1.08,0-1.28,1.37-1.34,2.36-1.34h.09v-.2c0-.65-.23-.98-.87-.98-.4,0-.77.09-1.13.32v-.46c.29-.14.79-.26,1.13-.26.95,0,1.34.43,1.34,1.43v1.69c0,.31,0,.54.04.8h-.47v-.61h0v-.02ZM151.2,7.08h-.13c-.82,0-1.79.08-1.79.92,0,.5.36.69.79.69,1.11,0,1.13-.97,1.13-1.38v-.23Z"/>
      <path class="st0" d="M153.71,5.59h-.77v-.4h.77v-.28c0-.8.03-1.61,1.01-1.61.15,0,.35.02.44.07l-.03.41c-.1-.05-.24-.08-.38-.08-.65,0-.58.7-.58,1.15v.33h.86v.4h-.86v3.42h-.47v-3.42h.01Z"/>
      <path class="st0" d="M158.12,5.59h-.87v2.48c0,.35.13.63.51.63.18,0,.3-.04.43-.09l.03.39c-.11.04-.35.1-.58.1-.84,0-.87-.58-.87-1.27v-2.24h-.75v-.4h.75v-.92l.47-.16v1.09h.87v.4h.01Z"/>
      <path class="st0" d="M35.82,14.71c-.33-.17-.8-.23-1.17-.23-1.36,0-2.12.96-2.12,2.26s.74,2.26,2.12,2.26c.35,0,.87-.04,1.17-.23l.03.45c-.29.17-.87.23-1.2.23-1.65,0-2.64-1.09-2.64-2.71s1.02-2.71,2.64-2.71c.31,0,.93.05,1.2.2l-.03.48Z"/>
      <path class="st0" d="M39.07,15.45c1.24,0,1.79.96,1.79,2s-.55,2-1.79,2-1.79-.96-1.79-2,.55-2,1.79-2ZM39.07,19.05c.83,0,1.27-.71,1.27-1.6s-.44-1.6-1.27-1.6-1.27.71-1.27,1.6.44,1.6,1.27,1.6Z"/>
      <path class="st0" d="M42.34,16.44c0-.29,0-.59-.03-.9h.46v.68h.01c.16-.35.44-.77,1.24-.77.95,0,1.31.63,1.31,1.47v2.45h-.47v-2.33c0-.72-.25-1.19-.91-1.19-.86,0-1.13.76-1.13,1.4v2.12h-.47v-2.93h0Z"/>
      <path class="st0" d="M47.42,15.94h-.77v-.4h.77v-.28c0-.8.03-1.61,1.01-1.61.15,0,.35.02.44.07l-.03.41c-.1-.05-.24-.08-.38-.08-.64,0-.58.7-.58,1.15v.33h.86v.4h-.86v3.42h-.47v-3.42h0Z"/>
      <path class="st0" d="M52.74,19.24c-.33.13-.76.21-1.11.21-1.27,0-1.74-.85-1.74-2s.65-2,1.61-2c1.08,0,1.52.87,1.52,1.9v.24h-2.62c0,.81.44,1.46,1.26,1.46.35,0,.85-.14,1.07-.29v.48h.01ZM52.51,17.18c0-.67-.27-1.33-.97-1.33s-1.13.7-1.13,1.33h2.1ZM51.72,14.06h.59l-.95,1.08h-.35l.7-1.08h.01Z"/>
      <path class="st0" d="M57.55,19.36h-.47v-.61h-.01c-.25.49-.65.7-1.19.7-1.05,0-1.58-.87-1.58-2s.45-2,1.58-2c.75,0,1.13.55,1.19.74h.01v-2.45h.47v5.63h0ZM55.94,19.05c.84,0,1.13-.9,1.13-1.6s-.29-1.6-1.13-1.6c-.9,0-1.13.85-1.13,1.6s.23,1.6,1.13,1.6Z"/>
      <path class="st0" d="M61.84,19.24c-.33.13-.76.21-1.11.21-1.27,0-1.74-.85-1.74-2s.65-2,1.61-2c1.08,0,1.52.87,1.52,1.9v.24h-2.62c0,.81.44,1.46,1.26,1.46.35,0,.85-.14,1.07-.29v.48h.01ZM61.61,17.18c0-.67-.27-1.33-.97-1.33s-1.13.7-1.13,1.33h2.1ZM60.82,14.06h.59l-.94,1.08h-.35s.7-1.08.7-1.08Z"/>
      <path class="st0" d="M63.61,16.39c0-.42,0-.58-.03-.85h.47v.74h.01c.17-.43.5-.83.98-.83.11,0,.25.02.33.04v.5c-.1-.03-.22-.04-.35-.04-.75,0-.95.84-.95,1.53v1.89h-.47v-2.97h0Z"/>
      <path class="st0" d="M68.89,18.75h-.01c-.21.46-.74.71-1.22.71-1.09,0-1.26-.74-1.26-1.08,0-1.28,1.37-1.34,2.36-1.34h.09v-.2c0-.65-.23-.98-.87-.98-.4,0-.77.09-1.13.32v-.46c.29-.14.79-.26,1.13-.26.94,0,1.34.43,1.34,1.43v1.69c0,.31,0,.54.04.8h-.46v-.63ZM68.85,17.44h-.14c-.82,0-1.79.08-1.79.92,0,.5.36.69.79.69,1.11,0,1.13-.97,1.13-1.38v-.23h.01Z"/>
      <path class="st0" d="M72.68,15.94h-.87v2.48c0,.35.13.63.51.63.18,0,.3-.04.43-.09l.03.39c-.11.04-.35.1-.58.1-.84,0-.87-.58-.87-1.27v-2.24h-.75v-.4h.75v-.92l.47-.16v1.09h.87v.4h.01Z"/>
      <path class="st0" d="M74.59,14.52h-.47v-.63h.47v.63ZM74.11,15.54h.47v3.83h-.47v-3.83Z"/>
      <path class="st0" d="M77.86,15.45c1.24,0,1.79.96,1.79,2s-.55,2-1.79,2-1.79-.96-1.79-2,.55-2,1.79-2ZM77.86,19.05c.83,0,1.27-.71,1.27-1.6s-.44-1.6-1.27-1.6-1.27.71-1.27,1.6.44,1.6,1.27,1.6Z"/>
      <path class="st0" d="M81.12,16.44c0-.29,0-.59-.03-.9h.46v.68h.01c.16-.35.44-.77,1.24-.77.95,0,1.31.63,1.31,1.47v2.45h-.47v-2.33c0-.72-.26-1.19-.91-1.19-.86,0-1.13.76-1.13,1.4v2.12h-.47v-2.93h0Z"/>
      <path class="st0" d="M88.18,18.81c.29.14.63.24,1,.24.45,0,.85-.25.85-.68,0-.91-1.84-.76-1.84-1.88,0-.76.62-1.04,1.25-1.04.2,0,.61.04.95.17l-.04.41c-.25-.11-.59-.18-.85-.18-.49,0-.83.15-.83.64,0,.71,1.88.62,1.88,1.88,0,.81-.76,1.09-1.34,1.09-.37,0-.74-.04-1.07-.18,0,0,.04-.47.04-.47Z"/>
      <path class="st0" d="M94.97,18.46c0,.29,0,.59.03.9h-.46v-.68h0c-.16.35-.44.77-1.24.77-.95,0-1.31-.63-1.31-1.47v-2.45h.47v2.33c0,.72.26,1.19.91,1.19.86,0,1.13-.76,1.13-1.4v-2.12h.47v2.93h0Z"/>
      <path class="st0" d="M97.21,14.52h-.47v-.63h.47v.63ZM96.74,15.54h.47v3.83h-.47v-3.83Z"/>
      <path class="st0" d="M98.7,18.81c.29.14.63.24,1,.24.45,0,.85-.25.85-.68,0-.91-1.84-.76-1.84-1.88,0-.76.62-1.04,1.25-1.04.2,0,.61.04.95.17l-.04.41c-.25-.11-.59-.18-.85-.18-.49,0-.83.15-.83.64,0,.71,1.88.62,1.88,1.88,0,.81-.76,1.09-1.34,1.09-.37,0-.74-.04-1.07-.18,0,0,.04-.47.04-.47Z"/>
      <path class="st0" d="M102.2,18.81c.29.14.63.24,1,.24.45,0,.85-.25.85-.68,0-.91-1.84-.76-1.84-1.88,0-.76.62-1.04,1.25-1.04.2,0,.61.04.95.17l-.04.41c-.25-.11-.59-.18-.85-.18-.49,0-.83.15-.83.64,0,.71,1.88.62,1.88,1.88,0,.81-.76,1.09-1.34,1.09-.37,0-.74-.04-1.07-.18,0,0,.04-.47.04-.47Z"/>
      <path class="st0" d="M108.56,19.24c-.33.13-.76.21-1.11.21-1.27,0-1.74-.85-1.74-2s.65-2,1.61-2c1.08,0,1.52.87,1.52,1.9v.24h-2.62c0,.81.44,1.46,1.26,1.46.35,0,.85-.14,1.07-.29v.48h0ZM108.33,17.18c0-.67-.27-1.33-.98-1.33s-1.13.7-1.13,1.33h2.11Z"/>
      <path class="st0" d="M35.82,25.06c-.33-.17-.8-.23-1.17-.23-1.36,0-2.12.96-2.12,2.26s.74,2.26,2.12,2.26c.35,0,.87-.04,1.17-.23l.03.45c-.29.17-.87.23-1.2.23-1.65,0-2.64-1.09-2.64-2.71s1.02-2.71,2.64-2.71c.31,0,.93.05,1.2.2l-.03.48Z"/>
      <path class="st0" d="M39.07,25.8c1.24,0,1.79.96,1.79,2s-.55,2-1.79,2-1.79-.96-1.79-2,.55-2,1.79-2ZM39.07,29.4c.83,0,1.27-.71,1.27-1.6s-.44-1.6-1.27-1.6-1.27.71-1.27,1.6.44,1.6,1.27,1.6Z"/>
      <path class="st0" d="M42.34,26.79c0-.29,0-.59-.03-.9h.46v.68h.01c.16-.35.44-.77,1.24-.77.95,0,1.31.63,1.31,1.47v2.45h-.47v-2.33c0-.72-.25-1.19-.91-1.19-.86,0-1.13.76-1.13,1.4v2.12h-.47v-2.93h0Z"/>
      <path class="st0" d="M47.42,26.29h-.77v-.4h.77v-.28c0-.8.03-1.61,1.01-1.61.15,0,.35.02.44.07l-.03.41c-.1-.05-.24-.08-.38-.08-.64,0-.58.7-.58,1.15v.33h.86v.4h-.86v3.42h-.47v-3.42h0Z"/>
      <path class="st0" d="M52.74,29.59c-.33.13-.76.21-1.11.21-1.27,0-1.74-.85-1.74-2s.65-2,1.61-2c1.08,0,1.52.87,1.52,1.9v.24h-2.62c0,.81.44,1.46,1.26,1.46.35,0,.85-.14,1.07-.29v.48h.01ZM52.51,27.53c0-.67-.27-1.33-.97-1.33s-1.13.7-1.13,1.33h2.1Z"/>
      <path class="st0" d="M57.55,29.71h-.47v-.61h-.01c-.25.49-.65.7-1.19.7-1.05,0-1.58-.87-1.58-2s.45-2,1.58-2c.75,0,1.13.55,1.19.74h.01v-2.45h.47v5.63h0ZM55.94,29.4c.84,0,1.13-.9,1.13-1.6s-.29-1.6-1.13-1.6c-.9,0-1.13.85-1.13,1.6s.23,1.6,1.13,1.6Z"/>
      <path class="st0" d="M61.84,29.59c-.33.13-.76.21-1.11.21-1.27,0-1.74-.85-1.74-2s.65-2,1.61-2c1.08,0,1.52.87,1.52,1.9v.24h-2.62c0,.81.44,1.46,1.26,1.46.35,0,.85-.14,1.07-.29v.48h.01ZM61.61,27.53c0-.67-.27-1.33-.97-1.33s-1.13.7-1.13,1.33h2.1Z"/>
      <path class="st0" d="M63.61,26.74c0-.42,0-.58-.03-.86h.47v.74h.01c.17-.43.5-.82.98-.82.11,0,.25.02.33.04v.5c-.1-.03-.22-.04-.35-.04-.75,0-.95.84-.95,1.53v1.89h-.47v-2.97h0Z"/>
      <path class="st0" d="M68.89,29.1h-.01c-.21.46-.74.71-1.22.71-1.09,0-1.26-.74-1.26-1.08,0-1.28,1.37-1.34,2.36-1.34h.09v-.2c0-.65-.23-.98-.87-.98-.4,0-.77.09-1.13.32v-.46c.29-.14.79-.26,1.13-.26.94,0,1.34.43,1.34,1.43v1.69c0,.31,0,.54.04.8h-.46v-.63ZM68.85,27.78h-.14c-.82,0-1.79.08-1.79.92,0,.5.36.69.79.69,1.11,0,1.13-.97,1.13-1.38v-.23h.01Z"/>
      <path class="st0" d="M70.68,29.32l2.3-3.02h-2.21v-.4h2.76v.4l-2.3,3.02h2.3v.4h-2.85s0-.4,0-.4Z"/>
      <path class="st0" d="M75.42,24.87h-.47v-.63h.47v.63ZM74.95,25.89h.47v3.83h-.47v-3.83Z"/>
      <path class="st0" d="M78.69,25.8c1.24,0,1.79.96,1.79,2s-.55,2-1.79,2-1.79-.96-1.79-2,.55-2,1.79-2ZM78.69,29.4c.83,0,1.27-.71,1.27-1.6s-.44-1.6-1.27-1.6-1.27.71-1.27,1.6.44,1.6,1.27,1.6Z"/>
      <path class="st0" d="M81.96,26.79c0-.29,0-.59-.03-.9h.46v.68h.01c.16-.35.44-.77,1.24-.77.95,0,1.31.63,1.31,1.47v2.45h-.47v-2.33c0-.72-.26-1.19-.91-1.19-.86,0-1.13.76-1.13,1.4v2.12h-.47v-2.93h0Z"/>
      <path class="st0" d="M89.28,29.59c-.33.13-.76.21-1.11.21-1.27,0-1.74-.85-1.74-2s.65-2,1.61-2c1.08,0,1.52.87,1.52,1.9v.24h-2.62c0,.81.44,1.46,1.26,1.46.35,0,.85-.14,1.07-.29v.48h.01ZM89.05,27.53c0-.67-.27-1.33-.98-1.33s-1.13.7-1.13,1.33h2.11Z"/>
      <path class="st0" d="M93.56,29.05c.31.2.67.31,1.15.31.65,0,1.18-.33,1.18-1.07,0-1.03-2.4-1.16-2.4-2.53,0-.84.74-1.37,1.66-1.37.26,0,.67.04,1.03.17l-.08.47c-.23-.13-.6-.2-.95-.2-.54,0-1.13.23-1.13.9,0,1.05,2.4,1.06,2.4,2.59,0,1.06-.91,1.48-1.72,1.48-.51,0-.91-.1-1.19-.23l.05-.53h0Z"/>
      <path class="st0" d="M99.31,29.71h-.55l-1.3-3.83h.52l1.06,3.31h0l1.11-3.31h.49l-1.34,3.83Z"/>
      <path class="st0" d="M102.37,24.87h-.47v-.63h.47v.63ZM101.9,25.89h.47v3.83h-.47v-3.83Z"/>
      <path class="st0" d="M103.8,29.32l2.3-3.02h-2.21v-.4h2.76v.4l-2.3,3.02h2.3v.4h-2.85v-.4h0Z"/>
      <path class="st0" d="M107.72,29.32l2.3-3.02h-2.21v-.4h2.76v.4l-2.3,3.02h2.3v.4h-2.85v-.4h0Z"/>
      <path class="st0" d="M114.55,29.59c-.33.13-.76.21-1.11.21-1.27,0-1.74-.85-1.74-2s.65-2,1.61-2c1.08,0,1.52.87,1.52,1.9v.24h-2.62c0,.81.44,1.46,1.26,1.46.35,0,.85-.14,1.07-.29v.48h0ZM114.32,27.53c0-.67-.27-1.33-.98-1.33s-1.13.7-1.13,1.33h2.11Z"/>
      <path class="st0" d="M116.32,26.74c0-.42,0-.58-.03-.86h.47v.74h0c.17-.43.5-.82.98-.82.11,0,.25.02.33.04v.5c-.1-.03-.23-.04-.35-.04-.75,0-.95.84-.95,1.53v1.89h-.47v-2.97h.01Z"/>
      <path class="st0" d="M121.6,29.1h0c-.21.46-.74.71-1.22.71-1.09,0-1.26-.74-1.26-1.08,0-1.28,1.37-1.34,2.36-1.34h.09v-.2c0-.65-.23-.98-.87-.98-.4,0-.77.09-1.13.32v-.46c.29-.14.79-.26,1.13-.26.95,0,1.34.43,1.34,1.43v1.69c0,.31,0,.54.04.8h-.46v-.63ZM121.56,27.78h-.13c-.82,0-1.79.08-1.79.92,0,.5.36.69.79.69,1.11,0,1.13-.97,1.13-1.38,0,0,0-.23,0-.23Z"/>
      <path class="st0" d="M35.82,35.41c-.33-.17-.8-.23-1.17-.23-1.36,0-2.12.96-2.12,2.26s.74,2.26,2.12,2.26c.35,0,.87-.04,1.17-.23l.03.45c-.29.17-.87.23-1.2.23-1.65,0-2.64-1.09-2.64-2.71s1.02-2.71,2.64-2.71c.31,0,.93.05,1.2.2l-.03.48Z"/>
      <path class="st0" d="M39.07,36.15c1.24,0,1.79.96,1.79,2s-.55,2-1.79,2-1.79-.96-1.79-2,.55-2,1.79-2ZM39.07,39.75c.83,0,1.27-.71,1.27-1.6s-.44-1.6-1.27-1.6-1.27.71-1.27,1.6.44,1.6,1.27,1.6Z"/>
      <path class="st0" d="M42.34,37.14c0-.29,0-.59-.03-.9h.46v.68h.01c.16-.35.44-.77,1.24-.77.95,0,1.31.63,1.31,1.47v2.45h-.47v-2.33c0-.72-.25-1.19-.91-1.19-.86,0-1.13.76-1.13,1.4v2.12h-.47v-2.93h0Z"/>
      <path class="st0" d="M47.42,36.64h-.77v-.4h.77v-.28c0-.8.03-1.61,1.01-1.61.15,0,.35.02.44.07l-.03.41c-.1-.05-.24-.08-.38-.08-.64,0-.58.7-.58,1.15v.33h.86v.4h-.86v3.42h-.47v-3.42h0Z"/>
      <path class="st0" d="M52.74,39.94c-.33.13-.76.21-1.11.21-1.27,0-1.74-.85-1.74-2s.65-2,1.61-2c1.08,0,1.52.87,1.52,1.9v.24h-2.62c0,.81.44,1.46,1.26,1.46.35,0,.85-.14,1.07-.29v.48h.01ZM52.51,37.88c0-.67-.27-1.33-.97-1.33s-1.13.7-1.13,1.33h2.1Z"/>
      <path class="st0" d="M57.55,40.06h-.47v-.61h-.01c-.25.49-.65.7-1.19.7-1.05,0-1.58-.87-1.58-2s.45-2,1.58-2c.75,0,1.13.55,1.19.74h.01v-2.45h.47v5.63h0ZM55.94,39.75c.84,0,1.13-.9,1.13-1.6s-.29-1.6-1.13-1.6c-.9,0-1.13.85-1.13,1.6s.23,1.6,1.13,1.6Z"/>
      <path class="st0" d="M61.84,39.94c-.33.13-.76.21-1.11.21-1.27,0-1.74-.85-1.74-2s.65-2,1.61-2c1.08,0,1.52.87,1.52,1.9v.24h-2.62c0,.81.44,1.46,1.26,1.46.35,0,.85-.14,1.07-.29v.48h.01ZM61.61,37.88c0-.67-.27-1.33-.97-1.33s-1.13.7-1.13,1.33h2.1Z"/>
      <path class="st0" d="M63.61,37.09c0-.42,0-.58-.03-.85h.47v.74h.01c.17-.43.5-.82.98-.82.11,0,.25.02.33.04v.5c-.1-.03-.22-.04-.35-.04-.75,0-.95.84-.95,1.53v1.89h-.47v-2.99Z"/>
      <path class="st0" d="M68.89,39.45h-.01c-.21.46-.74.71-1.22.71-1.09,0-1.26-.74-1.26-1.08,0-1.28,1.37-1.34,2.36-1.34h.09v-.2c0-.65-.23-.98-.87-.98-.4,0-.77.09-1.13.32v-.46c.29-.14.79-.26,1.13-.26.94,0,1.34.43,1.34,1.43v1.69c0,.31,0,.54.04.8h-.46v-.63ZM68.85,38.13h-.14c-.82,0-1.79.08-1.79.92,0,.5.36.69.79.69,1.11,0,1.13-.97,1.13-1.38v-.23h.01Z"/>
      <path class="st0" d="M70.68,39.67l2.3-3.02h-2.21v-.4h2.76v.4l-2.3,3.02h2.3v.4h-2.85s0-.4,0-.4Z"/>
      <path class="st0" d="M75.42,35.22h-.47v-.63h.47v.63ZM74.95,36.24h.47v3.83h-.47s0-3.83,0-3.83Z"/>
      <path class="st0" d="M80.18,39.16c0,.29,0,.59.03.9h-.46v-.68h-.01c-.16.35-.44.77-1.24.77-.95,0-1.31-.63-1.31-1.47v-2.45h.47v2.33c0,.72.26,1.19.91,1.19.86,0,1.13-.76,1.13-1.4v-2.12h.47v2.93h0Z"/>
      <path class="st0" d="M81.96,37.14c0-.29,0-.59-.03-.9h.46v.68h.01c.16-.35.44-.77,1.24-.77.95,0,1.31.63,1.31,1.47v2.45h-.47v-2.33c0-.72-.26-1.19-.91-1.19-.86,0-1.13.76-1.13,1.4v2.12h-.47v-2.93h0Z"/>
      <path class="st0" d="M89.02,39.51c.29.14.63.24,1,.24.45,0,.85-.25.85-.68,0-.91-1.84-.76-1.84-1.88,0-.76.62-1.04,1.25-1.04.2,0,.61.04.95.17l-.04.41c-.25-.11-.59-.18-.85-.18-.49,0-.83.15-.83.64,0,.71,1.88.62,1.88,1.88,0,.81-.76,1.09-1.34,1.09-.37,0-.74-.04-1.07-.18l.05-.47h-.01Z"/>
      <path class="st0" d="M94.14,40.06h-.55l-1.3-3.83h.52l1.06,3.31h0l1.11-3.31h.49s-1.34,3.83-1.34,3.83Z"/>
      <path class="st0" d="M97.2,35.22h-.47v-.63h.47v.63ZM96.73,36.24h.47v3.83h-.47s0-3.83,0-3.83Z"/>
      <path class="st0" d="M98.63,39.67l2.3-3.02h-2.21v-.4h2.76v.4l-2.3,3.02h2.3v.4h-2.85v-.4h0Z"/>
      <path class="st0" d="M102.9,37.09c0-.42,0-.58-.03-.85h.47v.74h0c.17-.43.5-.82.98-.82.11,0,.25.02.33.04v.5c-.1-.03-.23-.04-.35-.04-.75,0-.95.84-.95,1.53v1.89h-.47v-2.99Z"/>
      <path class="st0" d="M108.18,39.45h0c-.21.46-.74.71-1.22.71-1.09,0-1.26-.74-1.26-1.08,0-1.28,1.37-1.34,2.36-1.34h.09v-.2c0-.65-.23-.98-.87-.98-.4,0-.77.09-1.12.32v-.46c.29-.14.79-.26,1.12-.26.95,0,1.34.43,1.34,1.43v1.69c0,.31,0,.54.04.8h-.46v-.63ZM108.14,38.13h-.13c-.82,0-1.79.08-1.79.92,0,.5.36.69.79.69,1.11,0,1.13-.97,1.13-1.38v-.23h0Z"/>
    </g>
    <path class="st1" d="M23.5,3.55s-3.97-1.74-10.61-1.74h0C6.24,1.81,2.28,3.55,2.28,3.55c0,0-.35,7.7,1.15,12.05,2.66,7.65,9.46,9.8,9.46,9.8h0s6.8-2.15,9.46-9.8c1.51-4.35,1.15-12.05,1.15-12.05Z"/>
    <polygon class="st0" points="19.94 10.18 19.94 14.42 14.99 14.42 14.99 19.37 10.75 19.37 10.75 14.42 5.8 14.42 5.8 10.18 10.75 10.18 10.75 5.24 14.99 5.24 14.99 10.18 19.94 10.18"/>
  </g>
  <g>
    <path class="st0" d="M32.22,55.53h1.3c.93,0,1.6.25,2.02.73.4.48.61,1.1.6,1.88-.01.93-.29,1.61-.85,2.02-.55.4-1.27.61-2.15.61h-.91v-5.24h0ZM32.74,60.31h.43c1.6.04,2.41-.7,2.45-2.21-.01-.79-.21-1.35-.61-1.67-.4-.31-.91-.46-1.51-.46h-.76v4.34h0Z"/>
    <path class="st0" d="M40.37,60.64c-.36.13-.73.21-1.11.21-.62,0-1.07-.2-1.34-.58-.27-.37-.4-.84-.4-1.43s.15-1.08.45-1.45c.29-.37.67-.55,1.16-.55.54,0,.93.2,1.17.56s.35.8.35,1.34v.24h-2.62c0,.41.11.76.32,1.03.21.29.52.43.94.43.18,0,.38-.03.58-.1.21-.05.37-.12.49-.19v.48h.01ZM40.13,58.58c0-.35-.07-.65-.22-.91s-.41-.4-.76-.41c-.35,0-.62.15-.82.42-.21.27-.31.57-.31.91h2.11Z"/>
    <path class="st0" d="M42.09,56.94h.47l-.03.7h.01c.03-.05.07-.13.14-.23.06-.09.13-.17.22-.26s.21-.16.35-.23c.14-.05.31-.08.51-.08.56,0,.96.19,1.21.56.24.37.36.85.36,1.44s-.13,1.05-.39,1.43-.66.57-1.18.58c-.58,0-.98-.25-1.19-.74h-.01v2.23h-.47s0-5.4,0-5.4ZM44.83,58.85c0-.19-.01-.38-.04-.57-.04-.19-.1-.36-.19-.51-.08-.16-.19-.29-.35-.38-.15-.1-.34-.14-.56-.14s-.39.05-.53.14c-.14.1-.26.23-.35.39-.09.16-.15.33-.19.51-.04.19-.07.38-.07.55,0,.37.08.72.25,1.06.09.16.21.29.35.38.14.1.32.16.53.16s.41-.05.56-.16c.15-.1.26-.22.35-.37.09-.16.15-.34.19-.52.03-.18.04-.37.04-.55h.01Z"/>
    <path class="st0" d="M49.09,60.14h-.01c-.11.23-.28.4-.5.52-.22.12-.46.18-.71.19-.26,0-.48-.05-.64-.13-.17-.07-.3-.17-.39-.29-.16-.25-.24-.47-.22-.67,0-.32.08-.57.23-.76.15-.18.34-.32.58-.4.24-.09.49-.14.76-.16.27-.01.53-.02.78-.02h.09v-.2c.01-.65-.28-.98-.87-.98-.39,0-.77.1-1.12.32v-.45c.36-.17.73-.26,1.12-.27.9,0,1.35.46,1.34,1.43v1.69c0,.29,0,.56.04.8h-.46v-.62h-.02ZM49.04,58.83h-.14c-.21,0-.41,0-.61.01-.21.02-.41.06-.58.13-.18.06-.32.15-.42.28-.11.12-.17.29-.17.5,0,.24.08.42.24.52.15.11.33.16.56.16.28,0,.49-.05.65-.16.15-.1.27-.23.34-.38.07-.15.12-.31.13-.46.01-.15.01-.28.01-.38v-.23h0Z"/>
    <path class="st0" d="M51.23,57.79c0-.35-.01-.64-.03-.85h.47v.74h.01c.09-.23.22-.42.38-.58.16-.16.36-.24.6-.25.12,0,.24.02.33.04v.49c-.11-.03-.22-.04-.35-.04-.18,0-.34.05-.46.13-.12.09-.22.21-.29.37-.07.15-.12.31-.15.49-.04.18-.05.37-.05.54v1.89h-.47v-2.97h.01Z"/>
    <path class="st0" d="M55.96,57.34h-.87v2.48c0,.18.04.32.12.44.07.12.21.19.39.19.17,0,.32-.03.43-.09l.03.39c-.06.02-.13.04-.23.07-.11.02-.22.04-.35.04-.21,0-.37-.04-.49-.1-.11-.07-.2-.16-.26-.28-.05-.12-.08-.26-.1-.4s-.02-.31-.02-.49v-2.24h-.75v-.4h.75v-.92l.47-.16v1.09h.87v.4h0v-.02Z"/>
    <path class="st0" d="M59.59,60.14h-.01c-.11.23-.28.4-.5.52-.22.12-.46.18-.71.19-.26,0-.48-.05-.64-.13-.17-.07-.3-.17-.39-.29-.16-.25-.24-.47-.22-.67,0-.32.08-.57.23-.76.15-.18.34-.32.58-.4.24-.09.49-.14.76-.16.27-.01.53-.02.78-.02h.09v-.2c.01-.65-.28-.98-.87-.98-.39,0-.77.1-1.12.32v-.45c.36-.17.73-.26,1.12-.27.9,0,1.35.46,1.34,1.43v1.69c0,.29,0,.56.04.8h-.46v-.62h-.02ZM59.54,58.83h-.14c-.21,0-.41,0-.61.01-.21.02-.41.06-.58.13-.18.06-.32.15-.42.28-.11.12-.17.29-.17.5,0,.24.08.42.24.52.15.11.33.16.56.16.28,0,.49-.05.65-.16.15-.1.27-.23.34-.38.07-.15.12-.31.13-.46.01-.15.01-.28.01-.38v-.23h0Z"/>
    <path class="st0" d="M66.35,60.76v-2.54c0-.14-.01-.27-.03-.39-.03-.12-.08-.21-.14-.3-.06-.09-.14-.16-.25-.21-.11-.04-.24-.07-.39-.07-.26,0-.5.11-.71.33-.21.23-.32.59-.32,1.07v2.12h-.47v-2.54c0-.14-.01-.27-.03-.39-.03-.12-.08-.21-.14-.3-.06-.09-.14-.16-.25-.21-.11-.04-.24-.07-.39-.07-.26,0-.5.11-.71.33-.21.23-.32.59-.32,1.07v2.12h-.47v-2.93c0-.29-.01-.6-.03-.9h.46v.65h.01c.04-.06.08-.14.14-.22.05-.09.12-.16.21-.24.09-.07.2-.14.34-.2.14-.05.3-.07.5-.07.09,0,.19,0,.29.03.1.02.2.06.3.12.1.05.19.13.26.24s.13.25.16.42h.01c.1-.23.25-.42.46-.58.21-.15.46-.23.76-.23.39,0,.69.12.9.36.21.23.31.54.31.92v2.63h-.47v-.02Z"/>
    <path class="st0" d="M71.12,60.64c-.36.13-.73.21-1.11.21-.62,0-1.07-.2-1.34-.58-.27-.37-.4-.84-.4-1.43s.15-1.08.45-1.45c.29-.37.67-.55,1.16-.55.54,0,.93.2,1.17.56s.35.8.35,1.34v.24h-2.62c0,.41.11.76.32,1.03.21.29.52.43.94.43.18,0,.38-.03.58-.1.21-.05.37-.12.49-.19v.48h.01ZM70.89,58.58c0-.35-.07-.65-.22-.91s-.41-.4-.76-.41c-.35,0-.62.15-.82.42-.21.27-.31.57-.31.91h2.11Z"/>
    <path class="st0" d="M72.89,57.84c0-.29-.01-.6-.03-.9h.46v.68h.01c.04-.09.1-.18.16-.27.06-.09.14-.17.22-.25.1-.08.21-.14.35-.19s.31-.07.5-.07c.47,0,.81.15,1.01.42.2.27.29.62.29,1.05v2.45h-.47v-2.32c0-.37-.07-.65-.2-.87-.15-.21-.38-.31-.71-.32-.42,0-.71.16-.88.45-.09.13-.15.28-.19.44s-.06.33-.06.5v2.12h-.47v-2.92h0Z"/>
    <path class="st0" d="M79.3,57.34h-.87v2.48c0,.18.04.32.12.44.07.12.21.19.39.19.17,0,.32-.03.43-.09l.03.39c-.05.02-.13.04-.23.07-.1.02-.22.04-.35.04-.21,0-.37-.04-.49-.1-.12-.07-.2-.16-.26-.28-.05-.12-.08-.26-.1-.4-.01-.15-.02-.31-.02-.49v-2.24h-.75v-.4h.75v-.92l.47-.16v1.09h.87v.4h0v-.02Z"/>
    <path class="st0" d="M83.72,57.34h-.77v-.4h.77v-.28c0-.21,0-.4.03-.6,0-.19.05-.36.11-.51.07-.15.17-.28.31-.37.13-.09.32-.13.56-.13h.25c.09.01.15.04.2.07l-.03.4c-.1-.05-.23-.07-.38-.07s-.27.04-.35.1c-.09.08-.14.18-.17.29-.03.12-.04.24-.04.37v.72h.86v.4h-.86v3.42h-.47v-3.42h-.02Z"/>
    <path class="st0" d="M89.05,60.64c-.36.13-.73.21-1.11.21-.62,0-1.07-.2-1.34-.58-.27-.37-.4-.84-.4-1.43s.15-1.08.45-1.45c.29-.37.67-.55,1.16-.55.54,0,.93.2,1.17.56s.35.8.35,1.34v.24h-2.62c0,.41.11.76.32,1.03.21.29.52.43.94.43.18,0,.38-.03.59-.1.21-.05.37-.12.49-.19v.48h0ZM88.82,58.58c0-.35-.07-.65-.22-.91s-.41-.4-.76-.41c-.35,0-.62.15-.82.42-.21.27-.31.57-.31.91h2.11Z"/>
    <path class="st0" d="M93.85,60.76h-.47v-.61h-.01c-.25.47-.65.7-1.19.7s-.92-.2-1.18-.58c-.26-.38-.4-.85-.4-1.43s.12-1.07.37-1.44.65-.56,1.21-.56c.19,0,.35.03.49.08.15.05.26.12.36.21.2.18.31.32.34.44h.01v-2.45h.47v5.62h0v.02ZM91.11,58.85c0,.18.02.36.05.55.04.19.1.37.18.52.09.15.21.27.35.37.14.1.32.16.55.16.21,0,.39-.05.54-.16.14-.1.26-.22.35-.38.17-.34.25-.69.25-1.06,0-.18-.02-.37-.05-.55-.04-.18-.1-.35-.2-.51-.09-.16-.21-.29-.35-.39-.15-.1-.33-.14-.54-.14-.23,0-.41.05-.55.14-.15.09-.26.21-.35.38-.08.15-.14.32-.18.51s-.05.38-.05.57h0Z"/>
    <path class="st0" d="M98.14,60.64c-.36.13-.73.21-1.11.21-.62,0-1.07-.2-1.34-.58-.27-.37-.4-.84-.4-1.43s.15-1.08.45-1.45c.29-.37.67-.55,1.16-.55.54,0,.93.2,1.17.56s.35.8.35,1.34v.24h-2.62c0,.41.11.76.32,1.03.21.29.52.43.94.43.18,0,.38-.03.59-.1.21-.05.37-.12.49-.19v.48h0ZM97.91,58.58c0-.35-.07-.65-.22-.91s-.41-.4-.76-.41c-.35,0-.62.15-.82.42-.21.27-.31.57-.31.91h2.11Z"/>
    <path class="st0" d="M99.91,57.79c0-.35,0-.64-.03-.85h.47v.74h0c.09-.23.22-.42.38-.58s.36-.24.6-.25c.12,0,.24.02.33.04v.49c-.1-.03-.22-.04-.35-.04-.18,0-.34.05-.46.13-.12.09-.22.21-.29.37-.07.15-.12.31-.15.49-.04.18-.05.37-.05.54v1.89h-.47v-2.97h0Z"/>
    <path class="st0" d="M105.19,60.14h0c-.11.23-.28.4-.5.52-.23.12-.46.18-.71.19-.26,0-.48-.05-.65-.13-.17-.07-.3-.17-.39-.29-.16-.25-.24-.47-.23-.67,0-.32.08-.57.23-.76.15-.18.34-.32.58-.4.24-.09.49-.14.76-.16.27-.01.53-.02.78-.02h.09v-.2c0-.65-.27-.98-.87-.98-.4,0-.77.1-1.12.32v-.45c.35-.17.73-.26,1.12-.27.9,0,1.35.46,1.34,1.43v1.69c0,.29,0,.56.04.8h-.46v-.62h0ZM105.14,58.83h-.13c-.21,0-.41,0-.62.01-.21.02-.41.06-.59.13-.18.06-.32.15-.42.28-.12.12-.17.29-.17.5,0,.24.08.42.24.52.15.11.34.16.55.16.27,0,.49-.05.65-.16.15-.1.27-.23.34-.38.07-.15.12-.31.13-.46,0-.15,0-.28,0-.38v-.23h0Z"/>
    <path class="st0" d="M107.33,55.14h.47v5.62h-.47v-5.62Z"/>
    <path class="st0" d="M115.28,60.76h-.47v-.61h0c-.25.47-.65.7-1.19.7s-.92-.2-1.18-.58c-.26-.38-.4-.85-.4-1.43s.12-1.07.37-1.44.65-.56,1.21-.56c.19,0,.35.03.49.08.15.05.26.12.36.21.2.18.31.32.34.44h0v-2.45h.47v5.62h0v.02ZM112.54,58.85c0,.18.02.36.05.55.04.19.1.37.18.52.09.15.21.27.35.37.14.1.32.16.55.16.21,0,.39-.05.54-.16.14-.1.26-.22.35-.38.17-.34.25-.69.25-1.06,0-.18-.02-.37-.05-.55-.04-.18-.1-.35-.2-.51-.09-.16-.21-.29-.35-.39-.15-.1-.33-.14-.54-.14-.23,0-.41.05-.55.14-.15.09-.26.21-.35.38-.08.15-.14.32-.18.51s-.05.38-.05.57h0Z"/>
    <path class="st0" d="M119.2,60.14h0c-.11.23-.28.4-.5.52-.23.12-.46.18-.71.19-.26,0-.48-.05-.65-.13-.17-.07-.3-.17-.39-.29-.16-.25-.24-.47-.23-.67,0-.32.08-.57.23-.76.15-.18.34-.32.58-.4.24-.09.49-.14.76-.16.27-.01.53-.02.78-.02h.09v-.2c0-.65-.27-.98-.87-.98-.4,0-.77.1-1.12.32v-.45c.35-.17.73-.26,1.12-.27.9,0,1.35.46,1.34,1.43v1.69c0,.29,0,.56.04.8h-.46v-.62h0ZM119.15,58.83h-.13c-.21,0-.41,0-.62.01-.21.02-.41.06-.59.13-.18.06-.32.15-.42.28-.12.12-.17.29-.17.5,0,.24.08.42.24.52.15.11.34.16.55.16.27,0,.49-.05.65-.16.15-.1.27-.23.34-.38.07-.15.12-.31.13-.46,0-.15,0-.28,0-.38v-.23h0Z"/>
    <path class="st0" d="M124.33,57.34h-.77v-.4h.77v-.28c0-.21,0-.4.03-.6,0-.19.05-.36.11-.51.07-.15.17-.28.31-.37.13-.09.32-.13.56-.13h.25c.09.01.15.04.2.07l-.03.4c-.1-.05-.23-.07-.38-.07s-.27.04-.35.1c-.09.08-.14.18-.17.29-.03.12-.04.24-.04.37v.72h.86v.4h-.86v3.42h-.47v-3.42h-.02ZM126.91,55.91h-.47v-.63h.47v.63ZM126.44,56.94h.47v3.82h-.47v-3.82Z"/>
    <path class="st0" d="M128.76,57.84c0-.29,0-.6-.03-.9h.46v.68h0c.04-.09.1-.18.16-.27s.13-.17.23-.25c.1-.08.21-.14.35-.19s.31-.07.5-.07c.47,0,.81.15,1.01.42s.29.62.29,1.05v2.45h-.47v-2.32c0-.37-.07-.65-.2-.87-.15-.21-.38-.31-.71-.32-.42,0-.71.16-.88.45-.09.13-.15.28-.19.44-.04.16-.06.33-.06.5v2.12h-.47v-2.92h0Z"/>
    <path class="st0" d="M135.71,60.14h0c-.11.23-.28.4-.5.52-.23.12-.46.18-.71.19-.26,0-.48-.05-.65-.13-.17-.07-.3-.17-.39-.29-.16-.25-.24-.47-.23-.67,0-.32.08-.57.23-.76.15-.18.34-.32.58-.4.24-.09.49-.14.76-.16.27-.01.53-.02.78-.02h.09v-.2c0-.65-.27-.98-.87-.98-.4,0-.77.1-1.12.32v-.45c.35-.17.73-.26,1.12-.27.9,0,1.35.46,1.34,1.43v1.69c0,.29,0,.56.04.8h-.46v-.62h0ZM135.67,58.83h-.13c-.21,0-.41,0-.62.01-.21.02-.41.06-.59.13-.18.06-.32.15-.42.28-.12.12-.17.29-.17.5,0,.24.08.42.24.52.15.11.34.16.55.16.27,0,.49-.05.65-.16.15-.1.27-.23.34-.38.07-.15.12-.31.13-.46,0-.15,0-.28,0-.38v-.23h0Z"/>
    <path class="st0" d="M137.85,57.84c0-.29,0-.6-.03-.9h.46v.68h0c.04-.09.1-.18.16-.27s.13-.17.23-.25c.1-.08.21-.14.35-.19s.31-.07.5-.07c.47,0,.81.15,1.01.42s.29.62.29,1.05v2.45h-.47v-2.32c0-.37-.07-.65-.2-.87-.15-.21-.38-.31-.71-.32-.42,0-.71.16-.88.45-.09.13-.15.28-.19.44-.04.16-.06.33-.06.5v2.12h-.47v-2.92h0Z"/>
    <path class="st0" d="M142.25,60.36l2.3-3.02h-2.21v-.4h2.76v.4l-2.3,3.01h2.3v.4h-2.85v-.4h0Z"/>
    <path class="st0" d="M148.72,60.14h0c-.11.23-.28.4-.5.52-.23.12-.46.18-.71.19-.26,0-.48-.05-.65-.13-.17-.07-.3-.17-.39-.29-.16-.25-.24-.47-.23-.67,0-.32.08-.57.23-.76.15-.18.34-.32.58-.4.24-.09.49-.14.76-.16.27-.01.53-.02.78-.02h.09v-.2c0-.65-.27-.98-.87-.98-.4,0-.77.1-1.12.32v-.45c.35-.17.73-.26,1.12-.27.9,0,1.35.46,1.34,1.43v1.69c0,.29,0,.56.04.8h-.46v-.62h0ZM148.67,58.83h-.13c-.21,0-.41,0-.62.01-.21.02-.41.06-.59.13-.18.06-.32.15-.42.28-.12.12-.17.29-.17.5,0,.24.08.42.24.52.15.11.34.16.55.16.27,0,.49-.05.65-.16.15-.1.27-.23.34-.38.07-.15.12-.31.13-.46,0-.15,0-.28,0-.38v-.23h0Z"/>
    <path class="st0" d="M151.56,60.45c.24,0,.43-.06.6-.19.16-.12.24-.28.25-.49,0-.23-.1-.4-.28-.53-.18-.12-.39-.24-.64-.34-.12-.05-.23-.11-.33-.17s-.21-.13-.3-.2c-.09-.08-.15-.17-.21-.28-.05-.1-.08-.22-.08-.35,0-.38.13-.65.39-.81.24-.15.53-.23.85-.23.11,0,.25,0,.43.03s.35.08.52.15l-.04.4c-.27-.12-.56-.18-.85-.18-.24,0-.44.04-.59.13-.07.04-.13.11-.17.19s-.07.18-.07.31c0,.08.03.15.08.22.05.06.13.12.22.18.09.05.19.1.31.16.12.05.23.1.34.17.25.1.47.25.65.42s.28.42.29.73c0,.2-.04.37-.12.5-.09.14-.19.25-.32.34-.28.17-.58.25-.89.25-.37,0-.73-.06-1.07-.18l.04-.46c.29.15.62.23,1,.24h0Z"/>
    <path class="st0" d="M157.04,55.53h1.3c.93,0,1.6.25,2.02.73.4.48.6,1.1.6,1.88,0,.93-.29,1.61-.85,2.02-.55.4-1.27.61-2.15.61h-.91v-5.24h-.01ZM157.55,60.31h.43c1.6.04,2.41-.7,2.45-2.21,0-.79-.21-1.35-.62-1.67-.4-.31-.91-.46-1.51-.46h-.76v4.34h0Z"/>
    <path class="st0" d="M162.6,55.53h2.49v.45h-1.97v1.87h1.88v.45h-1.88v2.47h-.52v-5.23h0Z"/>
    <path class="st0" d="M166.52,55.53h2.49v.45h-1.97v1.87h1.88v.45h-1.88v2.47h-.52v-5.23h0Z"/>
    <path class="st0" d="M32.19,65.88h1.05v3.02c0,.45.08.8.25,1.07s.45.41.84.41.68-.14.85-.41c.16-.26.24-.62.24-1.07v-3.02h1.05v3.35c-.02,1.34-.73,2-2.14,1.98-1.4.02-2.12-.64-2.14-1.98v-3.35Z"/>
    <path class="st0" d="M38.03,67.98h-.74v-.74h.74v-.54c0-.4.11-.71.32-.95s.51-.35.91-.36c.28,0,.52.03.74.08l-.08.83s-.1-.07-.17-.1c-.07-.02-.15-.04-.27-.04-.17,0-.28.07-.35.18-.07.12-.1.26-.1.41v.48h.88v.74h-.88v3.13h-1v-3.13h0Z"/>
    <path class="st0" d="M40.93,67.98h-.74v-.74h.74v-.54c0-.4.11-.71.32-.95s.51-.35.91-.36c.28,0,.52.03.74.08l-.08.83s-.1-.07-.17-.1c-.07-.02-.15-.04-.27-.04-.17,0-.28.07-.35.18-.07.12-.1.26-.1.41v.48h.88v.74h-.88v3.13h-1v-3.13h0ZM43.49,65.58h1v.96h-1v-.96ZM43.49,67.25h1v3.86h-1v-3.86Z"/>
    <path class="st0" d="M45.51,67.25h3.06v.82l-1.92,2.26h1.99v.78h-3.21v-.82l1.96-2.26h-1.88v-.78Z"/>
    <path class="st0" d="M49.56,65.58h1v.96h-1v-.96ZM49.56,67.25h1v3.86h-1v-3.86Z"/>
    <path class="st0" d="M54.3,67.98h-.74v-.74h.74v-.54c0-.4.11-.71.32-.95s.51-.35.91-.36c.28,0,.52.03.74.08l-.08.83s-.1-.07-.17-.1c-.07-.02-.15-.04-.27-.04-.17,0-.28.07-.35.18-.07.12-.1.26-.1.41v.48h.88v.74h-.88v3.13h-1v-3.13h0Z"/>
    <path class="st0" d="M60.06,70.89c-.36.21-.8.31-1.33.31-1.33-.02-2-.69-2.02-2,0-.57.15-1.06.45-1.45.3-.38.75-.58,1.34-.59.71,0,1.19.22,1.46.65.25.43.38.99.38,1.68h-2.67c.03.31.14.55.34.71.2.18.46.26.76.26.25,0,.47-.04.69-.12.21-.07.41-.16.59-.27v.82h.01ZM59.39,68.8c-.01-.26-.08-.47-.2-.64-.13-.18-.33-.26-.61-.27-.28,0-.49.09-.64.26-.15.17-.24.39-.25.65h1.71-.01Z"/>
    <path class="st0" d="M63.82,70.68h-.01c-.31.35-.71.53-1.18.52-.58,0-1-.22-1.25-.62s-.37-.87-.37-1.41.12-1.02.37-1.41c.25-.39.67-.59,1.25-.6.49,0,.87.18,1.15.54h.01v-2.21h1v5.62h-.97s0-.43,0-.43ZM62.05,69.17c0,.28.06.55.18.82.07.12.15.22.26.3.11.09.24.13.4.13.18,0,.32-.04.43-.13.11-.08.21-.18.27-.3.07-.12.12-.26.15-.4.03-.15.04-.29.04-.42,0-.29-.07-.56-.2-.82-.07-.12-.17-.23-.28-.3s-.25-.11-.42-.11c-.32,0-.54.15-.66.41-.06.12-.1.25-.13.4s-.05.28-.05.42h0Z"/>
    <path class="st0" d="M69.04,70.89c-.36.21-.8.31-1.33.31-1.33-.02-2-.69-2.02-2,0-.57.15-1.06.45-1.45.3-.38.75-.58,1.34-.59.71,0,1.19.22,1.46.65.25.43.38.99.38,1.68h-2.67c.03.31.14.55.34.71.2.18.46.26.76.26.25,0,.47-.04.69-.12.21-.07.41-.16.59-.27v.82h.01ZM68.36,68.8c-.01-.26-.08-.47-.2-.64-.13-.18-.33-.26-.61-.27-.28,0-.49.09-.64.26-.15.17-.24.39-.25.65h1.71-.01Z"/>
    <path class="st0" d="M70.25,67.25h.89v.88h.01c.03-.2.14-.41.33-.62.18-.22.43-.34.73-.35.1,0,.2,0,.31.03v1.01c-.11-.05-.25-.08-.45-.08s-.36.05-.46.16c-.11.1-.19.24-.25.41-.05.16-.08.33-.09.51-.01.18-.01.34-.01.49v1.42h-1v-3.86h-.01Z"/>
    <path class="st0" d="M73.43,67.45c.43-.19.88-.29,1.34-.29,1.12-.01,1.68.53,1.66,1.63v.49c0,.38,0,.7.01.97,0,.29.02.57.04.86h-.88c-.03-.24-.04-.43-.04-.58h-.01c-.12.21-.29.37-.5.49-.22.12-.45.18-.69.18-.35,0-.66-.1-.92-.3-.28-.2-.42-.48-.43-.85,0-.29.07-.52.19-.71.12-.18.28-.31.46-.4.2-.1.41-.16.64-.19.23-.02.45-.04.66-.04h.55c0-.31-.07-.53-.21-.65s-.36-.18-.66-.18c-.44,0-.84.15-1.19.42l-.03-.86h0ZM73.97,69.99c0,.16.06.28.19.35.12.08.26.12.45.12.31,0,.54-.12.71-.35.15-.23.21-.49.21-.79h-.61c-.06,0-.12,0-.18.01-.13.01-.25.04-.37.09-.12.04-.21.11-.28.2-.08.09-.12.21-.12.36h0Z"/>
    <path class="st0" d="M77.56,65.49h1.01v5.62h-1.01v-5.62Z"/>
    <path class="st0" d="M84.5,70.68h-.01c-.31.35-.71.53-1.18.52-.59,0-1-.22-1.25-.62s-.37-.87-.37-1.41.12-1.02.37-1.41c.25-.39.67-.59,1.25-.6.49,0,.87.18,1.15.54h.01v-2.21h1.01v5.62h-.98s0-.43,0-.43ZM82.73,69.17c0,.28.05.55.18.82.07.12.15.22.26.3.1.09.24.13.4.13.18,0,.32-.04.43-.13.12-.08.21-.18.27-.3.07-.12.12-.26.15-.4.02-.15.04-.29.04-.42,0-.29-.07-.56-.2-.82-.07-.12-.17-.23-.28-.3-.12-.07-.26-.11-.42-.11-.32,0-.54.15-.66.41-.06.12-.1.25-.13.4s-.05.28-.05.42h0Z"/>
    <path class="st0" d="M86.84,65.88h1.1l-.69,1.88h-.88l.48-1.88h-.01Z"/>
    <path class="st0" d="M88.85,65.58h1.01v.96h-1.01v-.96ZM88.85,67.25h1.01v3.86h-1.01v-3.86Z"/>
    <path class="st0" d="M91.02,67.25h.95v.52h.01c.32-.41.74-.62,1.27-.62.46,0,.79.15,1.01.43.21.28.31.64.31,1.09v2.44h-1.01v-2.44c0-.13-.03-.25-.07-.35-.04-.12-.1-.21-.19-.28-.1-.07-.22-.1-.38-.1-.18,0-.32.04-.43.13s-.2.19-.27.32-.11.27-.13.41c-.03.15-.04.29-.04.42v1.89h-1.01v-3.86h-.02Z"/>
    <path class="st0" d="M96.08,67.98h-.74v-.74h.74v-.54c0-.4.11-.71.32-.95s.51-.35.91-.36c.27,0,.52.03.74.08l-.08.83s-.1-.07-.16-.1c-.07-.02-.15-.04-.27-.04-.16,0-.28.07-.35.18-.07.12-.1.26-.1.41v.48h.88v.74h-.88v3.13h-1.01v-3.13h0Z"/>
    <path class="st0" d="M98.5,69.21c0-.65.2-1.15.59-1.51.38-.35.85-.54,1.43-.54s1.07.18,1.45.54c.38.36.57.86.58,1.51,0,.57-.18,1.04-.52,1.41-.35.38-.85.57-1.5.59-.64,0-1.13-.21-1.49-.59s-.53-.85-.53-1.41h0ZM99.55,69.09c0,.07,0,.15,0,.23,0,.09.02.16.04.24.03.16.08.3.15.43.07.13.18.23.3.31.12.09.27.13.46.13s.36-.04.49-.12c.12-.07.23-.18.3-.31s.12-.27.15-.43c.02-.15.04-.31.04-.47,0-.31-.08-.58-.23-.8-.16-.23-.41-.34-.74-.35-.32,0-.56.12-.72.35-.16.22-.25.49-.25.79h0Z"/>
    <path class="st0" d="M103.46,67.25h.89v.88h0c.03-.2.14-.41.33-.62.18-.22.43-.34.73-.35.1,0,.2,0,.31.03v1.01c-.1-.05-.26-.08-.45-.08s-.35.05-.46.16c-.11.1-.19.24-.25.41-.05.16-.08.33-.09.51,0,.18,0,.34,0,.49v1.42h-1.01v-3.86h0Z"/>
    <path class="st0" d="M106.46,67.25h.94v.54h0c.16-.24.35-.4.55-.49.21-.09.4-.13.59-.13.54,0,.92.22,1.14.68.12-.24.3-.41.52-.52.21-.11.44-.16.68-.16.47,0,.79.15.98.43.17.28.25.64.25,1.09v2.44h-1.01v-2.3c0-.2-.02-.38-.07-.57-.04-.09-.09-.16-.16-.22-.08-.05-.2-.08-.35-.08-.16,0-.29.04-.39.13s-.18.2-.23.33c-.05.13-.08.27-.1.41-.02.15-.03.3-.03.43v1.88h-1.01v-2.3c0-.2-.02-.38-.07-.57-.04-.09-.09-.16-.16-.22-.08-.05-.2-.08-.35-.08-.16,0-.29.04-.39.13s-.18.2-.23.33c-.05.13-.08.27-.1.41-.02.15-.03.3-.03.43v1.88h-1.01v-3.86h0l.03-.04Z"/>
    <path class="st0" d="M113.42,67.45c.43-.19.88-.29,1.34-.29,1.12-.01,1.68.53,1.66,1.63v.49c0,.38,0,.7,0,.97,0,.29.02.57.04.86h-.88c-.03-.24-.04-.43-.04-.58h0c-.12.21-.29.37-.5.49-.22.12-.45.18-.69.18-.35,0-.66-.1-.92-.3-.28-.2-.42-.48-.43-.85,0-.29.07-.52.2-.71.12-.18.27-.31.46-.4.2-.1.41-.16.64-.19.23-.02.45-.04.66-.04h.55c0-.31-.07-.53-.21-.65s-.36-.18-.66-.18c-.44,0-.84.15-1.19.42l-.03-.86h0ZM113.96,69.99c0,.16.06.28.19.35.12.08.26.12.45.12.31,0,.54-.12.71-.35.15-.23.21-.49.21-.79h-.61c-.06,0-.12,0-.18.01-.13.01-.25.04-.37.09-.12.04-.21.11-.28.2-.08.09-.12.21-.12.36h0Z"/>
    <path class="st0" d="M117.86,67.98h-.74v-.74h.74v-.77l1.01-.32v1.1h.89v.74h-.89v1.8c0,.17.03.32.1.43.07.13.19.2.38.2s.34-.04.46-.1l.03.79c-.2.06-.45.09-.74.09-.81-.02-1.22-.44-1.22-1.25v-1.97h-.02Z"/>
    <path class="st0" d="M120.59,65.58h1.01v.96h-1.01v-.96ZM120.59,67.25h1.01v3.86h-1.01v-3.86Z"/>
    <path class="st0" d="M125.27,68.08c-.09-.04-.18-.08-.29-.1s-.24-.04-.4-.04c-.31,0-.55.12-.74.33-.19.22-.29.52-.29.89s.09.66.26.89c.17.24.43.36.78.37.15,0,.29-.02.43-.07.14-.04.25-.07.34-.11l.04.83c-.14.04-.29.07-.45.09s-.35.04-.55.04c-.63,0-1.1-.2-1.42-.59-.32-.38-.49-.86-.49-1.46s.16-1.05.49-1.43c.32-.38.78-.57,1.38-.58.39,0,.71.04.98.13l-.09.8h.02Z"/>
    <path class="st0" d="M126.37,67.45c.43-.19.88-.29,1.34-.29,1.12-.01,1.68.53,1.66,1.63v.49c0,.38,0,.7,0,.97,0,.29.02.57.04.86h-.88c-.03-.24-.04-.43-.04-.58h0c-.12.21-.29.37-.5.49-.22.12-.45.18-.69.18-.35,0-.66-.1-.92-.3-.28-.2-.42-.48-.43-.85,0-.29.07-.52.2-.71.12-.18.27-.31.46-.4.2-.1.41-.16.64-.19.23-.02.45-.04.66-.04h.55c0-.31-.07-.53-.21-.65s-.36-.18-.66-.18c-.44,0-.84.15-1.19.42l-.03-.86h0ZM126.92,69.99c0,.16.06.28.19.35.12.08.26.12.45.12.31,0,.54-.12.71-.35.15-.23.21-.49.21-.79h-.61c-.06,0-.12,0-.18.01-.13.01-.25.04-.37.09-.12.04-.21.11-.28.2-.08.09-.12.21-.12.36h0Z"/>
    <path class="st0" d="M35.24,81.24c-.36.21-.8.31-1.33.31-1.33-.02-2-.69-2.02-2,0-.57.15-1.06.45-1.45.3-.38.75-.58,1.34-.59.71,0,1.19.22,1.46.65.25.43.38.99.38,1.68h-2.67c.03.31.14.55.34.71.2.18.46.26.76.26.25,0,.47-.04.69-.12.21-.07.41-.16.59-.27v.82h.01ZM34.56,79.15c-.01-.26-.08-.47-.2-.64-.13-.18-.33-.26-.61-.27-.28,0-.49.09-.64.26-.15.17-.24.39-.25.65h1.71-.01Z"/>
    <path class="st0" d="M41.19,81.03h-.01c-.31.35-.71.53-1.18.52-.58,0-1-.22-1.25-.62s-.37-.87-.37-1.41.12-1.02.37-1.41c.25-.39.67-.59,1.25-.6.49,0,.87.18,1.15.54h.01v-2.21h1v5.62h-.97s0-.43,0-.43ZM39.42,79.52c0,.28.06.55.18.82.07.12.15.22.26.3.11.09.24.13.4.13.18,0,.32-.04.43-.13.11-.08.21-.18.27-.3.07-.12.12-.26.15-.4.03-.15.04-.29.04-.42,0-.29-.07-.56-.2-.82-.07-.12-.17-.23-.28-.3s-.25-.11-.42-.11c-.32,0-.54.15-.66.41-.06.12-.1.25-.13.4-.03.14-.05.28-.05.42h0Z"/>
    <path class="st0" d="M43.49,77.8c.43-.19.88-.29,1.34-.29,1.12-.01,1.68.53,1.67,1.63v.49c0,.38,0,.7.01.97.01.29.03.57.04.86h-.89c-.03-.24-.04-.43-.04-.58h-.01c-.12.21-.29.37-.5.49-.22.12-.45.18-.69.18-.35,0-.66-.1-.92-.3-.28-.2-.42-.48-.43-.85,0-.29.07-.52.19-.71.12-.18.28-.31.46-.4.2-.1.41-.16.64-.19.23-.02.45-.04.66-.04h.56c0-.31-.07-.53-.21-.65s-.36-.18-.66-.18c-.44,0-.84.15-1.19.42l-.03-.86h0ZM44.03,80.34c0,.16.06.28.19.35.11.08.26.12.45.12.31,0,.54-.12.71-.35.14-.23.21-.49.21-.79h-.61c-.06,0-.12,0-.18.01-.13.01-.25.04-.37.09-.11.04-.21.11-.28.2-.08.09-.12.21-.12.36h0Z"/>
    <path class="st0" d="M50.12,78.33h-.74v-.74h.74v-.77l1-.32v1.1h.89v.74h-.89v1.8c0,.17.03.32.1.43.07.13.19.2.38.2s.34-.04.46-.1l.03.79c-.2.06-.45.09-.74.09-.81-.02-1.22-.44-1.22-1.25v-1.97h0Z"/>
    <path class="st0" d="M55.92,81.24c-.36.21-.8.31-1.33.31-1.33-.02-2-.69-2.02-2,0-.57.15-1.06.45-1.45.3-.38.75-.58,1.34-.59.71,0,1.19.22,1.46.65.25.43.38.99.38,1.68h-2.67c.03.31.14.55.34.71.2.18.46.26.76.26.25,0,.47-.04.69-.12.21-.07.41-.16.59-.27v.82h.01ZM55.25,79.15c-.01-.26-.08-.47-.2-.64-.13-.18-.33-.26-.61-.27-.28,0-.49.09-.64.26-.15.17-.24.39-.25.65h1.71-.01Z"/>
    <path class="st0" d="M57.13,75.84h1v5.62h-1v-5.62Z"/>
    <path class="st0" d="M62.4,81.24c-.36.21-.8.31-1.33.31-1.33-.02-2-.69-2.02-2,0-.57.15-1.06.45-1.45.3-.38.75-.58,1.34-.59.71,0,1.19.22,1.46.65.25.43.38.99.38,1.68h-2.67c.03.31.14.55.34.71.2.18.46.26.76.26.25,0,.47-.04.69-.12.21-.07.41-.16.59-.27v.82h.01ZM61.73,79.15c-.01-.26-.08-.47-.2-.64-.13-.18-.33-.26-.61-.27-.28,0-.49.09-.64.26-.15.17-.24.39-.25.65h1.71-.01Z"/>
    <path class="st0" d="M66.09,78.43c-.08-.04-.18-.08-.29-.1s-.24-.04-.4-.04c-.31,0-.56.12-.74.33-.19.22-.29.52-.29.89s.09.66.26.89c.17.24.43.36.78.37.14,0,.29-.02.43-.07.14-.04.25-.07.34-.11l.04.83c-.14.04-.29.07-.45.09-.16.02-.35.04-.56.04-.63,0-1.1-.2-1.42-.59-.32-.38-.49-.86-.49-1.46s.16-1.05.49-1.43c.32-.38.78-.57,1.38-.58.39,0,.71.04.97.13l-.09.8h.04Z"/>
    <path class="st0" d="M66.78,79.56c0-.65.2-1.15.58-1.51.38-.35.85-.54,1.43-.54s1.07.18,1.45.54.57.86.58,1.51c0,.57-.18,1.04-.53,1.41-.35.38-.85.57-1.5.59-.64,0-1.14-.21-1.49-.59-.36-.38-.53-.85-.53-1.41h0ZM67.83,79.44c0,.07,0,.15.01.23.01.09.02.16.04.24.03.16.08.3.15.43s.18.23.3.31c.12.09.28.13.46.13s.36-.04.49-.12c.12-.07.22-.18.3-.31.07-.13.12-.27.15-.43.03-.15.04-.31.04-.47,0-.31-.08-.58-.23-.8-.17-.23-.41-.34-.74-.35-.32,0-.56.12-.72.35-.17.22-.25.49-.25.79Z"/>
    <path class="st0" d="M71.71,77.6h.94v.54h.01c.17-.24.35-.4.56-.49s.4-.13.59-.13c.54,0,.92.22,1.14.68.12-.24.3-.41.52-.52.21-.11.44-.16.68-.16.47,0,.79.15.98.43.17.28.25.64.25,1.09v2.44h-1.01v-2.3c0-.2-.02-.38-.07-.57-.04-.09-.09-.16-.16-.22-.08-.05-.2-.08-.35-.08-.16,0-.29.04-.39.13s-.18.2-.23.33c-.05.13-.08.27-.1.41-.02.15-.03.3-.03.43v1.88h-1.01v-2.3c0-.2-.02-.38-.07-.57-.04-.09-.09-.16-.16-.22-.08-.05-.2-.08-.35-.08-.17,0-.29.04-.39.13-.11.09-.18.2-.23.33-.05.13-.08.27-.1.41-.02.15-.03.3-.03.43v1.88h-1v-3.86h0v-.04Z"/>
    <path class="st0" d="M78.49,77.6h.94v.54h.01c.16-.24.35-.4.55-.49.21-.09.4-.13.59-.13.54,0,.92.22,1.14.68.12-.24.3-.41.52-.52.21-.11.44-.16.68-.16.47,0,.79.15.98.43.17.28.25.64.25,1.09v2.44h-1.01v-2.3c0-.2-.02-.38-.07-.57-.04-.09-.09-.16-.16-.22-.08-.05-.2-.08-.35-.08-.16,0-.29.04-.39.13s-.18.2-.23.33c-.05.13-.08.27-.1.41-.02.15-.03.3-.03.43v1.88h-1.01v-2.3c0-.2-.02-.38-.07-.57-.04-.09-.09-.16-.16-.22-.08-.05-.2-.08-.35-.08-.16,0-.29.04-.39.13s-.18.2-.23.33c-.05.13-.08.27-.1.41-.02.15-.03.3-.03.43v1.88h-1.01v-3.86h0l.03-.04Z"/>
    <path class="st0" d="M88.83,81.46h-.95v-.52h-.01c-.32.4-.74.6-1.27.62-.46,0-.79-.15-.99-.43-.21-.28-.32-.64-.32-1.08v-2.44h1.01v2.06c0,.05,0,.11.01.17v.19c0,.13.03.25.07.37.04.11.11.2.2.27s.21.11.37.11c.18,0,.34-.05.46-.14s.2-.19.26-.32c.07-.13.12-.27.13-.41s.03-.28.03-.4v-1.89h1.01v3.86h0v-.02Z"/>
    <path class="st0" d="M89.98,77.6h.95v.52h.01c.32-.41.74-.62,1.27-.62.46,0,.79.15,1.01.43.21.28.31.64.31,1.09v2.44h-1.01v-2.44c0-.13-.03-.25-.07-.35-.04-.12-.1-.21-.19-.28-.1-.07-.22-.1-.38-.1-.18,0-.32.04-.43.13s-.2.19-.27.32-.11.27-.13.41c-.03.15-.04.29-.04.42v1.89h-1.01v-3.86h-.02Z"/>
    <path class="st0" d="M94.7,75.93h1.01v.96h-1.01v-.96ZM94.7,77.6h1.01v3.86h-1.01v-3.86Z"/>
    <path class="st0" d="M99.37,78.43c-.09-.04-.18-.08-.29-.1s-.24-.04-.4-.04c-.31,0-.55.12-.74.33-.19.22-.29.52-.29.89s.09.66.26.89c.17.24.43.36.78.37.15,0,.29-.02.43-.07.14-.04.25-.07.34-.11l.04.83c-.14.04-.29.07-.45.09s-.35.04-.55.04c-.63,0-1.1-.2-1.42-.59-.32-.38-.49-.86-.49-1.46s.16-1.05.49-1.43c.32-.38.78-.57,1.38-.58.39,0,.71.04.98.13l-.09.8h.02Z"/>
    <path class="st0" d="M100.49,77.8c.43-.19.88-.29,1.34-.29,1.12-.01,1.68.53,1.66,1.63v.49c0,.38,0,.7,0,.97,0,.29.02.57.04.86h-.88c-.03-.24-.04-.43-.04-.58h0c-.12.21-.29.37-.5.49-.22.12-.45.18-.69.18-.35,0-.66-.1-.92-.3-.28-.2-.42-.48-.43-.85,0-.29.07-.52.2-.71.12-.18.27-.31.46-.4.2-.1.41-.16.64-.19.23-.02.45-.04.66-.04h.55c0-.31-.07-.53-.21-.65s-.36-.18-.66-.18c-.44,0-.84.15-1.19.42l-.03-.86h0ZM101.03,80.34c0,.16.06.28.19.35.12.08.26.12.45.12.31,0,.54-.12.71-.35.15-.23.21-.49.21-.79h-.61c-.06,0-.12,0-.18.01-.13.01-.25.04-.37.09-.12.04-.21.11-.28.2-.08.09-.12.21-.12.36h0Z"/>
    <path class="st0" d="M104.43,77.6h3.06v.82l-1.92,2.26h1.99v.78h-3.21v-.82l1.96-2.26h-1.88v-.78h0Z"/>
    <path class="st0" d="M108.48,75.93h1.01v.96h-1.01v-.96ZM108.48,77.6h1.01v3.86h-1.01v-3.86Z"/>
    <path class="st0" d="M114.2,81.46h-.95v-.52h0c-.32.4-.74.6-1.27.62-.46,0-.79-.15-.99-.43-.21-.28-.32-.64-.32-1.08v-2.44h1.01v2.06c0,.05,0,.11,0,.17v.19c0,.13.03.25.07.37.04.11.11.2.2.27s.21.11.37.11c.18,0,.34-.05.46-.14.12-.09.2-.19.26-.32.07-.13.12-.27.13-.41s.03-.28.03-.4v-1.89h1.01v3.86h0v-.02Z"/>
    <path class="st0" d="M115.35,77.6h.95v.52h0c.32-.41.74-.62,1.27-.62.46,0,.79.15,1.01.43.21.28.31.64.31,1.09v2.44h-1.01v-2.44c0-.13-.03-.25-.07-.35-.04-.12-.1-.21-.19-.28-.1-.07-.22-.1-.38-.1-.18,0-.32.04-.43.13-.11.09-.2.19-.27.32s-.11.27-.13.41c-.03.15-.04.29-.04.42v1.89h-1.01v-3.86h-.02Z"/>
    <path class="st0" d="M122.29,76.23h1.05v3.02c0,.45.08.8.25,1.07s.45.41.84.41.68-.14.85-.41c.16-.26.24-.62.24-1.07v-3.02h1.05v3.35c-.02,1.34-.73,2-2.14,1.98-1.4.02-2.12-.64-2.14-1.98v-3.35h0Z"/>
    <path class="st0" d="M127.86,76.23h2.91v.82h-1.86v1.29h1.77v.82h-1.77v2.29h-1.05v-5.23h0Z"/>
    <path class="st0" d="M131.63,76.23h1.05v5.24h-1.05v-5.24Z"/>
    <path class="st0" d="M134.87,77.05h-1.5v-.82h4.05v.82h-1.5v4.41h-1.05s0-4.41,0-4.41Z"/>
  </g>
</svg>