<svg width="180" height="180" viewBox="0 0 180 180" fill="none" xmlns="http://www.w3.org/2000/svg">
<path d="M110.409 161.25C107.472 161.25 104.934 160.181 102.797 158.044C100.659 155.908 99.5906 153.371 99.5906 150.433V119.208C99.5906 116.858 101.496 114.952 103.846 114.952C106.196 114.952 108.101 116.858 108.101 119.208V150.433C108.101 151.106 108.317 151.658 108.75 152.091C109.183 152.523 109.736 152.739 110.409 152.739H157.933C158.606 152.739 159.158 152.523 159.591 152.091C160.023 151.658 160.239 151.106 160.239 150.433V44.1356C160.239 43.4619 160.023 42.9087 159.591 42.4762C159.158 42.0437 158.606 41.8275 157.933 41.8275H110.409C109.736 41.8275 109.183 42.0437 108.75 42.4762C108.317 42.9087 108.101 43.4619 108.101 44.1356V60.8653C108.101 63.2155 106.196 65.1206 103.846 65.1206C101.496 65.1206 99.5906 63.2155 99.5906 60.8653V44.1356C99.5906 41.1981 100.659 38.6606 102.797 36.5231C104.934 34.3856 107.472 33.3169 110.409 33.3169H157.933C160.871 33.3169 163.408 34.3856 165.544 36.5231C167.681 38.6606 168.75 41.1981 168.75 44.1356V150.433C168.75 153.371 167.681 155.908 165.544 158.044C163.408 160.181 160.871 161.25 157.933 161.25H110.409ZM22.0669 146.683C19.1294 146.683 16.5925 145.614 14.4562 143.477C12.3187 141.339 11.25 138.802 11.25 135.864V29.5669C11.25 26.6294 12.3187 24.0925 14.4562 21.9562C16.5925 19.8187 19.1294 18.75 22.0669 18.75H69.5906C72.5281 18.75 75.0656 19.8187 77.2031 21.9562C79.3406 24.0925 80.4094 26.6294 80.4094 29.5669V60.8653C80.4094 63.2155 78.5042 65.1206 76.1541 65.1206C73.8039 65.1206 71.8988 63.2155 71.8988 60.8653V29.5669C71.8988 28.8944 71.6825 28.3419 71.25 27.9094C70.8175 27.4769 70.2644 27.2606 69.5906 27.2606H22.0669C21.3944 27.2606 20.8419 27.4769 20.4094 27.9094C19.9769 28.3419 19.7606 28.8944 19.7606 29.5669V135.864C19.7606 136.538 19.9769 137.091 20.4094 137.524C20.8419 137.956 21.3944 138.172 22.0669 138.172H69.5906C70.2644 138.172 70.8175 137.956 71.25 137.524C71.6825 137.091 71.8988 136.538 71.8988 135.864V119.208C71.8988 116.858 73.8039 114.952 76.1541 114.952C78.5042 114.952 80.4094 116.858 80.4094 119.208V135.864C80.4094 138.802 79.3406 141.339 77.2031 143.477C75.0656 145.614 72.5281 146.683 69.5906 146.683H22.0669ZM134.179 62.1637C135.245 62.1637 136.166 61.7856 136.941 61.0294C137.714 60.2744 138.101 59.3637 138.101 58.2975C138.101 57.2312 137.712 56.3106 136.933 55.5356C136.154 54.7619 135.242 54.375 134.197 54.375C133.107 54.375 132.188 54.7644 131.438 55.5431C130.688 56.3219 130.312 57.2331 130.312 58.2769C130.312 59.3681 130.69 60.2887 131.445 61.0387C132.201 61.7887 133.113 62.1637 134.179 62.1637ZM45.8381 47.3663C46.9044 47.3663 47.8244 46.9769 48.5981 46.1981C49.3731 45.4194 49.7606 44.5081 49.7606 43.4644C49.7606 42.4206 49.3706 41.5119 48.5906 40.7381C47.8119 39.9644 46.9006 39.5775 45.8569 39.5775C44.7669 39.5775 43.8469 39.9669 43.0969 40.7456C42.3469 41.5231 41.9719 42.4338 41.9719 43.4775C41.9719 44.5213 42.3494 45.43 43.1044 46.2037C43.8606 46.9787 44.7719 47.3663 45.8381 47.3663Z" fill="url(#paint0_radial_4049_1122)"/>
<path d="M88.5581 106.743V94.5876L81.2269 101.831L78.436 99.0895L87.7667 89.9221L78.436 80.7547L81.2269 78.0127L88.5581 85.2565V73.1016H90.5575L100.513 82.8828L93.3484 89.9221L100.513 96.9613L90.5575 106.743H88.5581ZM92.5569 85.2565L94.9312 82.8828L92.5569 80.591V85.2565ZM92.5569 99.2532L94.9312 96.9613L92.5569 94.5876V99.2532Z" fill="#500A5A"/>
<defs>
<radialGradient id="paint0_radial_4049_1122" cx="0" cy="0" r="1" gradientTransform="matrix(175.692 180.819 335.036 -116.516 18.949 1.29375)" gradientUnits="userSpaceOnUse">
<stop offset="0.182441" stop-color="#9AA9B6"/>
<stop offset="0.754287" stop-color="#F01ADB"/>
</radialGradient>
</defs>
</svg>
