<svg width="180" height="180" viewBox="0 0 180 180" fill="none" xmlns="http://www.w3.org/2000/svg">
<mask id="mask0_19118_1244" style="mask-type:alpha" maskUnits="userSpaceOnUse" x="0" y="0" width="180" height="180">
<rect width="180" height="180" fill="#D9D9D9"/>
</mask>
<g mask="url(#mask0_19118_1244)">
<path d="M161.25 139.071C161.25 140.853 159.096 141.745 157.836 140.486L153.325 135.976C152.95 135.601 152.739 135.092 152.739 134.562V53.0195C152.739 52.3945 152.523 51.8538 152.091 51.3976C151.658 50.9401 151.106 50.7113 150.433 50.7113H121.638C121.056 50.7113 120.503 50.4582 120.123 50.0178L107.56 35.4543C107.18 35.0139 106.627 34.7607 106.045 34.7607H73.9574C73.3742 34.7607 72.8201 35.0153 72.4402 35.4577L64.8005 44.3536C64.045 45.2332 62.7022 45.2882 61.8774 44.4732L58.7219 41.3551C57.9787 40.6208 57.926 39.4381 58.6009 38.6406L68.487 26.9581C68.8671 26.5091 69.4255 26.2501 70.0138 26.2501H109.998C110.579 26.2501 111.132 26.5034 111.512 26.9439L124.074 41.5088C124.454 41.9493 125.007 42.2026 125.589 42.2026H150.433C153.308 42.2026 155.829 43.2863 157.997 45.4538C160.166 47.6226 161.25 50.1445 161.25 53.0195V139.071ZM29.5668 153.75C26.6256 153.75 24.0875 152.683 21.9525 150.548C19.8175 148.413 18.75 145.874 18.75 142.933V53.0195C18.75 50.1445 19.8175 47.6226 21.9525 45.4538C24.0875 43.2863 26.6256 42.2026 29.5668 42.2026H41.374C41.9045 42.2026 42.4132 42.4133 42.7882 42.7884L47.297 47.2971C48.5569 48.5571 47.6646 50.7113 45.8828 50.7113H29.5668C28.8943 50.7113 28.3418 50.9401 27.9093 51.3976C27.4768 51.8538 27.2606 52.3945 27.2606 53.0195V142.933C27.2606 143.606 27.4768 144.158 27.9093 144.591C28.3418 145.023 28.8943 145.239 29.5668 145.239H144.411C144.941 145.239 145.45 145.45 145.825 145.825L150.336 150.336C151.596 151.596 150.703 153.75 148.922 153.75H29.5668ZM113.287 113.287C113.961 113.961 114.071 115.022 113.5 115.785C111.022 119.096 107.922 121.792 104.199 123.876C99.9856 126.234 95.2612 127.414 90.0262 127.414C81.605 127.414 74.5793 124.579 68.9493 118.911C63.3193 113.243 60.5043 106.249 60.5043 97.9276C60.5043 92.6988 61.6631 87.9551 63.9806 83.6963C66.0241 79.9411 68.677 76.7987 71.9392 74.269C72.7023 73.6772 73.7803 73.7804 74.4631 74.4632L77.6486 77.6487C78.5856 78.5857 78.3644 80.1583 77.3004 80.9481C75.1139 82.571 73.3014 84.6021 71.8631 87.0413C69.9643 90.2613 69.015 93.8982 69.015 97.952C69.015 103.901 71.0006 108.88 74.9718 112.89C78.9431 116.899 83.9587 118.903 90.0187 118.903C94.0175 118.903 97.6318 117.954 100.862 116.055C103.309 114.617 105.345 112.804 106.97 110.617C107.76 109.554 109.332 109.333 110.269 110.27L113.287 113.287ZM110.957 76.9613C113.543 79.5476 115.577 82.5013 117.058 85.8226C118.538 89.1426 119.326 92.862 119.422 96.9807C119.422 97.7982 119.384 98.577 119.308 99.317C119.203 100.319 118.002 100.651 117.29 99.9384L87.9737 70.6225C87.2891 69.938 87.6418 68.7772 88.6012 68.6476C89.3412 68.5463 90.12 68.4957 90.9375 68.4957C94.9062 68.592 98.5887 69.3801 101.985 70.8601C105.38 72.3413 108.371 74.3751 110.957 76.9613ZM159.261 168.663C158.48 169.444 157.214 169.444 156.432 168.663L10.9052 23.136C10.1242 22.355 10.1241 21.0888 10.905 20.3077L14.1914 17.0204C14.9724 16.2391 16.2389 16.239 17.02 17.0201L162.547 162.547C163.328 163.328 163.328 164.594 162.547 165.376L159.261 168.663Z" fill="url(#paint0_linear_19118_1244)"/>
<mask id="mask1_19118_1244" style="mask-type:alpha" maskUnits="userSpaceOnUse" x="0" y="0" width="180" height="180">
<rect width="180" height="180" fill="#D9D9D9"/>
</mask>
<g mask="url(#mask1_19118_1244)">
<path d="M157.847 170.078L9.49121 21.722L15.6056 15.6057L163.961 163.961L157.847 170.078Z" fill="#500A5A"/>
</g>
</g>
<defs>
<linearGradient id="paint0_linear_19118_1244" x1="-18.0711" y1="130.4" x2="190.313" y2="46.8047" gradientUnits="userSpaceOnUse">
<stop offset="0.114235" stop-color="#F01ADB"/>
<stop offset="0.985577" stop-color="#9AA9B6"/>
</linearGradient>
</defs>
</svg>
