<svg width="180" height="180" viewBox="0 0 180 180" fill="none" xmlns="http://www.w3.org/2000/svg">
<mask id="mask0_2159_178" style="mask-type:alpha" maskUnits="userSpaceOnUse" x="0" y="0" width="180" height="180">
<rect width="180" height="180" fill="#D9D9D9"/>
</mask>
<g mask="url(#mask0_2159_178)">
<path d="M90.0131 161.25C80.2356 161.25 71.0231 159.38 62.3756 155.64C53.7281 151.9 46.1662 146.793 39.69 140.319C33.2137 133.846 28.1044 126.287 24.3619 117.643C20.6206 109.001 18.75 99.7906 18.75 90.0131C18.75 80.1581 20.62 70.895 24.36 62.2237C28.1 53.5525 33.2069 46.01 39.6806 39.5962C46.1544 33.1825 53.7131 28.1044 62.3569 24.3619C70.9994 20.6206 80.2094 18.75 89.9869 18.75C99.8419 18.75 109.105 20.62 117.776 24.36C126.448 28.1 133.99 33.1756 140.404 39.5869C146.818 45.9981 151.896 53.5375 155.638 62.205C159.379 70.8725 161.25 80.1331 161.25 89.9869C161.25 99.7644 159.38 108.977 155.64 117.624C151.9 126.272 146.824 133.834 140.413 140.31C134.002 146.786 126.463 151.896 117.795 155.638C109.128 159.379 99.8669 161.25 90.0131 161.25ZM90 152.739C107.461 152.739 122.283 146.629 134.466 134.409C146.648 122.188 152.739 107.385 152.739 90C152.739 72.5387 146.648 57.7169 134.466 45.5344C122.283 33.3519 107.461 27.2606 90 27.2606C72.615 27.2606 57.8119 33.3519 45.5906 45.5344C33.3706 57.7169 27.2606 72.5387 27.2606 90C27.2606 107.385 33.3706 122.188 45.5906 134.409C57.8119 146.629 72.615 152.739 90 152.739Z" fill="url(#paint0_radial_2159_178)"/>
<path d="M63 98.1206C62.3562 100.793 61.5293 103.399 60.5193 105.937L52.4287 103.097C53.3125 101.038 54.0381 98.9056 54.6056 96.6993C55.1731 94.4931 55.4568 92.2599 55.4568 89.9999C55.4568 87.7399 55.2237 85.4949 54.7575 83.2649C54.2912 81.0337 53.515 78.9518 52.4287 77.0193L60.4031 74.0624C61.5668 76.5237 62.4518 79.1106 63.0581 81.8231C63.6631 84.5343 63.9656 87.2599 63.9656 89.9999C63.9656 92.7399 63.6437 95.4468 63 98.1206Z" fill="#500A5A"/>
<path d="M89.4881 103.492C88.7243 107.944 87.4718 112.273 85.7306 116.481L77.64 113.668C79.1975 109.937 80.3343 106.074 81.0506 102.079C81.7668 98.0837 82.125 94.0574 82.125 89.9999C82.125 85.9424 81.7862 81.9349 81.1087 77.9774C80.43 74.0212 79.2737 70.2018 77.64 66.5193L85.7306 63.7068C87.4718 67.8681 88.7243 72.1562 89.4881 76.5712C90.2518 80.9849 90.6337 85.4624 90.6337 90.0037C90.6337 94.5449 90.2518 99.0412 89.4881 103.492Z" fill="#500A5A"/>
<path d="M115.609 108.78C114.479 114.935 112.707 120.954 110.293 126.836L102.317 123.649C104.529 118.396 106.162 112.927 107.214 107.241C108.267 101.554 108.793 95.8018 108.793 89.9831C108.793 84.1631 108.267 78.4456 107.214 72.8306C106.162 67.2156 104.529 61.7606 102.317 56.4656L110.293 53.2781C112.707 59.0843 114.479 65.065 115.609 71.22C116.737 77.375 117.302 83.6349 117.302 89.9999C117.302 96.3649 116.737 102.625 115.609 108.78Z" fill="#500A5A"/>
</g>
<defs>
<radialGradient id="paint0_radial_2159_178" cx="0" cy="0" r="1" gradientUnits="userSpaceOnUse" gradientTransform="translate(32.6838 33.8099) rotate(61.5153) scale(310.03 296.627)">
<stop offset="0.114235" stop-color="#F01ADB"/>
<stop offset="0.521988" stop-color="#9AA9B6"/>
<stop offset="0.639382" stop-color="#F01ADB" stop-opacity="0"/>
</radialGradient>
</defs>
</svg>
