<svg width="14" height="18" viewBox="0 0 14 18" fill="none" xmlns="http://www.w3.org/2000/svg">
<path d="M4.66667 13.6667H9.33333V11.9167C9.33333 11.275 9.10486 10.7257 8.64792 10.2687C8.19097 9.81181 7.64167 9.58333 7 9.58333C6.35833 9.58333 5.80903 9.81181 5.35208 10.2687C4.89514 10.7257 4.66667 11.275 4.66667 11.9167V13.6667ZM7 8.41667C7.64167 8.41667 8.19097 8.18819 8.64792 7.73125C9.10486 7.27431 9.33333 6.725 9.33333 6.08333V4.33333H4.66667V6.08333C4.66667 6.725 4.89514 7.27431 5.35208 7.73125C5.80903 8.18819 6.35833 8.41667 7 8.41667ZM2.33333 14.8333V13.6667H3.5V11.9167C3.5 11.3236 3.63611 10.7694 3.90833 10.2542C4.19028 9.72917 4.57917 9.31111 5.075 9C4.57917 8.68889 4.19028 8.27569 3.90833 7.76042C3.63611 7.23542 3.5 6.67639 3.5 6.08333V4.33333H2.33333V3.16667H11.6667V4.33333H10.5V6.08333C10.5 6.67639 10.359 7.23542 10.0771 7.76042C9.80486 8.27569 9.42083 8.68889 8.925 9C9.42083 9.31111 9.80486 9.72917 10.0771 10.2542C10.359 10.7694 10.5 11.3236 10.5 11.9167V13.6667H11.6667V14.8333H2.33333Z" fill="#C00012"/>
</svg>
